<svg width="35" height="35" viewBox="0 0 35 35" fill="red" xmlns="http://www.w3.org/2000/svg">
<circle cx="17.5" cy="17.5" r="16.5" stroke="none" stroke-width="2"/>
<path d="M17.4721 18.491C19.9844 18.491 22.0222 16.4532 22.0222 13.9409C22.0222 11.4286 19.9844 9.40479 17.4721 9.40479C14.9598 9.40479 12.922 11.4426 12.922 13.9409C12.922 16.4393 14.9598 18.491 17.4721 18.491ZM17.4721 10.5912C19.3144 10.5912 20.8219 12.0985 20.8219 13.9409C20.8219 15.7833 19.3144 17.2907 17.4721 17.2907C15.6297 17.2907 14.1223 15.7833 14.1223 13.9409C14.1223 12.0985 15.6297 10.5912 17.4721 10.5912Z" fill="white"/>
<path d="M9.60016 25.5953H25.3998C25.7348 25.5953 26 25.3301 26 24.9952C26 21.8548 23.4458 19.2866 20.2915 19.2866H14.7085C11.5681 19.2866 9 21.8408 9 24.9952C9 25.3301 9.26518 25.5953 9.60016 25.5953ZM14.7085 20.4869H20.2915C22.5804 20.4869 24.4647 22.1897 24.7578 24.395H10.2422C10.5353 22.2037 12.4196 20.4869 14.7085 20.4869Z" fill="white"/>
</svg>
