<svg width="32" height="32" viewBox="0 0 32 32" fill="none" xmlns="http://www.w3.org/2000/svg">
<circle cx="15.75" cy="15.75" r="15.75" fill="#F13A3A"/>
<g clip-path="url(#clip0)">
<path d="M20.3919 14.043H19.5889L19.6412 15.3539H20.3919C20.8237 15.3539 21.175 15.6951 21.175 16.1269V20.7809C21.175 21.2127 20.8237 21.5588 20.3919 21.5588H19.8896L19.9419 22.8698H20.3919C21.5466 22.8698 22.4859 21.9356 22.4859 20.7809V16.127C22.4859 14.9723 21.5465 14.043 20.3919 14.043Z" fill="white"/>
<path d="M18.9429 13.2127H17.7323C17.2602 13.9118 16.4716 14.4511 15.5645 14.5513C15.4568 14.5632 15.3489 14.5638 15.2415 14.5638C14.9712 14.5638 14.7033 14.5213 14.4454 14.4493V15.9219C14.4454 16.0908 14.3084 16.2278 14.1395 16.2278C13.9706 16.2278 13.8336 16.0908 13.8336 15.9219V14.3925C13.8336 14.3316 13.8516 14.275 13.8823 14.2273C13.666 14.1156 13.4622 13.988 13.277 13.8238C13.0779 13.6472 12.9137 13.4311 12.7896 13.2126H10.7194L10.3247 23.0859C10.318 23.2556 10.379 23.402 10.4967 23.5244C10.6143 23.6469 10.7726 23.6999 10.9424 23.6999H18.7198C18.8896 23.6999 19.0479 23.6416 19.1655 23.5192C19.2832 23.3967 19.3443 23.251 19.3375 23.0813L18.9429 13.2127ZM12.6102 16.9707C12.6102 17.1396 12.4732 17.2765 12.3043 17.2765C12.1354 17.2765 11.9984 17.1396 11.9984 16.9707V15.0917C11.9984 14.9228 12.1354 14.7858 12.3043 14.7858C12.4732 14.7858 12.6102 14.9228 12.6102 15.0917V16.9707Z" fill="white"/>
<path d="M17.6578 10.1313C17.2117 10.1313 16.7844 10.2937 16.4546 10.5934C16.3786 10.6626 16.2729 10.6875 16.1733 10.6621C16.0737 10.6368 15.9936 10.5624 15.9599 10.4653C15.6561 9.58904 14.8288 9 13.9013 9C12.9255 9 12.0621 9.65619 11.8018 10.5959C11.7611 10.7429 11.6182 10.8372 11.4674 10.8175C11.417 10.8109 11.3697 10.8129 11.3227 10.8129C10.7115 10.8129 10.2144 11.3153 10.2144 11.9265C10.2144 12.1679 10.2922 12.3825 10.4356 12.601H12.5695C12.5422 12.4699 12.5256 12.3246 12.5217 12.1884C12.5168 12.0196 12.6498 11.8735 12.8186 11.8686C12.9854 11.8628 13.1283 11.9941 13.1332 12.163C13.1465 12.6246 13.3468 13.059 13.6829 13.357C14.1783 13.7963 14.8396 14.0059 15.4972 13.9334C16.5419 13.818 17.3886 13.013 17.5562 11.9761C17.5831 11.8094 17.74 11.6957 17.907 11.7228C18.0737 11.7497 18.1871 11.9172 18.1601 12.084C18.1319 12.2586 18.088 12.4262 18.0306 12.601H19.3202C19.4049 12.3825 19.4477 12.1573 19.4477 11.9264C19.4477 10.9395 18.6447 10.1313 17.6578 10.1313Z" fill="white"/>
</g>
<defs>
<clipPath id="clip0">
<rect width="14.7" height="14.7" fill="white" transform="translate(9 9)"/>
</clipPath>
</defs>
</svg>
