<svg width="25" height="25" viewBox="0 0 25 25" fill="none" xmlns="http://www.w3.org/2000/svg">
<g clip-path="url(#clip0)">
<path fill-rule="evenodd" clip-rule="evenodd" d="M15.4712 12.4996L24.3847 3.58614C25.2052 2.76565 25.2052 1.43537 24.3847 0.614998C23.5642 -0.205494 22.234 -0.205494 21.4135 0.614998L12.5 9.52854L3.58643 0.614881C2.76593 -0.205611 1.43577 -0.205611 0.615281 0.614881C-0.205094 1.43537 -0.205094 2.76565 0.615281 3.58602L9.52883 12.4995L0.615281 21.413C-0.205094 22.2335 -0.205094 23.5638 0.615281 24.3841C1.43577 25.2046 2.76593 25.2046 3.58643 24.3841L12.5 15.4706L21.4135 24.3841C22.2339 25.2046 23.5642 25.2046 24.3847 24.3841C25.2052 23.5637 25.2052 22.2335 24.3847 21.413L15.4712 12.4996Z" fill="white"/>
</g>
<defs>
<clipPath id="clip0">
<rect width="25" height="25" fill="#D52B2B"/>
</clipPath>
</defs>
</svg>
