<svg width="25" height="25" viewBox="0 0 25 25" fill="none" xmlns="http://www.w3.org/2000/svg">
<g clip-path="url(#clip0)">
<path d="M18.7493 0.00520161L15.5074 0C11.8653 0 9.51154 2.41485 9.51154 6.15247V8.98917H6.25195C5.97028 8.98917 5.74219 9.21752 5.74219 9.49919V13.6092C5.74219 13.8909 5.97054 14.119 6.25195 14.119H9.51154V24.49C9.51154 24.7716 9.73963 24.9997 10.0213 24.9997H14.2741C14.5558 24.9997 14.7839 24.7714 14.7839 24.49V14.119H18.5951C18.8768 14.119 19.1049 13.8909 19.1049 13.6092L19.1064 9.49919C19.1064 9.36395 19.0526 9.23443 18.9571 9.13872C18.8617 9.04301 18.7317 8.98917 18.5964 8.98917H14.7839V6.58446C14.7839 5.42866 15.0593 4.84192 16.5649 4.84192L18.7488 4.84114C19.0302 4.84114 19.2583 4.61279 19.2583 4.33138V0.51496C19.2583 0.233813 19.0305 0.00572178 18.7493 0.00520161Z" fill="white"/>
</g>
<defs>
<clipPath id="clip0">
<rect width="25" height="24.9997" fill="white"/>
</clipPath>
</defs>
</svg>
