<svg width="170" height="58" viewBox="0 0 170 58" fill="none" xmlns="http://www.w3.org/2000/svg">
<g filter="url(#filter0_d)">
<path d="M42.7065 40.2318C40.9765 39.6804 42.7065 33.9446 34.1083 24.7554C33.4338 24.0346 52.4649 14.599 52.8219 16.5336C54.3393 24.7554 45.7411 41.1991 42.7065 40.2318Z" fill="#FC2C2C"/>
<path d="M42.7065 40.2318C40.9765 39.6804 42.7065 33.9446 34.1083 24.7554C33.4338 24.0346 52.4649 14.599 52.8219 16.5336C54.3393 24.7554 45.7411 41.1991 42.7065 40.2318Z" fill="url(#paint0_linear)"/>
<path d="M42.7065 40.2318C40.9765 39.6804 42.7065 33.9446 34.1083 24.7554C33.4338 24.0346 52.4649 14.599 52.8219 16.5336C54.3393 24.7554 45.7411 41.1991 42.7065 40.2318Z" stroke="#B52A2A"/>
<path d="M42.7065 40.2318C40.9765 39.6804 42.7065 33.9446 34.1083 24.7554C33.4338 24.0346 52.4649 14.599 52.8219 16.5336C54.3393 24.7554 45.7411 41.1991 42.7065 40.2318Z" stroke="url(#paint1_linear)"/>
</g>
<g filter="url(#filter1_d)">
<path d="M8.71056 37.8913C11.0297 40.0981 12.8849 39.0499 17.5231 41.8636C22.1613 44.6773 24.0166 51.7943 33.293 47.822C39.0708 45.3479 38.1495 39.3809 37.0036 36.4017C33.7569 27.9606 26.7995 27.9054 30.0463 22.4987C38.3951 8.59565 47.6715 4.29233 43.0333 2.63722C33.293 -0.838524 23.089 1.64414 16.1317 6.11297C11.4935 9.09219 5 15.5472 5 24.9814C5 31.7808 6.39146 35.6845 8.71056 37.8913Z" fill="#FC2C2C"/>
<path d="M8.71056 37.8913C11.0297 40.0981 12.8849 39.0499 17.5231 41.8636C22.1613 44.6773 24.0166 51.7943 33.293 47.822C39.0708 45.3479 38.1495 39.3809 37.0036 36.4017C33.7569 27.9606 26.7995 27.9054 30.0463 22.4987C38.3951 8.59565 47.6715 4.29233 43.0333 2.63722C33.293 -0.838524 23.089 1.64414 16.1317 6.11297C11.4935 9.09219 5 15.5472 5 24.9814C5 31.7808 6.39146 35.6845 8.71056 37.8913Z" fill="url(#paint2_linear)"/>
<path d="M8.71056 37.8913C11.0297 40.0981 12.8849 39.0499 17.5231 41.8636C22.1613 44.6773 24.0166 51.7943 33.293 47.822C39.0708 45.3479 38.1495 39.3809 37.0036 36.4017C33.7569 27.9606 26.7995 27.9054 30.0463 22.4987C38.3951 8.59565 47.6715 4.29233 43.0333 2.63722C33.293 -0.838524 23.089 1.64414 16.1317 6.11297C11.4935 9.09219 5 15.5472 5 24.9814C5 31.7808 6.39146 35.6845 8.71056 37.8913Z" stroke="#B52A2A"/>
<path d="M8.71056 37.8913C11.0297 40.0981 12.8849 39.0499 17.5231 41.8636C22.1613 44.6773 24.0166 51.7943 33.293 47.822C39.0708 45.3479 38.1495 39.3809 37.0036 36.4017C33.7569 27.9606 26.7995 27.9054 30.0463 22.4987C38.3951 8.59565 47.6715 4.29233 43.0333 2.63722C33.293 -0.838524 23.089 1.64414 16.1317 6.11297C11.4935 9.09219 5 15.5472 5 24.9814C5 31.7808 6.39146 35.6845 8.71056 37.8913Z" stroke="url(#paint3_linear)"/>
</g>
<path d="M18.4142 9.59074C14.7015 13.3614 12.5785 18.3399 11.9276 17.699C11.2767 17.0581 8.95263 15.2777 12.6653 11.507C16.378 7.73636 24.7215 3.40328 25.3724 4.04419C26.0233 4.68509 22.1268 5.82007 18.4142 9.59074Z" fill="#FF7979"/>
<path d="M46.2002 23.9629C44.5918 25.5965 43.9941 26.5372 43.3258 25.8792C42.6575 25.2212 39.3848 26.1577 40.9932 24.5241C42.6017 22.8906 48.4064 19.4723 49.0747 20.1303C49.743 20.7884 47.8087 22.3294 46.2002 23.9629Z" fill="#FF7979"/>
<path d="M60.464 23V5.96H65.144V18.92H72.872V23H60.464ZM74.8391 23V9.368H78.9191V23H74.8391ZM82.0456 23V9.368H88.6456C89.3816 9.368 90.0616 9.512 90.6856 9.8C91.3256 10.072 91.8696 10.432 92.3176 10.88C92.7816 11.328 93.1416 11.84 93.3976 12.416C93.6536 12.976 93.7816 13.552 93.7816 14.144C93.7816 14.752 93.6616 15.344 93.4216 15.92C93.1816 16.496 92.8376 17.008 92.3896 17.456C91.9576 17.904 91.4296 18.264 90.8056 18.536C90.1816 18.808 89.4936 18.944 88.7416 18.944H86.1256V23H82.0456ZM86.1256 15.368H88.4776C88.7656 15.368 89.0296 15.296 89.2696 15.152C89.5096 14.992 89.6296 14.656 89.6296 14.144C89.6296 13.888 89.5896 13.68 89.5096 13.52C89.4296 13.36 89.3256 13.24 89.1976 13.16C89.0856 13.064 88.9576 13 88.8136 12.968C88.6696 12.936 88.5256 12.92 88.3816 12.92H86.1256V15.368ZM95.9553 23V9.368H100.035V23H95.9553ZM107.242 16.928V23H103.162V9.368H106.354L112.69 15.656V9.368H116.77V23H113.53L107.242 16.928ZM128.812 14.096C128.764 14.064 128.612 13.984 128.356 13.856C128.116 13.712 127.812 13.568 127.444 13.424C127.092 13.28 126.692 13.152 126.244 13.04C125.812 12.928 125.38 12.872 124.948 12.872C124.596 12.872 124.316 12.904 124.108 12.968C123.9 13.016 123.796 13.12 123.796 13.28C123.796 13.568 124.036 13.776 124.516 13.904C124.996 14.032 125.66 14.224 126.508 14.48C127.18 14.672 127.788 14.888 128.332 15.128C128.892 15.352 129.364 15.632 129.748 15.968C130.132 16.288 130.428 16.672 130.636 17.12C130.844 17.568 130.948 18.112 130.948 18.752C130.948 19.6 130.78 20.312 130.444 20.888C130.124 21.448 129.7 21.904 129.172 22.256C128.644 22.592 128.044 22.832 127.372 22.976C126.7 23.12 126.02 23.192 125.332 23.192C124.804 23.192 124.252 23.152 123.676 23.072C123.1 22.992 122.532 22.888 121.972 22.76C121.428 22.616 120.892 22.448 120.364 22.256C119.836 22.064 119.356 21.856 118.924 21.632L120.7 18.056C120.764 18.136 120.94 18.256 121.228 18.416C121.516 18.576 121.876 18.736 122.308 18.896C122.74 19.056 123.22 19.2 123.748 19.328C124.292 19.44 124.844 19.496 125.404 19.496C125.82 19.496 126.108 19.464 126.268 19.4C126.444 19.32 126.532 19.232 126.532 19.136C126.532 18.976 126.444 18.848 126.268 18.752C126.092 18.64 125.852 18.536 125.548 18.44C125.26 18.344 124.916 18.256 124.516 18.176C124.132 18.08 123.724 17.96 123.292 17.816C121.996 17.4 121.052 16.896 120.46 16.304C119.868 15.696 119.572 14.872 119.572 13.832C119.572 13.096 119.724 12.44 120.028 11.864C120.332 11.288 120.732 10.808 121.228 10.424C121.74 10.04 122.324 9.752 122.98 9.56C123.652 9.352 124.348 9.248 125.068 9.248C125.596 9.248 126.116 9.296 126.628 9.392C127.156 9.488 127.652 9.608 128.116 9.752C128.596 9.896 129.036 10.056 129.436 10.232C129.852 10.408 130.228 10.568 130.564 10.712L128.812 14.096ZM133.348 23V9.368H137.428V14.6L142.684 9.368H146.884L141.292 15.488L147.268 23H142.996L138.868 17.768L137.428 18.968V23H133.348ZM148.735 23V9.368H152.815V23H148.735ZM166.837 19.448V23H155.941V9.368H166.645V12.92H160.021V14.408H165.685V17.72H160.021V19.448H166.837ZM61.232 43V25.96H68.312C69.032 25.96 69.696 26.112 70.304 26.416C70.912 26.72 71.432 27.128 71.864 27.64C72.312 28.136 72.656 28.704 72.896 29.344C73.152 29.968 73.28 30.6 73.28 31.24C73.28 31.864 73.184 32.472 72.992 33.064C72.8 33.64 72.528 34.16 72.176 34.624C71.824 35.088 71.4 35.472 70.904 35.776C70.408 36.08 69.864 36.28 69.272 36.376L73.52 43H72.104L67.976 36.568H62.456V43H61.232ZM62.456 35.44H68.432C68.976 35.44 69.472 35.32 69.92 35.08C70.368 34.84 70.752 34.528 71.072 34.144C71.392 33.744 71.632 33.296 71.792 32.8C71.968 32.288 72.056 31.768 72.056 31.24C72.056 30.696 71.952 30.176 71.744 29.68C71.552 29.168 71.28 28.72 70.928 28.336C70.592 27.952 70.192 27.648 69.728 27.424C69.28 27.184 68.792 27.064 68.264 27.064H62.456V35.44ZM84.0899 43.24C83.5139 43.24 82.9779 43.144 82.4819 42.952C81.9859 42.744 81.5459 42.472 81.1619 42.136C80.7939 41.784 80.5059 41.376 80.2979 40.912C80.0899 40.432 79.9859 39.92 79.9859 39.376C79.9859 38.832 80.1139 38.336 80.3699 37.888C80.6259 37.44 80.9779 37.056 81.4259 36.736C81.8899 36.4 82.4419 36.144 83.0819 35.968C83.7219 35.776 84.4259 35.68 85.1939 35.68C85.8659 35.68 86.5379 35.744 87.2099 35.872C87.8979 35.984 88.5139 36.144 89.0579 36.352V35.128C89.0579 33.944 88.7219 33.008 88.0499 32.32C87.3779 31.616 86.4659 31.264 85.3139 31.264C84.7059 31.264 84.0579 31.392 83.3699 31.648C82.6979 31.904 82.0099 32.272 81.3059 32.752L80.8499 31.936C82.4499 30.848 83.9699 30.304 85.4099 30.304C86.9139 30.304 88.0979 30.744 88.9619 31.624C89.8259 32.488 90.2579 33.688 90.2579 35.224V41.32C90.2579 41.72 90.4339 41.92 90.7859 41.92V43C90.7059 43.016 90.6179 43.024 90.5219 43.024C90.4419 43.04 90.3699 43.048 90.3059 43.048C89.9859 43.048 89.7299 42.944 89.5379 42.736C89.3459 42.512 89.2339 42.248 89.2019 41.944V40.912C88.6259 41.664 87.8899 42.24 86.9939 42.64C86.0979 43.04 85.1299 43.24 84.0899 43.24ZM84.3299 42.28C85.2579 42.28 86.1059 42.104 86.8739 41.752C87.6579 41.4 88.2579 40.936 88.6739 40.36C88.9299 40.024 89.0579 39.704 89.0579 39.4V37.192C88.4819 36.968 87.8819 36.8 87.2579 36.688C86.6339 36.576 85.9859 36.52 85.3139 36.52C84.6899 36.52 84.1219 36.592 83.6099 36.736C83.0979 36.864 82.6579 37.048 82.2899 37.288C81.9219 37.528 81.6339 37.824 81.4259 38.176C81.2339 38.512 81.1379 38.888 81.1379 39.304C81.1379 39.72 81.2179 40.112 81.3779 40.48C81.5379 40.848 81.7619 41.168 82.0499 41.44C82.3379 41.696 82.6739 41.904 83.0579 42.064C83.4579 42.208 83.8819 42.28 84.3299 42.28ZM107.493 43L102.621 36.328L99.6686 39.04V43H98.4686V25.48H99.6686V37.72L107.253 30.544H108.645L103.437 35.608L108.813 43H107.493ZM115.568 43V30.52H116.768V43H115.568ZM115.568 27.688V25.48H116.768V27.688H115.568Z" fill="white"/>
<path d="M123.01 29.4C123.01 28.9733 123.084 28.55 123.23 28.13C123.384 27.7033 123.604 27.3233 123.89 26.99C124.177 26.6567 124.527 26.3867 124.94 26.18C125.36 25.9667 125.837 25.86 126.37 25.86C127.004 25.86 127.544 26.0067 127.99 26.3C128.437 26.5867 128.77 26.9567 128.99 27.41L128.57 27.65C128.444 27.4033 128.294 27.1967 128.12 27.03C127.954 26.8633 127.77 26.73 127.57 26.63C127.377 26.5233 127.174 26.4467 126.96 26.4C126.747 26.3533 126.537 26.33 126.33 26.33C125.877 26.33 125.477 26.4233 125.13 26.61C124.784 26.79 124.49 27.0267 124.25 27.32C124.01 27.6133 123.827 27.9467 123.7 28.32C123.58 28.6867 123.52 29.0567 123.52 29.43C123.52 29.85 123.594 30.25 123.74 30.63C123.887 31.01 124.087 31.3467 124.34 31.64C124.594 31.9267 124.894 32.1567 125.24 32.33C125.587 32.5033 125.96 32.59 126.36 32.59C126.574 32.59 126.794 32.5633 127.02 32.51C127.247 32.4567 127.464 32.3733 127.67 32.26C127.877 32.1467 128.07 32.0033 128.25 31.83C128.43 31.65 128.58 31.44 128.7 31.2L129.14 31.41C129.02 31.6767 128.857 31.9133 128.65 32.12C128.444 32.3267 128.214 32.5 127.96 32.64C127.707 32.78 127.437 32.8867 127.15 32.96C126.87 33.0267 126.594 33.06 126.32 33.06C125.834 33.06 125.387 32.9533 124.98 32.74C124.58 32.5267 124.234 32.25 123.94 31.91C123.647 31.5633 123.417 31.1733 123.25 30.74C123.09 30.3 123.01 29.8533 123.01 29.4ZM132.715 28.25C132.248 28.2633 131.838 28.4033 131.485 28.67C131.138 28.93 130.895 29.29 130.755 29.75V33H130.255V27.8H130.735V29.08C130.915 28.7133 131.151 28.4167 131.445 28.19C131.745 27.9567 132.065 27.8233 132.405 27.79C132.471 27.7833 132.531 27.78 132.585 27.78C132.638 27.78 132.681 27.78 132.715 27.78V28.25ZM134.874 33.1C134.634 33.1 134.411 33.06 134.204 32.98C133.998 32.8933 133.814 32.78 133.654 32.64C133.501 32.4933 133.381 32.3233 133.294 32.13C133.208 31.93 133.164 31.7167 133.164 31.49C133.164 31.2633 133.218 31.0567 133.324 30.87C133.431 30.6833 133.578 30.5233 133.764 30.39C133.958 30.25 134.188 30.1433 134.454 30.07C134.721 29.99 135.014 29.95 135.334 29.95C135.614 29.95 135.894 29.9767 136.174 30.03C136.461 30.0767 136.718 30.1433 136.944 30.23V29.72C136.944 29.2267 136.804 28.8367 136.524 28.55C136.244 28.2567 135.864 28.11 135.384 28.11C135.131 28.11 134.861 28.1633 134.574 28.27C134.294 28.3767 134.008 28.53 133.714 28.73L133.524 28.39C134.191 27.9367 134.824 27.71 135.424 27.71C136.051 27.71 136.544 27.8933 136.904 28.26C137.264 28.62 137.444 29.12 137.444 29.76V32.3C137.444 32.4667 137.518 32.55 137.664 32.55V33C137.631 33.0067 137.594 33.01 137.554 33.01C137.521 33.0167 137.491 33.02 137.464 33.02C137.331 33.02 137.224 32.9767 137.144 32.89C137.064 32.7967 137.018 32.6867 137.004 32.56V32.13C136.764 32.4433 136.458 32.6833 136.084 32.85C135.711 33.0167 135.308 33.1 134.874 33.1ZM134.974 32.7C135.361 32.7 135.714 32.6267 136.034 32.48C136.361 32.3333 136.611 32.14 136.784 31.9C136.891 31.76 136.944 31.6267 136.944 31.5V30.58C136.704 30.4867 136.454 30.4167 136.194 30.37C135.934 30.3233 135.664 30.3 135.384 30.3C135.124 30.3 134.888 30.33 134.674 30.39C134.461 30.4433 134.278 30.52 134.124 30.62C133.971 30.72 133.851 30.8433 133.764 30.99C133.684 31.13 133.644 31.2867 133.644 31.46C133.644 31.6333 133.678 31.7967 133.744 31.95C133.811 32.1033 133.904 32.2367 134.024 32.35C134.144 32.4567 134.284 32.5433 134.444 32.61C134.611 32.67 134.788 32.7 134.974 32.7ZM139.189 34.76C139.222 34.7667 139.272 34.77 139.339 34.77C139.405 34.77 139.465 34.7667 139.519 34.76C139.579 34.7533 139.635 34.7367 139.689 34.71C139.729 34.69 139.765 34.66 139.799 34.62C139.832 34.5867 139.879 34.5133 139.939 34.4C139.999 34.2867 140.075 34.12 140.169 33.9C140.262 33.68 140.389 33.38 140.549 33L138.229 27.8H138.749L140.819 32.51L142.749 27.8H143.239L140.389 34.64C140.315 34.8267 140.195 34.97 140.029 35.07C139.869 35.1767 139.649 35.23 139.369 35.23C139.342 35.23 139.312 35.23 139.279 35.23C139.252 35.23 139.222 35.2267 139.189 35.22V34.76ZM144.469 28.21H143.739V27.8H144.469V27.63C144.469 27.4033 144.502 27.17 144.569 26.93C144.636 26.6833 144.739 26.4633 144.879 26.27C145.019 26.0767 145.199 25.9167 145.419 25.79C145.646 25.6633 145.916 25.6 146.229 25.6C146.409 25.6 146.576 25.6167 146.729 25.65C146.889 25.6833 147.029 25.7233 147.149 25.77C147.269 25.81 147.369 25.8567 147.449 25.91C147.529 25.9567 147.586 25.9933 147.619 26.02L147.369 26.37C147.276 26.2833 147.129 26.21 146.929 26.15C146.729 26.0833 146.502 26.05 146.249 26.05C146.022 26.05 145.826 26.1 145.659 26.2C145.499 26.2933 145.366 26.4167 145.259 26.57C145.159 26.7167 145.086 26.8833 145.039 27.07C144.992 27.2567 144.969 27.44 144.969 27.62V27.8H147.519V33H147.019V28.21H144.969V33H144.469V28.21ZM150.733 33.1C150.333 33.1 149.949 33.0333 149.583 32.9C149.216 32.7667 148.896 32.5667 148.623 32.3L148.873 31.96C149.153 32.2133 149.443 32.4 149.743 32.52C150.043 32.64 150.373 32.7 150.733 32.7C151.186 32.7 151.549 32.6067 151.823 32.42C152.103 32.2267 152.243 31.96 152.243 31.62C152.243 31.46 152.206 31.3267 152.133 31.22C152.066 31.1067 151.963 31.0133 151.823 30.94C151.683 30.86 151.509 30.79 151.303 30.73C151.096 30.67 150.856 30.6067 150.583 30.54C150.289 30.4733 150.033 30.4067 149.813 30.34C149.599 30.2733 149.423 30.1933 149.283 30.1C149.143 30.0067 149.036 29.8933 148.963 29.76C148.896 29.6267 148.863 29.4567 148.863 29.25C148.863 28.99 148.913 28.7633 149.013 28.57C149.113 28.3767 149.249 28.2167 149.423 28.09C149.603 27.9633 149.806 27.87 150.033 27.81C150.266 27.7433 150.513 27.71 150.773 27.71C151.179 27.71 151.539 27.78 151.853 27.92C152.166 28.0533 152.409 28.2267 152.583 28.44L152.303 28.71C152.129 28.51 151.903 28.36 151.623 28.26C151.349 28.16 151.056 28.11 150.743 28.11C150.549 28.11 150.366 28.13 150.193 28.17C150.026 28.21 149.879 28.2733 149.753 28.36C149.626 28.4467 149.526 28.56 149.453 28.7C149.379 28.8333 149.343 28.9933 149.343 29.18C149.343 29.3333 149.366 29.4567 149.413 29.55C149.466 29.6433 149.546 29.7233 149.653 29.79C149.766 29.8567 149.909 29.9167 150.083 29.97C150.256 30.0167 150.463 30.07 150.703 30.13C151.029 30.21 151.319 30.2867 151.573 30.36C151.826 30.4333 152.036 30.5233 152.203 30.63C152.376 30.7367 152.506 30.8633 152.593 31.01C152.686 31.1567 152.733 31.3433 152.733 31.57C152.733 32.0367 152.549 32.41 152.183 32.69C151.823 32.9633 151.339 33.1 150.733 33.1ZM158.147 33H157.647V30.1C157.647 28.8133 157.217 28.17 156.357 28.17C156.144 28.17 155.934 28.21 155.727 28.29C155.527 28.37 155.337 28.4833 155.157 28.63C154.984 28.7767 154.831 28.95 154.697 29.15C154.564 29.3433 154.464 29.5533 154.397 29.78V33H153.897V25.7H154.397V29.04C154.611 28.6333 154.904 28.31 155.277 28.07C155.657 27.83 156.064 27.71 156.497 27.71C156.784 27.71 157.031 27.7633 157.237 27.87C157.444 27.9767 157.614 28.13 157.747 28.33C157.887 28.53 157.987 28.7733 158.047 29.06C158.114 29.34 158.147 29.6567 158.147 30.01V33ZM167.257 33L166.347 32.05C166.074 32.37 165.754 32.6267 165.387 32.82C165.021 33.0067 164.614 33.1 164.167 33.1C163.874 33.1 163.591 33.0567 163.317 32.97C163.051 32.8833 162.814 32.76 162.607 32.6C162.401 32.4333 162.237 32.2367 162.117 32.01C161.997 31.7767 161.937 31.5133 161.937 31.22C161.937 30.98 161.977 30.76 162.057 30.56C162.144 30.3533 162.257 30.1667 162.397 30C162.544 29.8267 162.711 29.6633 162.897 29.51C163.091 29.3567 163.294 29.21 163.507 29.07C163.321 28.87 163.161 28.69 163.027 28.53C162.901 28.3633 162.797 28.2133 162.717 28.08C162.637 27.9467 162.577 27.82 162.537 27.7C162.504 27.5733 162.487 27.45 162.487 27.33C162.487 27.1233 162.531 26.93 162.617 26.75C162.711 26.5633 162.834 26.4 162.987 26.26C163.141 26.12 163.324 26.01 163.537 25.93C163.751 25.85 163.981 25.81 164.227 25.81C164.454 25.81 164.664 25.8467 164.857 25.92C165.051 25.9867 165.217 26.08 165.357 26.2C165.504 26.32 165.617 26.4633 165.697 26.63C165.777 26.7967 165.817 26.9767 165.817 27.17C165.817 27.37 165.774 27.56 165.687 27.74C165.601 27.9133 165.481 28.08 165.327 28.24C165.181 28.3933 165.007 28.5433 164.807 28.69C164.614 28.83 164.411 28.9733 164.197 29.12L166.337 31.34C166.484 31.08 166.597 30.7967 166.677 30.49C166.757 30.1767 166.797 29.8533 166.797 29.52H167.237C167.224 30.32 167.024 31.0333 166.637 31.66L167.927 33H167.257ZM164.227 32.69C164.607 32.69 164.951 32.6067 165.257 32.44C165.564 32.2667 165.831 32.0367 166.057 31.75L163.797 29.38C163.604 29.5133 163.424 29.6467 163.257 29.78C163.097 29.9133 162.954 30.0567 162.827 30.21C162.701 30.3567 162.601 30.5167 162.527 30.69C162.461 30.8567 162.427 31.04 162.427 31.24C162.427 31.48 162.481 31.69 162.587 31.87C162.694 32.05 162.831 32.2033 162.997 32.33C163.171 32.45 163.364 32.54 163.577 32.6C163.797 32.66 164.014 32.69 164.227 32.69ZM162.957 27.32C162.957 27.4067 162.967 27.4933 162.987 27.58C163.014 27.6667 163.061 27.7667 163.127 27.88C163.201 27.9933 163.297 28.1267 163.417 28.28C163.544 28.4267 163.704 28.6033 163.897 28.81C164.337 28.5233 164.691 28.26 164.957 28.02C165.224 27.7733 165.357 27.4967 165.357 27.19C165.357 26.91 165.251 26.68 165.037 26.5C164.824 26.3133 164.551 26.22 164.217 26.22C164.037 26.22 163.871 26.25 163.717 26.31C163.564 26.37 163.431 26.45 163.317 26.55C163.204 26.65 163.114 26.7667 163.047 26.9C162.987 27.0333 162.957 27.1733 162.957 27.32ZM122.328 43V35.9H124.688C125.248 35.9 125.738 35.9933 126.158 36.18C126.585 36.3667 126.938 36.62 127.218 36.94C127.498 37.26 127.708 37.6367 127.848 38.07C127.988 38.4967 128.058 38.9533 128.058 39.44C128.058 39.98 127.978 40.47 127.818 40.91C127.665 41.3433 127.442 41.7167 127.148 42.03C126.855 42.3367 126.498 42.5767 126.078 42.75C125.665 42.9167 125.202 43 124.688 43H122.328ZM127.548 39.44C127.548 38.9933 127.485 38.5833 127.358 38.21C127.232 37.83 127.045 37.5033 126.798 37.23C126.558 36.9567 126.262 36.7433 125.908 36.59C125.555 36.4367 125.148 36.36 124.688 36.36H122.838V42.54H124.688C125.155 42.54 125.565 42.4633 125.918 42.31C126.278 42.15 126.578 41.93 126.818 41.65C127.058 41.37 127.238 41.0433 127.358 40.67C127.485 40.29 127.548 39.88 127.548 39.44ZM131.517 43.1C131.151 43.1 130.811 43.03 130.497 42.89C130.184 42.7433 129.911 42.5467 129.677 42.3C129.451 42.0467 129.271 41.7567 129.137 41.43C129.011 41.1033 128.947 40.7533 128.947 40.38C128.947 40.0133 129.011 39.67 129.137 39.35C129.271 39.0233 129.451 38.74 129.677 38.5C129.904 38.2533 130.171 38.06 130.477 37.92C130.791 37.78 131.127 37.71 131.487 37.71C131.854 37.71 132.194 37.7833 132.507 37.93C132.821 38.07 133.091 38.2633 133.317 38.51C133.544 38.75 133.721 39.0333 133.847 39.36C133.974 39.68 134.037 40.02 134.037 40.38C134.037 40.4133 134.037 40.4567 134.037 40.51C134.037 40.5567 134.034 40.5867 134.027 40.6H129.467C129.487 40.9 129.557 41.18 129.677 41.44C129.797 41.6933 129.947 41.9133 130.127 42.1C130.314 42.2867 130.527 42.4333 130.767 42.54C131.007 42.6467 131.264 42.7 131.537 42.7C131.717 42.7 131.894 42.6767 132.067 42.63C132.241 42.5767 132.401 42.5067 132.547 42.42C132.701 42.3333 132.834 42.23 132.947 42.11C133.067 41.9833 133.161 41.8467 133.227 41.7L133.667 41.82C133.594 42.0067 133.484 42.18 133.337 42.34C133.197 42.4933 133.031 42.6267 132.837 42.74C132.651 42.8533 132.444 42.94 132.217 43C131.991 43.0667 131.757 43.1 131.517 43.1ZM133.557 40.2C133.537 39.8933 133.467 39.6133 133.347 39.36C133.234 39.1067 133.084 38.89 132.897 38.71C132.717 38.5233 132.507 38.38 132.267 38.28C132.027 38.1733 131.771 38.12 131.497 38.12C131.224 38.12 130.967 38.1733 130.727 38.28C130.487 38.38 130.274 38.5233 130.087 38.71C129.907 38.89 129.761 39.11 129.647 39.37C129.541 39.6233 129.477 39.9 129.457 40.2H133.557ZM135.177 35.7H135.687V41.97C135.687 42.1633 135.741 42.3167 135.847 42.43C135.961 42.5433 136.114 42.6 136.307 42.6C136.381 42.6 136.467 42.5933 136.567 42.58C136.674 42.56 136.771 42.5333 136.857 42.5L136.957 42.9C136.844 42.9467 136.704 42.9833 136.537 43.01C136.371 43.0433 136.227 43.06 136.107 43.06C135.827 43.06 135.601 42.9767 135.427 42.81C135.261 42.6367 135.177 42.4067 135.177 42.12V35.7ZM137.725 43V37.8H138.225V43H137.725ZM137.725 36.62V35.7H138.225V36.62H137.725ZM139.436 40.38C139.436 40.0133 139.499 39.6667 139.626 39.34C139.752 39.0133 139.929 38.73 140.156 38.49C140.382 38.25 140.652 38.06 140.966 37.92C141.279 37.78 141.622 37.71 141.996 37.71C142.469 37.71 142.886 37.8167 143.246 38.03C143.606 38.2433 143.876 38.54 144.056 38.92L143.566 39.08C143.412 38.7933 143.192 38.57 142.906 38.41C142.626 38.2433 142.316 38.16 141.976 38.16C141.689 38.16 141.422 38.2167 141.176 38.33C140.929 38.4433 140.712 38.6 140.526 38.8C140.346 39 140.202 39.2367 140.096 39.51C139.989 39.7767 139.936 40.0667 139.936 40.38C139.936 40.6933 139.989 40.99 140.096 41.27C140.209 41.5433 140.356 41.7833 140.536 41.99C140.722 42.19 140.939 42.35 141.186 42.47C141.439 42.59 141.706 42.65 141.986 42.65C142.166 42.65 142.342 42.6233 142.516 42.57C142.696 42.5167 142.859 42.4467 143.006 42.36C143.159 42.2733 143.289 42.1733 143.396 42.06C143.509 41.94 143.586 41.8167 143.626 41.69L144.116 41.83C144.049 42.01 143.946 42.18 143.806 42.34C143.672 42.4933 143.512 42.6267 143.326 42.74C143.139 42.8533 142.932 42.94 142.706 43C142.479 43.0667 142.246 43.1 142.006 43.1C141.639 43.1 141.299 43.03 140.986 42.89C140.672 42.7433 140.399 42.5467 140.166 42.3C139.939 42.0467 139.759 41.7567 139.626 41.43C139.499 41.1033 139.436 40.7533 139.436 40.38ZM146.525 43.1C146.285 43.1 146.062 43.06 145.855 42.98C145.648 42.8933 145.465 42.78 145.305 42.64C145.152 42.4933 145.032 42.3233 144.945 42.13C144.858 41.93 144.815 41.7167 144.815 41.49C144.815 41.2633 144.868 41.0567 144.975 40.87C145.082 40.6833 145.228 40.5233 145.415 40.39C145.608 40.25 145.838 40.1433 146.105 40.07C146.372 39.99 146.665 39.95 146.985 39.95C147.265 39.95 147.545 39.9767 147.825 40.03C148.112 40.0767 148.368 40.1433 148.595 40.23V39.72C148.595 39.2267 148.455 38.8367 148.175 38.55C147.895 38.2567 147.515 38.11 147.035 38.11C146.782 38.11 146.512 38.1633 146.225 38.27C145.945 38.3767 145.658 38.53 145.365 38.73L145.175 38.39C145.842 37.9367 146.475 37.71 147.075 37.71C147.702 37.71 148.195 37.8933 148.555 38.26C148.915 38.62 149.095 39.12 149.095 39.76V42.3C149.095 42.4667 149.168 42.55 149.315 42.55V43C149.282 43.0067 149.245 43.01 149.205 43.01C149.172 43.0167 149.142 43.02 149.115 43.02C148.982 43.02 148.875 42.9767 148.795 42.89C148.715 42.7967 148.668 42.6867 148.655 42.56V42.13C148.415 42.4433 148.108 42.6833 147.735 42.85C147.362 43.0167 146.958 43.1 146.525 43.1ZM146.625 42.7C147.012 42.7 147.365 42.6267 147.685 42.48C148.012 42.3333 148.262 42.14 148.435 41.9C148.542 41.76 148.595 41.6267 148.595 41.5V40.58C148.355 40.4867 148.105 40.4167 147.845 40.37C147.585 40.3233 147.315 40.3 147.035 40.3C146.775 40.3 146.538 40.33 146.325 40.39C146.112 40.4433 145.928 40.52 145.775 40.62C145.622 40.72 145.502 40.8433 145.415 40.99C145.335 41.13 145.295 41.2867 145.295 41.46C145.295 41.6333 145.328 41.7967 145.395 41.95C145.462 42.1033 145.555 42.2367 145.675 42.35C145.795 42.4567 145.935 42.5433 146.095 42.61C146.262 42.67 146.438 42.7 146.625 42.7ZM150.256 40.38C150.256 40.0133 150.319 39.6667 150.446 39.34C150.573 39.0133 150.749 38.73 150.976 38.49C151.203 38.25 151.473 38.06 151.786 37.92C152.099 37.78 152.443 37.71 152.816 37.71C153.289 37.71 153.706 37.8167 154.066 38.03C154.426 38.2433 154.696 38.54 154.876 38.92L154.386 39.08C154.233 38.7933 154.013 38.57 153.726 38.41C153.446 38.2433 153.136 38.16 152.796 38.16C152.509 38.16 152.243 38.2167 151.996 38.33C151.749 38.4433 151.533 38.6 151.346 38.8C151.166 39 151.023 39.2367 150.916 39.51C150.809 39.7767 150.756 40.0667 150.756 40.38C150.756 40.6933 150.809 40.99 150.916 41.27C151.029 41.5433 151.176 41.7833 151.356 41.99C151.543 42.19 151.759 42.35 152.006 42.47C152.259 42.59 152.526 42.65 152.806 42.65C152.986 42.65 153.163 42.6233 153.336 42.57C153.516 42.5167 153.679 42.4467 153.826 42.36C153.979 42.2733 154.109 42.1733 154.216 42.06C154.329 41.94 154.406 41.8167 154.446 41.69L154.936 41.83C154.869 42.01 154.766 42.18 154.626 42.34C154.493 42.4933 154.333 42.6267 154.146 42.74C153.959 42.8533 153.753 42.94 153.526 43C153.299 43.0667 153.066 43.1 152.826 43.1C152.459 43.1 152.119 43.03 151.806 42.89C151.493 42.7433 151.219 42.5467 150.986 42.3C150.759 42.0467 150.579 41.7567 150.446 41.43C150.319 41.1033 150.256 40.7533 150.256 40.38ZM156.065 43V37.8H156.565V43H156.065ZM156.065 36.62V35.7H156.565V36.62H156.065ZM160.345 43.1C159.979 43.1 159.639 43.03 159.325 42.89C159.012 42.7433 158.739 42.5467 158.505 42.3C158.279 42.0467 158.099 41.7567 157.965 41.43C157.839 41.1033 157.775 40.7533 157.775 40.38C157.775 40.0133 157.839 39.67 157.965 39.35C158.099 39.0233 158.279 38.74 158.505 38.5C158.732 38.2533 158.999 38.06 159.305 37.92C159.619 37.78 159.955 37.71 160.315 37.71C160.682 37.71 161.022 37.7833 161.335 37.93C161.649 38.07 161.919 38.2633 162.145 38.51C162.372 38.75 162.549 39.0333 162.675 39.36C162.802 39.68 162.865 40.02 162.865 40.38C162.865 40.4133 162.865 40.4567 162.865 40.51C162.865 40.5567 162.862 40.5867 162.855 40.6H158.295C158.315 40.9 158.385 41.18 158.505 41.44C158.625 41.6933 158.775 41.9133 158.955 42.1C159.142 42.2867 159.355 42.4333 159.595 42.54C159.835 42.6467 160.092 42.7 160.365 42.7C160.545 42.7 160.722 42.6767 160.895 42.63C161.069 42.5767 161.229 42.5067 161.375 42.42C161.529 42.3333 161.662 42.23 161.775 42.11C161.895 41.9833 161.989 41.8467 162.055 41.7L162.495 41.82C162.422 42.0067 162.312 42.18 162.165 42.34C162.025 42.4933 161.859 42.6267 161.665 42.74C161.479 42.8533 161.272 42.94 161.045 43C160.819 43.0667 160.585 43.1 160.345 43.1ZM162.385 40.2C162.365 39.8933 162.295 39.6133 162.175 39.36C162.062 39.1067 161.912 38.89 161.725 38.71C161.545 38.5233 161.335 38.38 161.095 38.28C160.855 38.1733 160.599 38.12 160.325 38.12C160.052 38.12 159.795 38.1733 159.555 38.28C159.315 38.38 159.102 38.5233 158.915 38.71C158.735 38.89 158.589 39.11 158.475 39.37C158.369 39.6233 158.305 39.9 158.285 40.2H162.385ZM165.616 43.1C165.216 43.1 164.832 43.0333 164.466 42.9C164.099 42.7667 163.779 42.5667 163.506 42.3L163.756 41.96C164.036 42.2133 164.326 42.4 164.626 42.52C164.926 42.64 165.256 42.7 165.616 42.7C166.069 42.7 166.432 42.6067 166.706 42.42C166.986 42.2267 167.126 41.96 167.126 41.62C167.126 41.46 167.089 41.3267 167.016 41.22C166.949 41.1067 166.846 41.0133 166.706 40.94C166.566 40.86 166.392 40.79 166.186 40.73C165.979 40.67 165.739 40.6067 165.466 40.54C165.172 40.4733 164.916 40.4067 164.696 40.34C164.482 40.2733 164.306 40.1933 164.166 40.1C164.026 40.0067 163.919 39.8933 163.846 39.76C163.779 39.6267 163.746 39.4567 163.746 39.25C163.746 38.99 163.796 38.7633 163.896 38.57C163.996 38.3767 164.132 38.2167 164.306 38.09C164.486 37.9633 164.689 37.87 164.916 37.81C165.149 37.7433 165.396 37.71 165.656 37.71C166.062 37.71 166.422 37.78 166.736 37.92C167.049 38.0533 167.292 38.2267 167.466 38.44L167.186 38.71C167.012 38.51 166.786 38.36 166.506 38.26C166.232 38.16 165.939 38.11 165.626 38.11C165.432 38.11 165.249 38.13 165.076 38.17C164.909 38.21 164.762 38.2733 164.636 38.36C164.509 38.4467 164.409 38.56 164.336 38.7C164.262 38.8333 164.226 38.9933 164.226 39.18C164.226 39.3333 164.249 39.4567 164.296 39.55C164.349 39.6433 164.429 39.7233 164.536 39.79C164.649 39.8567 164.792 39.9167 164.966 39.97C165.139 40.0167 165.346 40.07 165.586 40.13C165.912 40.21 166.202 40.2867 166.456 40.36C166.709 40.4333 166.919 40.5233 167.086 40.63C167.259 40.7367 167.389 40.8633 167.476 41.01C167.569 41.1567 167.616 41.3433 167.616 41.57C167.616 42.0367 167.432 42.41 167.066 42.69C166.706 42.9633 166.222 43.1 165.616 43.1Z" fill="#F13A3A"/>
<defs>
<filter id="filter0_d" x="29.5913" y="15.7727" width="27.9087" height="33.0005" filterUnits="userSpaceOnUse" color-interpolation-filters="sRGB">
<feFlood flood-opacity="0" result="BackgroundImageFix"/>
<feColorMatrix in="SourceAlpha" type="matrix" values="0 0 0 0 0 0 0 0 0 0 0 0 0 0 0 0 0 0 127 0"/>
<feOffset dy="4"/>
<feGaussianBlur stdDeviation="2"/>
<feColorMatrix type="matrix" values="0 0 0 0 0 0 0 0 0 0 0 0 0 0 0 0 0 0 0.15 0"/>
<feBlend mode="normal" in2="BackgroundImageFix" result="effect1_dropShadow"/>
<feBlend mode="normal" in="SourceGraphic" in2="effect1_dropShadow" result="shape"/>
</filter>
<filter id="filter1_d" x="0.5" y="0.499756" width="48.2728" height="57.0003" filterUnits="userSpaceOnUse" color-interpolation-filters="sRGB">
<feFlood flood-opacity="0" result="BackgroundImageFix"/>
<feColorMatrix in="SourceAlpha" type="matrix" values="0 0 0 0 0 0 0 0 0 0 0 0 0 0 0 0 0 0 127 0"/>
<feOffset dy="4"/>
<feGaussianBlur stdDeviation="2"/>
<feColorMatrix type="matrix" values="0 0 0 0 0 0 0 0 0 0 0 0 0 0 0 0 0 0 0.15 0"/>
<feBlend mode="normal" in2="BackgroundImageFix" result="effect1_dropShadow"/>
<feBlend mode="normal" in="SourceGraphic" in2="effect1_dropShadow" result="shape"/>
</filter>
<linearGradient id="paint0_linear" x1="43.5454" y1="16.2727" x2="43.5454" y2="40.2727" gradientUnits="userSpaceOnUse">
<stop stop-color="#FC2C2C"/>
<stop offset="1" stop-color="#681616"/>
</linearGradient>
<linearGradient id="paint1_linear" x1="43.5454" y1="16.2727" x2="43.5454" y2="40.2727" gradientUnits="userSpaceOnUse">
<stop stop-color="#F42B2B"/>
<stop offset="1" stop-color="#651313"/>
</linearGradient>
<linearGradient id="paint2_linear" x1="24.6364" y1="1" x2="24.6364" y2="49" gradientUnits="userSpaceOnUse">
<stop stop-color="#FC2C2C"/>
<stop offset="1" stop-color="#681616"/>
</linearGradient>
<linearGradient id="paint3_linear" x1="24.6364" y1="1" x2="24.6364" y2="49" gradientUnits="userSpaceOnUse">
<stop stop-color="#F42B2B"/>
<stop offset="1" stop-color="#651313"/>
</linearGradient>
</defs>
</svg>
