<svg width="579" height="584" viewBox="0 0 579 584" fill="none" xmlns="http://www.w3.org/2000/svg">
<g clip-path="url(#clip0)">
<path d="M471.793 292.08C467.707 239.886 443.541 192.408 403.746 158.39C363.95 124.373 313.29 107.889 261.096 111.975C208.903 116.06 161.425 140.227 127.408 180.022C93.3903 219.818 76.9061 270.478 80.9918 322.671C85.0775 374.865 109.244 422.343 149.039 456.36C188.835 490.378 239.495 506.862 291.689 502.776C343.882 498.69 391.36 474.524 425.377 434.729C459.395 394.933 475.879 344.273 471.793 292.08ZM157.587 446.361C80.9496 380.852 71.8964 265.207 137.407 188.569C202.917 111.932 318.562 102.88 395.198 168.389C471.835 233.899 480.889 349.544 415.378 426.181C349.868 502.819 234.223 511.871 157.587 446.361Z" fill="#D52B2B"/>
<path d="M338.453 389.134L327.013 370.126C326.212 368.794 324.963 367.788 323.489 367.288L297.542 358.495C298.052 358.085 298.56 357.662 299.067 357.222C301.479 355.136 303.741 352.821 305.861 350.292C306.527 350.681 307.266 350.969 308.072 351.105L346.614 357.595L366.561 374.645C369.322 377.005 373.473 376.681 375.834 373.919C378.194 371.158 377.869 367.006 375.108 364.646L353.777 346.412C352.871 345.638 351.771 345.124 350.596 344.925L313.72 338.715C315.111 336.185 316.402 333.509 317.601 330.696L341.839 333.601C342.58 333.689 343.33 333.652 344.057 333.489L378.289 325.834C381.834 325.041 384.065 321.524 383.273 317.98C382.48 314.436 378.963 312.204 375.419 312.996L342.285 320.407L322.088 317.986C323.117 314.416 324.024 310.669 324.813 306.753C335.606 309.726 347.225 306.978 355.932 299.42C360.514 301.318 365.514 301.609 370.701 300.217C405.075 290.992 418.69 253.428 421.316 232.687C421.681 229.804 420.112 227.021 417.452 225.847C414.794 224.671 411.68 225.378 409.791 227.588L400.674 238.254C391.272 249.252 387.301 245.858 385.606 244.409L385.272 244.124L403.792 222.459C406.153 219.697 405.827 215.546 403.066 213.186C400.305 210.826 396.154 211.15 393.793 213.912L375.274 235.576L374.941 235.291C372.213 232.96 368.119 233.245 365.741 235.933C361.688 240.514 341.454 264.083 341.199 278.243C341.118 282.734 342.605 287.176 345.373 291.006C339.345 295.189 332.329 295.521 326.928 293.635C327.801 286.61 328.352 279.131 328.573 271.193C328.749 264.87 326.107 258.898 321.324 254.81C316.542 250.722 310.232 249.042 304.014 250.2C296.207 251.652 288.906 253.361 282.104 255.316C279.405 250.275 278.643 243.296 281.835 236.694C286.049 238.832 290.669 239.609 295.092 238.831C309.041 236.375 329.175 212.72 333.069 208.004C335.354 205.237 334.999 201.149 332.271 198.817L331.938 198.532L350.457 176.868C352.817 174.106 352.492 169.955 349.731 167.595C346.97 165.234 342.818 165.559 340.458 168.321L321.939 189.985L321.605 189.7C319.91 188.251 315.939 184.857 325.341 173.858L334.458 163.192C336.347 160.983 336.561 157.797 334.986 155.353C333.41 152.91 330.418 151.791 327.628 152.601C307.548 158.422 272.56 177.716 268.797 213.107C268.228 218.448 269.293 223.342 271.882 227.572C265.772 237.347 264.865 249.249 269.477 259.445C265.731 260.834 262.169 262.314 258.801 263.886L253.267 244.311L255.431 210.43C255.662 206.804 252.911 203.679 249.286 203.447C245.662 203.216 242.535 205.967 242.303 209.592L240.068 244.598C240.02 245.343 240.099 246.089 240.303 246.807L246.944 270.298C244.351 271.919 241.909 273.611 239.626 275.379L227.753 239.919C227.374 238.789 226.695 237.783 225.79 237.008L204.458 218.774C201.697 216.414 197.546 216.738 195.185 219.5C192.825 222.262 193.15 226.413 195.911 228.773L215.858 245.824L228.267 282.887C228.527 283.662 228.926 284.347 229.413 284.945C227.244 287.432 225.31 290.027 223.625 292.733C223.27 293.304 222.931 293.872 222.605 294.438L209.882 270.175C209.158 268.798 207.97 267.72 206.53 267.136L185.973 258.794C182.607 257.427 178.771 259.049 177.405 262.414C176.039 265.78 177.662 269.615 181.026 270.982L199.351 278.419L215.779 309.743C216.002 310.168 216.269 310.555 216.564 310.908C216.275 312.535 216.083 314.085 215.968 315.541L200.196 307.682C198.635 306.904 196.828 306.778 195.174 307.333L156.383 320.321C152.939 321.475 151.082 325.201 152.234 328.646C152.626 329.818 153.318 330.805 154.193 331.554C155.891 333.005 158.287 333.555 160.56 332.794L196.768 320.67L219.494 331.997L220.276 332.665C218.088 333.838 216.076 335.424 214.368 337.421C209.535 343.075 208.304 350.612 210.451 357.216C207.072 358.368 203.95 360.407 201.467 363.311C199.124 366.051 197.631 369.235 196.955 372.539C190.731 370.021 184.678 369.504 178.356 370.847C172.833 372.021 157.32 376.354 156.663 376.539C156.394 376.614 156.131 376.706 155.874 376.814C145.407 381.238 140.49 393.353 144.914 403.82C148.349 411.951 156.425 416.731 164.765 416.389C165.348 421.423 167.77 426.224 171.833 429.697C175.897 433.171 181.016 434.815 186.079 434.607C187.038 442.899 193.018 450.131 201.584 452.261C212.611 455.002 223.813 448.26 226.555 437.232C226.622 436.962 226.672 436.687 226.704 436.411C226.784 435.732 228.651 419.734 228.951 414.096C229.294 407.642 227.84 401.743 224.385 395.987C227.544 394.805 230.457 392.834 232.799 390.094C235.282 387.19 236.81 383.788 237.422 380.271C244.277 381.363 251.531 378.973 256.364 373.32C258.072 371.322 259.324 369.087 260.143 366.743L260.925 367.412L275.649 388.099L269.307 425.752C268.909 428.116 269.825 430.397 271.523 431.849C272.398 432.597 273.482 433.126 274.7 433.332C278.283 433.934 281.675 431.52 282.278 427.938L289.072 387.598C289.362 385.878 288.957 384.112 287.945 382.692L277.728 368.335C279.148 367.995 280.649 367.564 282.212 367.025C282.607 367.262 283.031 367.465 283.485 367.619L316.984 378.973L327.182 395.917C329.055 399.027 333.096 400.034 336.208 398.162C339.321 396.288 340.326 392.246 338.453 389.134ZM354.351 278.481C354.455 272.708 363.499 259.378 371.424 249.59L377.059 254.407C382.29 258.879 388.37 260.289 394.641 258.483C396.826 257.854 398.988 256.852 401.144 255.463C395.337 268.47 385.075 282.739 367.291 287.511C363.74 288.464 360.771 287.784 357.947 285.37C355.653 283.41 354.308 280.835 354.351 278.481ZM285.445 223.396C282.622 220.983 281.487 218.156 281.877 214.499C283.826 196.165 296.354 183.8 308.313 176.041C302.736 188.641 309.316 196.5 313.058 199.699L318.696 204.518C310.266 213.869 298.509 224.874 292.812 225.877C290.494 226.285 287.739 225.357 285.445 223.396ZM306.421 263.132C308.714 262.705 311.031 263.317 312.778 264.81C314.524 266.302 315.489 268.497 315.424 270.828C315.01 285.71 313.347 298.901 310.5 310.211C302.623 305.51 295.639 305.117 290.256 304.821C285.399 304.554 282.963 304.338 280.666 302.375C278.369 300.411 277.777 298.038 276.757 293.282C275.627 288.01 274.152 281.173 268.283 274.123C279.013 269.551 291.785 265.856 306.421 263.132ZM215.813 413.395C215.563 418.11 214.008 431.678 213.693 434.402C212.56 438.187 208.628 440.457 204.755 439.494C200.767 438.501 198.327 434.452 199.319 430.462L200.267 426.65C200.945 423.923 199.815 421.061 197.455 419.54C195.095 418.015 192.026 418.157 189.817 419.895C187.039 422.079 183.07 421.996 180.379 419.696C177.688 417.396 176.988 413.488 178.714 410.404C180.087 407.951 179.75 404.898 177.875 402.804C177.678 402.583 177.468 402.379 177.246 402.19C175.373 400.588 172.73 400.155 170.414 401.133L166.797 402.662C163.011 404.262 158.629 402.484 157.028 398.699C155.474 395.022 157.106 390.785 160.668 389.076C163.309 388.341 176.47 384.694 181.089 383.714C186.3 382.606 192.651 382.888 203.739 392.366C214.828 401.844 216.096 408.075 215.813 413.395ZM235.855 365.595L225.19 356.478C222.065 353.807 221.696 349.093 224.367 345.968C227.038 342.844 231.752 342.475 234.877 345.146L245.542 354.263C248.666 356.934 249.036 361.648 246.365 364.772C243.694 367.897 238.98 368.266 235.855 365.595ZM222.798 381.545C220.127 384.669 215.413 385.038 212.289 382.368C209.164 379.697 208.795 374.983 211.466 371.858C214.137 368.734 218.851 368.365 221.975 371.035C225.1 373.706 225.469 378.421 222.798 381.545ZM290.76 347.013C281.44 355.226 272.134 356.36 268.342 356.447L229.176 322.968C228.666 319.166 228.353 309.814 235.003 299.352C239.585 292.143 246.669 285.743 256.035 280.249C261.66 285.657 262.755 290.712 263.896 296.04C265.041 301.38 266.339 307.433 272.12 312.375C277.902 317.317 284.082 317.656 289.535 317.957C294.977 318.255 300.14 318.55 306.358 323.265C302.387 333.372 297.168 341.366 290.76 347.013Z" fill="#D52B2B"/>
<path d="M335.14 231.492L325.249 232.266C321.627 232.55 318.921 235.715 319.205 239.336C319.346 241.147 320.209 242.729 321.488 243.822C322.768 244.916 324.465 245.522 326.275 245.38L336.166 244.606C339.788 244.321 342.493 241.156 342.21 237.535C341.926 233.915 338.76 231.209 335.14 231.492Z" fill="#D52B2B"/>
<path d="M348.104 227.123C348.246 228.933 349.109 230.515 350.388 231.609C351.667 232.702 353.364 233.308 355.174 233.166C358.796 232.882 361.502 229.717 361.218 226.096L360.444 216.205C360.16 212.584 356.994 209.878 353.374 210.161C349.752 210.445 347.047 213.61 347.33 217.232L348.104 227.123Z" fill="#D52B2B"/>
<path d="M357.182 191.269L357.235 191.315C359.996 193.675 364.121 193.328 366.482 190.566C368.842 187.804 368.49 183.63 365.729 181.27C362.968 178.91 358.817 179.234 356.456 181.996C354.095 184.758 354.421 188.909 357.182 191.269Z" fill="#D52B2B"/>
<path d="M394.638 313.048C394.779 314.858 395.642 316.44 396.921 317.533C398.201 318.627 399.897 319.233 401.708 319.091C405.33 318.807 408.035 315.642 407.752 312.02L406.977 302.129C406.693 298.508 403.528 295.802 399.907 296.086C396.285 296.37 393.58 299.535 393.863 303.156L394.638 313.048Z" fill="#D52B2B"/>
<path d="M378.171 339.577L378.117 339.531C375.356 337.171 371.232 337.518 368.871 340.28C366.51 343.041 366.862 347.215 369.623 349.576C372.385 351.936 376.536 351.611 378.897 348.85C381.257 346.088 380.932 341.937 378.171 339.577Z" fill="#D52B2B"/>
<path d="M407.791 337.208L402.458 332.65C399.697 330.289 395.546 330.614 393.185 333.375C390.825 336.137 391.15 340.288 393.911 342.649L399.244 347.207C402.005 349.567 406.156 349.243 408.517 346.481C410.878 343.719 410.552 339.568 407.791 337.208Z" fill="#D52B2B"/>
<path d="M363.716 385.13C363.432 381.51 360.266 378.804 356.646 379.087C353.024 379.371 350.318 382.536 350.602 386.158L351.376 396.049C351.518 397.859 352.38 399.441 353.66 400.534C354.939 401.628 356.636 402.234 358.446 402.092C362.068 401.808 364.773 398.643 364.49 395.022L363.716 385.13Z" fill="#D52B2B"/>
<path d="M318.858 408.857L313.525 404.299C310.764 401.939 306.613 402.263 304.252 405.025C301.891 407.786 302.217 411.938 304.978 414.298L310.311 418.856C313.072 421.216 317.223 420.892 319.584 418.13C321.944 415.369 321.619 411.217 318.858 408.857Z" fill="#D52B2B"/>
<path d="M247.841 387.604C244.219 387.888 241.514 391.053 241.797 394.675L242.572 404.566C242.713 406.376 243.576 407.958 244.855 409.051C246.135 410.145 247.832 410.751 249.642 410.609C253.264 410.325 255.969 407.16 255.686 403.539L254.911 393.647C254.627 390.028 251.461 387.321 247.841 387.604Z" fill="#D52B2B"/>
<path d="M181.089 361.241C184.711 360.957 187.417 357.792 187.133 354.17C186.849 350.55 183.684 347.843 180.063 348.127L170.172 348.901C166.55 349.185 163.845 352.35 164.128 355.972C164.27 357.782 165.133 359.364 166.412 360.457C167.691 361.551 169.388 362.157 171.198 362.015L181.089 361.241Z" fill="#D52B2B"/>
<path d="M180.931 299.609C183.292 296.848 182.966 292.696 180.205 290.336L169.54 281.219C166.778 278.859 162.627 279.183 160.266 281.945C157.906 284.707 158.231 288.858 160.992 291.218L171.658 300.335C174.419 302.695 178.57 302.371 180.931 299.609Z" fill="#D52B2B"/>
<path d="M145.972 297.992C143.211 295.632 139.06 295.956 136.699 298.718L136.653 298.771C134.293 301.533 134.641 305.657 137.402 308.018C140.163 310.378 144.337 310.027 146.698 307.265C149.059 304.503 148.733 300.352 145.972 297.992Z" fill="#D52B2B"/>
<path d="M180.892 235.547L175.559 230.988C172.798 228.628 168.647 228.953 166.286 231.714C163.925 234.476 164.251 238.627 167.012 240.987L172.345 245.546C175.106 247.906 179.257 247.582 181.618 244.82C183.978 242.058 183.653 237.907 180.892 235.547Z" fill="#D52B2B"/>
<path d="M214.199 207.488C216.96 209.848 221.111 209.523 223.472 206.762C225.833 204 225.507 199.849 222.746 197.489L222.693 197.443C219.931 195.083 215.807 195.43 213.446 198.192C211.085 200.953 211.438 205.127 214.199 207.488Z" fill="#D52B2B"/>
<path d="M245.319 185.41C245.461 187.22 246.324 188.802 247.603 189.895C248.882 190.989 250.579 191.595 252.389 191.453C256.011 191.169 258.717 188.004 258.433 184.383L257.659 174.491C257.375 170.87 254.209 168.164 250.589 168.448C246.967 168.732 244.262 171.897 244.545 175.518L245.319 185.41Z" fill="#D52B2B"/>
<path d="M251.166 434.06C248.405 431.7 244.254 432.024 241.893 434.786C239.533 437.548 239.858 441.699 242.619 444.059L242.673 444.105C245.434 446.465 249.558 446.118 251.919 443.356C254.28 440.594 253.928 436.42 251.166 434.06Z" fill="#D52B2B"/>
</g>
<defs>
<clipPath id="clip0">
<rect width="391.996" height="432.325" fill="white" transform="translate(280.965 0.382324) rotate(40.524)"/>
</clipPath>
</defs>
</svg>
