<svg width="392" height="392" viewBox="0 0 392 392" fill="none" xmlns="http://www.w3.org/2000/svg">
<g clip-path="url(#clip0)">
<path d="M335.05 57.5033C298.031 20.4838 248.811 0.0964355 196.458 0.0964355C144.105 0.0964355 94.8855 20.4838 57.866 57.5033C20.8473 94.522 0.459961 143.742 0.459961 196.095C0.459961 248.448 20.8473 297.667 57.866 334.686C94.8855 371.706 144.105 392.093 196.458 392.093C248.811 392.093 298.031 371.706 335.05 334.686C372.069 297.667 392.456 248.448 392.456 196.095C392.456 143.742 372.069 94.522 335.05 57.5033ZM196.458 378.939C95.6379 378.939 13.6142 296.916 13.6142 196.095C13.6142 95.2735 95.6379 13.2507 196.458 13.2507C297.279 13.2507 379.302 95.2735 379.302 196.095C379.302 296.916 297.279 378.939 196.458 378.939Z" fill="#D52B2B"/>
<path d="M253.402 285.955L243.48 266.112C242.785 264.721 241.619 263.622 240.189 263.008L215.007 252.216C215.547 251.848 216.087 251.465 216.627 251.067C219.193 249.175 221.629 247.044 223.94 244.688C224.574 245.127 225.288 245.472 226.081 245.671L263.999 255.149L282.554 273.704C285.123 276.272 289.287 276.273 291.856 273.704C294.425 271.135 294.424 266.971 291.856 264.402L272.013 244.559C271.17 243.717 270.114 243.118 268.957 242.829L232.679 233.759C234.263 231.346 235.759 228.779 237.174 226.067L261.111 230.855C261.843 231.002 262.593 231.023 263.331 230.917L298.057 225.956C301.652 225.443 304.151 222.111 303.638 218.515C303.123 214.921 299.792 212.421 296.196 212.934L262.586 217.736L242.639 213.747C243.943 210.268 245.14 206.603 246.233 202.761C256.76 206.567 268.559 204.734 277.829 197.878C282.249 200.129 287.211 200.808 292.491 199.826C327.48 193.311 343.985 156.925 348.221 136.452C348.81 133.606 347.464 130.71 344.903 129.331C342.345 127.951 339.185 128.413 337.129 130.469L327.207 140.391C316.976 150.622 313.282 146.928 311.705 145.351L311.395 145.041L331.549 124.887C334.118 122.318 334.117 118.154 331.549 115.586C328.98 113.018 324.816 113.017 322.247 115.586L302.094 135.739L301.784 135.429C299.247 132.892 295.143 132.856 292.563 135.35C288.164 139.601 266.153 161.52 264.793 175.617C264.362 180.087 265.498 184.632 267.958 188.666C261.623 192.366 254.602 192.149 249.365 189.848C250.784 182.912 251.916 175.499 252.756 167.603C253.425 161.313 251.257 155.153 246.808 150.704C242.36 146.255 236.2 144.088 229.91 144.757C222.014 145.596 214.602 146.729 207.668 148.147C205.37 142.911 205.156 135.894 208.853 129.561C212.888 132.022 217.432 133.157 221.903 132.727C236 131.366 257.92 109.355 262.17 104.958C264.664 102.377 264.628 98.2735 262.091 95.7361L261.781 95.426L281.934 75.2729C284.503 72.7038 284.503 68.5399 281.934 65.9714C279.366 63.403 275.202 63.4024 272.633 65.9714L252.48 86.1246L252.17 85.8145C250.593 84.2376 246.899 80.5437 257.13 70.3121L267.052 60.3905C269.107 58.3355 269.569 55.1755 268.19 52.6164C266.809 50.0579 263.914 48.7092 261.069 49.2982C240.596 53.5347 204.209 70.0399 197.695 105.029C196.712 110.31 197.391 115.272 199.642 119.69C192.788 128.959 190.955 140.753 194.757 151.278C190.914 152.371 187.247 153.568 183.767 154.873L179.778 134.926L184.579 101.317C185.092 97.7204 182.594 94.3899 178.998 93.8758C175.403 93.3624 172.07 95.8613 171.557 99.4567L166.596 134.182C166.49 134.921 166.511 135.671 166.658 136.402L171.446 160.34C168.734 161.754 166.168 163.25 163.754 164.834L154.685 128.556C154.395 127.399 153.797 126.343 152.954 125.501L133.111 105.658C130.542 103.089 126.378 103.089 123.809 105.658C121.24 108.227 121.241 112.391 123.809 114.959L142.365 133.514L151.843 171.433C152.042 172.226 152.387 172.94 152.826 173.574C150.469 175.884 148.339 178.32 146.447 180.887C146.049 181.428 145.667 181.968 145.298 182.507L134.506 157.325C133.892 155.895 132.792 154.728 131.402 154.034L111.559 144.112C108.309 142.488 104.359 143.805 102.734 147.053C101.11 150.302 102.428 154.252 105.676 155.877L123.364 164.722L137.298 197.232C137.487 197.673 137.723 198.08 137.99 198.455C137.574 200.055 137.262 201.585 137.034 203.028L121.923 193.962C120.427 193.064 118.636 192.798 116.944 193.222L77.2575 203.143C73.7335 204.024 71.5916 207.595 72.4716 211.119C72.7711 212.317 73.3831 213.356 74.1973 214.17C75.7773 215.75 78.1231 216.485 80.4485 215.903L117.492 206.643L139.265 219.708L139.992 220.436C137.719 221.435 135.589 222.858 133.731 224.716C128.472 229.975 126.656 237.394 128.281 244.145C124.823 245.029 121.55 246.818 118.849 249.52C116.299 252.069 114.562 255.126 113.63 258.368C107.622 255.372 101.627 254.384 95.2204 255.23C89.6228 255.969 73.819 259.078 73.1487 259.211C72.8752 259.265 72.6055 259.336 72.3413 259.424C61.5609 263.018 55.7134 274.712 59.3069 285.492C62.0967 293.866 69.7748 299.262 78.1169 299.572C78.3048 304.636 80.3443 309.611 84.1244 313.391C87.9045 317.172 92.8802 319.21 97.9433 319.398C98.2527 327.739 103.65 335.416 112.023 338.208C122.803 341.801 134.497 335.954 138.091 325.174C138.179 324.91 138.251 324.639 138.304 324.366C138.436 323.696 141.546 307.893 142.285 302.295C143.132 295.887 142.143 289.893 139.147 283.885C142.389 282.953 145.446 281.216 147.995 278.667C150.697 275.965 152.486 272.693 153.371 269.234C160.12 270.858 167.538 269.041 172.797 263.782C174.655 261.924 176.079 259.794 177.078 257.521L177.805 258.249L190.87 280.022L181.609 317.065C181.028 319.391 181.762 321.737 183.342 323.317C184.157 324.131 185.196 324.742 186.394 325.042C189.919 325.923 193.489 323.781 194.37 320.257L204.291 280.57C204.715 278.878 204.448 277.086 203.551 275.591L194.485 260.48C195.927 260.252 197.458 259.94 199.058 259.524C199.433 259.791 199.84 260.027 200.28 260.216L232.791 274.15L241.635 291.838C243.261 295.084 247.211 296.404 250.459 294.78C253.709 293.155 255.026 289.203 253.402 285.955ZM277.887 176.88C278.441 171.133 288.497 158.549 297.162 149.41L302.404 154.652C307.271 159.519 313.222 161.398 319.614 160.088C321.842 159.631 324.076 158.801 326.333 157.585C319.529 170.099 308.185 183.523 290.083 186.892C286.468 187.566 283.561 186.655 280.935 184.029C278.8 181.896 277.66 179.223 277.887 176.88ZM213.49 116.586C210.864 113.959 209.953 111.052 210.627 107.437C214.001 89.3119 227.456 77.9622 239.984 71.1598C233.44 83.2858 239.387 91.6348 242.868 95.116L248.112 100.36C238.979 109.025 226.399 119.078 220.641 119.634C218.298 119.86 215.624 118.72 213.49 116.586ZM231.301 157.838C233.62 157.591 235.883 158.381 237.507 160.006C239.132 161.631 239.923 163.893 239.676 166.213C238.102 181.017 235.414 194.038 231.693 205.091C224.207 199.79 217.275 198.853 211.931 198.138C207.11 197.492 204.699 197.087 202.562 194.95C200.425 192.814 200.02 190.402 199.374 185.581C198.659 180.237 197.722 173.305 192.421 165.819C203.475 162.098 216.497 159.411 231.301 157.838ZM129.243 300.572C128.625 305.252 126.016 318.658 125.49 321.349C124.065 325.033 119.967 326.99 116.181 325.728C112.283 324.427 110.166 320.199 111.467 316.298L112.709 312.572C113.598 309.906 112.695 306.965 110.461 305.265C108.227 303.56 105.156 303.462 102.818 305.022C99.8786 306.983 95.928 306.591 93.4246 304.087C90.9213 301.584 90.5288 297.634 92.4902 294.694C94.0503 292.356 93.9523 289.285 92.2471 287.052C92.0672 286.816 91.8738 286.596 91.6679 286.391C89.9248 284.647 87.3241 284.009 84.9392 284.804L81.2131 286.046C77.3139 287.345 73.0842 285.23 71.7839 281.332C70.5213 277.545 72.479 273.448 76.163 272.023C78.8542 271.496 92.2595 268.888 96.9406 268.271C102.222 267.573 108.532 268.349 118.847 278.664C129.161 288.979 129.94 295.29 129.243 300.572ZM152.954 254.481L143.032 244.559C140.126 241.653 140.126 236.924 143.032 234.018C145.939 231.111 150.668 231.111 153.574 234.018L163.496 243.939C166.402 246.846 166.402 251.575 163.496 254.481C160.589 257.387 155.86 257.387 152.954 254.481ZM138.692 269.363C135.785 272.27 131.056 272.27 128.15 269.363C125.244 266.457 125.244 261.728 128.15 258.822C131.056 255.915 135.785 255.915 138.692 258.822C141.598 261.728 141.598 266.457 138.692 269.363ZM209.142 240.24C199.209 247.701 189.843 248.106 186.055 247.896L149.622 211.462C149.409 207.633 149.828 198.285 157.274 188.373C162.404 181.544 169.966 175.717 179.732 170.97C184.919 176.8 185.615 181.925 186.338 187.327C187.062 192.74 187.883 198.875 193.262 204.253C198.64 209.631 204.775 210.452 210.188 211.177C215.589 211.899 220.714 212.596 226.545 217.782C221.798 227.548 215.971 235.11 209.142 240.24Z" fill="#D52B2B"/>
<path d="M262.401 128.534L252.48 128.534C248.846 128.535 245.902 131.479 245.902 135.112C245.902 136.927 246.639 138.572 247.829 139.762C249.019 140.952 250.663 141.688 252.479 141.688L262.401 141.688C266.034 141.688 268.978 138.744 268.978 135.111C268.977 131.48 266.032 128.535 262.401 128.534Z" fill="#D52B2B"/>
<path d="M275.666 125.191C275.666 127.007 276.403 128.651 277.593 129.841C278.783 131.031 280.427 131.768 282.243 131.768C285.876 131.767 288.82 128.823 288.82 125.191L288.82 115.269C288.82 111.637 285.875 108.692 282.244 108.692C278.61 108.693 275.666 111.637 275.666 115.27L275.666 125.191Z" fill="#D52B2B"/>
<path d="M287.514 90.1548L287.564 90.2044C290.132 92.7729 294.272 92.7487 296.841 90.1796C299.41 87.6106 299.384 83.4218 296.816 80.8534C294.247 78.2849 290.083 78.2843 287.514 80.8534C284.945 83.4224 284.946 87.5864 287.514 90.1548Z" fill="#D52B2B"/>
<path d="M315.353 214.485C315.353 216.301 316.089 217.945 317.279 219.135C318.469 220.325 320.114 221.062 321.93 221.062C325.563 221.061 328.507 218.117 328.507 214.484L328.507 204.563C328.506 200.931 325.561 197.986 321.93 197.986C318.297 197.987 315.353 200.931 315.353 204.564L315.353 214.485Z" fill="#D52B2B"/>
<path d="M296.866 239.648L296.816 239.599C294.248 237.03 290.109 237.054 287.54 239.623C284.971 242.192 284.996 246.381 287.564 248.95C290.133 251.518 294.297 251.519 296.866 248.95C299.435 246.381 299.434 242.217 296.866 239.648Z" fill="#D52B2B"/>
<path d="M326.58 239.599L321.619 234.638C319.051 232.069 314.887 232.069 312.318 234.638C309.749 237.207 309.75 241.371 312.318 243.939L317.279 248.9C319.847 251.468 324.011 251.469 326.58 248.9C329.149 246.331 329.149 242.167 326.58 239.599Z" fill="#D52B2B"/>
<path d="M278.9 283.935C278.899 280.303 275.954 277.358 272.323 277.358C268.69 277.359 265.745 280.303 265.745 283.935L265.745 293.857C265.745 295.673 266.482 297.317 267.672 298.507C268.862 299.697 270.507 300.434 272.322 300.434C275.955 300.433 278.9 297.489 278.9 293.856L278.9 283.935Z" fill="#D52B2B"/>
<path d="M232.327 304.089L227.367 299.128C224.798 296.559 220.634 296.559 218.065 299.128C215.496 301.697 215.497 305.861 218.065 308.429L223.026 313.39C225.594 315.959 229.758 315.959 232.327 313.39C234.896 310.821 234.896 306.657 232.327 304.089Z" fill="#D52B2B"/>
<path d="M163.185 277.358C159.552 277.358 156.608 280.303 156.608 283.935L156.608 293.857C156.608 295.672 157.345 297.317 158.535 298.507C159.725 299.697 161.369 300.433 163.185 300.433C166.818 300.433 169.762 297.489 169.762 293.856L169.762 283.934C169.762 280.304 166.816 277.358 163.185 277.358Z" fill="#D52B2B"/>
<path d="M98.694 245.866C102.327 245.865 105.271 242.921 105.271 239.289C105.271 235.657 102.326 232.712 98.6946 232.712L88.7731 232.712C85.14 232.712 82.1958 235.657 82.1958 239.289C82.1958 241.105 82.9324 242.749 84.1224 243.939C85.3124 245.129 86.9569 245.866 88.7725 245.866L98.694 245.866Z" fill="#D52B2B"/>
<path d="M103.348 184.41C105.917 181.841 105.916 177.677 103.348 175.109L93.4261 165.187C90.8577 162.619 86.6937 162.618 84.1247 165.187C81.5556 167.756 81.5562 171.92 84.1247 174.489L94.0462 184.41C96.6147 186.979 100.779 186.979 103.348 184.41Z" fill="#D52B2B"/>
<path d="M68.6205 180.069C66.052 177.501 61.8881 177.5 59.319 180.069L59.2694 180.119C56.7003 182.688 56.7257 186.827 59.2942 189.395C61.8626 191.964 66.0514 191.94 68.6204 189.371C71.1895 186.802 71.1889 182.638 68.6205 180.069Z" fill="#D52B2B"/>
<path d="M108.307 120.54L103.346 115.579C100.778 113.011 96.6137 113.01 94.0446 115.579C91.4755 118.148 91.4762 122.312 94.0446 124.881L99.0054 129.841C101.574 132.41 105.738 132.41 108.307 129.841C110.876 127.272 110.875 123.108 108.307 120.54Z" fill="#D52B2B"/>
<path d="M143.702 95.1655C146.271 97.7339 150.435 97.7345 153.004 95.1655C155.573 92.5964 155.572 88.4324 153.004 85.864L152.954 85.8144C150.386 83.246 146.246 83.2701 143.677 85.8392C141.108 88.4083 141.134 92.597 143.702 95.1655Z" fill="#D52B2B"/>
<path d="M176.45 75.5835C176.45 77.3991 177.187 79.0436 178.377 80.2336C179.567 81.4235 181.212 82.1602 183.027 82.1602C186.66 82.1596 189.605 79.2154 189.605 75.5828L189.605 65.6613C189.604 62.0294 186.659 59.0845 183.028 59.0845C179.395 59.0851 176.45 62.0294 176.45 65.6619L176.45 75.5835Z" fill="#D52B2B"/>
<path d="M259.599 308.783C255.966 308.783 253.021 311.727 253.021 315.36C253.021 318.993 255.966 321.937 259.599 321.937H259.669C263.301 321.937 266.211 318.993 266.211 315.36C266.211 311.727 263.231 308.783 259.599 308.783Z" fill="#D52B2B"/>
</g>
<defs>
<clipPath id="clip0">
<rect width="392" height="392" fill="white"/>
</clipPath>
</defs>
</svg>
