<svg width="281" height="117" viewBox="0 0 281 117" fill="none" xmlns="http://www.w3.org/2000/svg">
<path d="M102.87 67.3319C102.87 72.8744 98.4534 77.3835 93.0242 77.3835C87.595 77.3835 83.178 72.8744 83.178 67.3319C83.178 64.4969 84.593 61.5728 86.5293 59.6319C86.6256 59.5373 86.6964 59.4198 86.7351 59.2903C86.7738 59.1609 86.7792 59.0236 86.7508 58.8915C86.7224 58.7594 86.6611 58.6366 86.5726 58.5347C86.4841 58.4327 86.3713 58.3549 86.2447 58.3086L86.2263 58.3018C86.0887 58.2513 85.9401 58.2395 85.7963 58.2675C85.6525 58.2955 85.5191 58.3623 85.4104 58.4607C84.1616 59.5735 83.1627 60.9399 82.4801 62.4693C81.7974 63.9987 81.4465 65.6562 81.4506 67.3319C81.4506 73.8404 86.6323 79.1166 93.0242 79.1166C99.4161 79.1166 104.598 73.8404 104.598 67.3319C104.598 66.1527 104.424 64.9799 104.08 63.8522C104.016 63.6507 103.874 63.4829 103.687 63.3853C103.5 63.2877 103.282 63.2682 103.081 63.3309C103.057 63.338 103.033 63.3448 103.009 63.3515C102.902 63.3792 102.803 63.4282 102.716 63.4955C102.629 63.5628 102.557 63.6471 102.503 63.7432C102.45 63.8393 102.416 63.9453 102.405 64.0548C102.393 64.1643 102.404 64.275 102.436 64.3802C102.725 65.3373 102.871 66.3319 102.87 67.3319Z" fill="white" stroke="white" stroke-width="2" stroke-miterlimit="10"/>
<path d="M43.9015 67.3057C43.9015 72.8605 48.2752 77.3797 53.6512 77.3797C59.0272 77.3797 63.4008 72.8605 63.4008 67.3057C63.4008 64.4644 61.9997 61.5338 60.0824 59.5886C59.9871 59.4938 59.917 59.376 59.8786 59.2463C59.8403 59.1165 59.8349 58.979 59.863 58.8465C59.8912 58.7141 59.9519 58.5911 60.0395 58.4889C60.1271 58.3867 60.2388 58.3088 60.3641 58.2623L60.3825 58.2555C60.5187 58.2049 60.1564 58.8431 60.6004 58.5753C60.7428 58.6033 61.1023 58.8456 61.21 58.9443C62.4465 60.0596 63.4159 60.8995 64.0919 62.4323C64.7679 63.9651 65.1153 65.6263 65.1113 67.3057C65.1113 73.8287 59.9804 79.1166 53.6512 79.1166C47.3219 79.1166 42.191 73.8287 42.191 67.3057C42.1906 66.1238 42.3634 64.9485 42.7037 63.8182C42.7676 63.6163 42.9074 63.4482 43.0927 63.3504C43.278 63.2526 43.4938 63.233 43.6933 63.2958C43.717 63.3029 43.7408 63.3098 43.7646 63.3164C43.8698 63.3442 43.9683 63.3933 44.0543 63.4608C44.1403 63.5283 44.212 63.6127 44.265 63.709C44.318 63.8054 44.3512 63.9116 44.3627 64.0213C44.3742 64.131 44.3637 64.242 44.3319 64.3475C44.0458 65.3067 43.9008 66.3035 43.9015 67.3057Z" fill="white" stroke="white" stroke-width="2" stroke-miterlimit="10"/>
<path d="M122.242 62.4539C121.886 62.3666 121.53 62.2765 121.173 62.1796C121.125 62.1665 121.081 62.1427 121.044 62.1098C121.006 62.0769 120.977 62.0359 120.957 61.9898C120.937 61.9436 120.928 61.8936 120.93 61.8434C120.932 61.7931 120.945 61.744 120.969 61.6997C121.379 60.9606 121.712 60.18 121.962 59.3707C122.196 58.454 122.247 57.4992 122.114 56.562C121.98 55.6248 121.664 54.7241 121.184 53.9124C120.704 53.1007 120.07 52.3943 119.318 51.8346C118.566 51.2748 117.712 50.8729 116.805 50.6524C115.899 50.4318 114.958 50.397 114.038 50.5499C113.119 50.7028 112.238 51.0405 111.448 51.5431C110.658 52.0458 109.975 52.7033 109.438 53.4774C108.901 54.2514 108.521 55.1264 108.32 56.0512C108.046 57.249 108.067 58.497 108.381 59.6847C109.285 62.8693 109.897 66.2534 109.075 69.7393C108.709 71.2968 108.126 72.7931 107.343 74.1828C107.303 74.2565 107.236 74.312 107.158 74.338C107.079 74.364 106.993 74.3587 106.918 74.323C106.842 74.2873 106.783 74.224 106.752 74.1458C106.721 74.0677 106.72 73.9804 106.75 73.9016C109.186 67.3891 107.52 62.4507 107.065 61.075L107.064 61.0761C106.968 60.8382 106.885 60.5976 106.809 60.3553C106.804 60.3426 106.791 60.2904 106.787 60.2772C106.334 58.7742 106.292 57.174 106.666 55.6487C106.919 54.5032 107.393 53.42 108.061 52.4622C108.729 51.5045 109.578 50.6913 110.558 50.0699C111.539 49.4486 112.631 49.0315 113.771 48.8429C114.912 48.6543 116.078 48.698 117.202 48.9715C118.325 49.2449 119.384 49.7426 120.317 50.4357C121.25 51.1287 122.037 52.0032 122.634 53.0084C123.231 54.0136 123.625 55.1293 123.794 56.2906C123.962 57.452 123.902 58.6358 123.616 59.7732C123.407 60.6637 123.065 61.5166 122.603 62.3026C122.566 62.3635 122.512 62.4111 122.447 62.4383C122.382 62.4655 122.31 62.471 122.242 62.4539Z" fill="white" stroke="white" stroke-width="2" stroke-miterlimit="10"/>
<path d="M29.0514 82.1286C30.3745 79.1985 33.8505 78.1504 36.9906 79.4221C37.69 79.7054 39.0244 80.4849 40.5004 82.3584C40.5421 82.4103 40.572 82.4698 40.5883 82.5331C40.6045 82.5965 40.6067 82.6624 40.5947 82.7266C40.5827 82.7908 40.5569 82.852 40.5187 82.9063C40.4805 82.9605 40.4309 83.0067 40.3729 83.0419C40.3019 83.0843 40.2244 83.1299 40.1418 83.1773C40.0394 83.2361 39.9183 83.2585 39.8001 83.2405C39.682 83.2225 39.5744 83.1653 39.4966 83.0791C38.172 81.5947 37.1179 80.8892 36.4572 80.6216C35.3838 80.1759 34.1676 80.1517 33.0754 80.5541C31.9831 80.9565 31.104 81.7527 30.6307 82.7682C29.7452 84.7293 30.7202 87.3962 32.8012 88.1875C32.9303 88.2344 33.0376 88.3233 33.1039 88.4382C33.1702 88.5531 33.1912 88.6866 33.1632 88.8148C33.1162 89.0229 33.064 89.2288 33.0064 89.4325C32.9886 89.4964 32.9566 89.5558 32.9124 89.6069C32.8682 89.658 32.8129 89.6994 32.7503 89.7285C32.6877 89.7575 32.6192 89.7735 32.5496 89.7752C32.4799 89.777 32.4106 89.7645 32.3464 89.7387L32.3413 89.7367C30.8398 89.1409 29.6497 88.0046 29.0327 86.5778C28.4158 85.1511 28.4225 83.5506 29.0514 82.1286Z" fill="white" stroke="white" stroke-width="2" stroke-miterlimit="10"/>
<path d="M24.9791 62.2106C25.3298 62.1248 25.6816 62.0363 26.0339 61.941C26.0811 61.9282 26.1248 61.9048 26.1617 61.8725C26.1987 61.8402 26.228 61.7999 26.2474 61.7546C26.2667 61.7093 26.2758 61.6601 26.2737 61.6108C26.2717 61.5615 26.2587 61.5132 26.2356 61.4697C25.831 60.7436 25.5024 59.9769 25.2552 59.1818C25.0245 58.2814 24.9736 57.3434 25.1055 56.4228C25.2373 55.5022 25.5493 54.6174 26.0232 53.8201C26.4971 53.0228 27.1233 52.329 27.8654 51.7792C28.6075 51.2294 29.4504 50.8346 30.3451 50.6179C31.2398 50.4012 32.1682 50.367 33.0761 50.5172C33.984 50.6675 34.8532 50.9991 35.6328 51.4928C36.4125 51.9866 37.0871 52.6324 37.6171 53.3927C38.1472 54.153 38.522 55.0125 38.7198 55.921C38.9903 57.0976 38.9697 58.3236 38.6597 59.4903C37.7676 62.6186 37.1639 65.9429 37.9751 69.3672C38.3361 70.8972 38.9117 72.3671 39.6844 73.7323C39.7242 73.8047 39.7897 73.8592 39.8677 73.8847C39.9456 73.9103 40.0303 73.905 40.1045 73.87C40.1788 73.8349 40.2372 73.7728 40.2679 73.696C40.2987 73.6191 40.2995 73.5334 40.2702 73.456C37.8659 67.0585 39.5101 62.2073 39.9587 60.856L39.9602 60.8571C40.0551 60.6234 40.1371 60.387 40.2115 60.149C40.2164 60.1365 40.2296 60.0853 40.2332 60.0723C40.6809 58.5959 40.7222 57.024 40.3525 55.5256C40.1033 54.4003 39.6354 53.3364 38.9758 52.3957C38.3163 51.455 37.4783 50.6563 36.5107 50.046C35.5431 49.4357 34.4652 49.026 33.3396 48.8408C32.2139 48.6556 31.0631 48.6986 29.9541 48.9672C28.845 49.2358 27.7998 49.7246 26.8794 50.4054C25.9589 51.0861 25.1814 51.9451 24.5923 52.9324C24.0031 53.9197 23.614 55.0156 23.4475 56.1564C23.281 57.2971 23.3405 58.46 23.6226 59.5772C23.8294 60.452 24.1667 61.2898 24.6229 62.0619C24.6589 62.1218 24.7129 62.1685 24.7769 62.1952C24.841 62.2219 24.9118 62.2273 24.9791 62.2106Z" fill="white" stroke="white" stroke-width="2" stroke-miterlimit="10"/>
<path d="M52.1759 39.988C52.1759 26.7695 63.7809 19.473 72.9966 19.473C82.895 19.473 94.1586 26.7695 94.1586 39.988C94.1586 53.2065 84.7605 63.9222 73.1673 63.9222C61.5741 63.9222 52.1759 53.2065 52.1759 39.988Z" stroke="white" stroke-width="4" stroke-miterlimit="10"/>
<path d="M57.6864 97.279C57.4893 96.972 57.2894 96.6649 57.0829 96.3595C57.0552 96.3187 57.0187 96.2846 56.976 96.2599C56.9333 96.2352 56.8857 96.2205 56.8366 96.2169C56.7874 96.2132 56.7381 96.2208 56.6923 96.239C56.6465 96.2571 56.6054 96.2854 56.572 96.3218C56.0222 96.9473 55.4087 97.5134 54.7417 98.0111C53.9699 98.5277 53.1033 98.8848 52.1924 99.0615C51.2815 99.2382 50.3446 99.231 49.4365 99.0403C48.5284 98.8496 47.6673 98.4793 46.9035 97.9509C46.1396 97.4225 45.4884 96.7467 44.9878 95.9629C44.4872 95.1792 44.1473 94.3032 43.9879 93.3861C43.8286 92.469 43.8529 91.5293 44.0596 90.6218C44.2663 89.7143 44.6512 88.8572 45.1917 88.1006C45.7322 87.344 46.4176 86.7031 47.2078 86.2153C48.2266 85.5698 49.3883 85.1864 50.5901 85.0989C53.8326 84.9228 57.1642 84.4065 60.1212 82.5051C61.4428 81.6569 62.6367 80.6234 63.6667 79.436C63.7217 79.3741 63.7513 79.2936 63.7495 79.2107C63.7478 79.1278 63.7148 79.0487 63.6572 78.9892C63.5995 78.9297 63.5216 78.8944 63.4391 78.8903C63.3565 78.8861 63.2755 78.9136 63.2123 78.967C57.9826 83.3687 52.8678 83.3927 51.4462 83.4083L51.4467 83.4065C51.1951 83.3928 50.9453 83.3921 50.6964 83.3992C50.683 83.3986 50.6303 83.4029 50.6169 83.4038C49.0777 83.4614 47.5833 83.9389 46.2943 84.785C45.3169 85.3931 44.4697 86.1903 43.8021 87.1299C43.1345 88.0696 42.6598 89.1331 42.4055 90.2586C42.1513 91.384 42.1226 92.549 42.3212 93.6856C42.5197 94.8223 42.9416 95.908 43.5621 96.8796C44.1827 97.8512 44.9896 98.6894 45.9359 99.3452C46.8822 100.001 47.949 100.462 49.0743 100.7C50.1997 100.938 51.361 100.95 52.4907 100.734C53.6205 100.518 54.6962 100.078 55.6552 99.4414C56.4107 98.9561 57.0882 98.3582 57.6644 97.6683C57.7088 97.6142 57.7349 97.5473 57.7389 97.4773C57.7428 97.4073 57.7244 97.3378 57.6864 97.279Z" fill="white" stroke="white" stroke-width="2" stroke-miterlimit="10"/>
<path d="M90.0739 96.7883C90.2731 96.4781 90.475 96.1679 90.6837 95.8593C90.7117 95.818 90.7486 95.7836 90.7918 95.7587C90.8349 95.7337 90.883 95.7188 90.9327 95.7152C90.9823 95.7115 91.0321 95.7191 91.0784 95.7375C91.1247 95.7558 91.1663 95.7844 91.2 95.8212C91.7556 96.4531 92.3755 97.0251 93.0496 97.5279C93.8295 98.0498 94.7053 98.4106 95.6258 98.5891C96.5463 98.7677 97.493 98.7604 98.4107 98.5677C99.3283 98.3751 100.199 98.0009 100.97 97.4671C101.742 96.9332 102.4 96.2504 102.906 95.4586C103.412 94.6667 103.756 93.7817 103.917 92.8552C104.078 91.9287 104.053 90.9792 103.844 90.0624C103.635 89.1455 103.246 88.2796 102.7 87.5152C102.154 86.7508 101.461 86.1033 100.663 85.6104C99.6333 84.9583 98.4594 84.5709 97.245 84.4826C93.9682 84.3046 90.6015 83.7829 87.6134 81.862C86.2779 81.005 85.0714 79.9609 84.0306 78.7612C83.975 78.6987 83.9451 78.6174 83.9469 78.5336C83.9486 78.4499 83.982 78.3699 84.0402 78.3098C84.0984 78.2497 84.1772 78.214 84.2606 78.2099C84.344 78.2057 84.4259 78.2334 84.4898 78.2874C89.7746 82.7345 94.9432 82.7587 96.3798 82.7745L96.3793 82.7727C96.6335 82.7588 96.886 82.7581 97.1375 82.7653C97.151 82.7647 97.2043 82.769 97.2178 82.7699C98.7732 82.8281 100.283 83.3106 101.586 84.1654C102.574 84.7798 103.43 85.5852 104.104 86.5345C104.779 87.4839 105.259 88.5584 105.516 89.6954C105.772 90.8325 105.801 92.0094 105.601 93.1578C105.4 94.3062 104.974 95.403 104.347 96.3847C103.72 97.3663 102.904 98.213 101.948 98.8756C100.992 99.5383 99.9137 100.004 98.7766 100.244C97.6394 100.485 96.4659 100.497 95.3242 100.279C94.1826 100.06 93.0955 99.6165 92.1264 98.973C91.363 98.4826 90.6784 97.8786 90.0961 97.1816C90.0512 97.1269 90.0248 97.0593 90.0208 96.9886C90.0168 96.9178 90.0354 96.8477 90.0739 96.7883Z" fill="white" stroke="white" stroke-width="2" stroke-miterlimit="10"/>
<path d="M82.3623 71.5169C82.3352 71.4696 82.3073 71.4228 82.2788 71.3763C81.7195 69.9417 80.4537 68.3354 78.844 67.0849C77.6926 66.1904 76.334 65.4539 74.8892 65.0987C76.4932 65.4835 78.0003 66.3336 79.2631 67.3913C80.802 68.6802 81.92 70.2281 82.3983 71.509L82.3623 71.5169Z" fill="white" stroke="white"/>
<path d="M64.4264 71.5169C64.4535 71.4696 64.4814 71.4228 64.5099 71.3763C65.0692 69.9417 66.335 68.3354 67.9447 67.0849C69.0961 66.1904 70.4547 65.4539 71.8995 65.0987C70.2955 65.4835 68.7884 66.3336 67.5256 67.3913C65.9867 68.6802 64.8687 70.2281 64.3904 71.509L64.4264 71.5169Z" fill="white" stroke="white"/>
<path d="M66.938 67.1662L64.6347 70.2721L63.9766 62.3347L70.5576 64.7504L66.938 67.1662Z" fill="white" stroke="white" stroke-width="3" stroke-miterlimit="10"/>
<path d="M79.6463 67.255L82.1086 70.2722L82.8121 62.5616L75.7771 64.9083L79.6463 67.255Z" fill="white" stroke="white" stroke-width="3" stroke-miterlimit="10"/>
<path d="M117.065 81.4913C115.767 78.317 112.357 77.1816 109.276 78.5593C108.59 78.8662 107.281 79.7107 105.832 81.7402C105.791 81.7964 105.762 81.8609 105.746 81.9296C105.73 81.9982 105.728 82.0696 105.74 82.1391C105.752 82.2087 105.777 82.275 105.814 82.3338C105.852 82.3926 105.901 82.4426 105.957 82.4808C106.027 82.5267 106.103 82.576 106.184 82.6274C106.285 82.6911 106.404 82.7154 106.519 82.6959C106.635 82.6764 106.741 82.6144 106.817 82.521C108.117 80.9129 109.151 80.1486 109.799 79.8587C110.852 79.3759 112.046 79.3496 113.117 79.7856C114.189 80.2215 115.052 81.0841 115.516 82.1842C116.385 84.3087 115.428 87.1979 113.386 88.0551C113.26 88.1059 113.154 88.2022 113.089 88.3267C113.024 88.4512 113.004 88.5958 113.031 88.7347C113.077 88.9601 113.129 89.1832 113.185 89.4039C113.202 89.4731 113.234 89.5375 113.277 89.5928C113.321 89.6481 113.375 89.693 113.436 89.7245C113.498 89.756 113.565 89.7732 113.633 89.7752C113.702 89.7771 113.77 89.7636 113.833 89.7356L113.838 89.7334C115.311 89.0879 116.478 87.857 117.084 86.3113C117.689 84.7657 117.682 83.0318 117.065 81.4913Z" fill="white" stroke="white" stroke-width="2" stroke-miterlimit="10"/>
<path d="M139.916 49.7168V55H137.445V40.7812H142.885C144.473 40.7812 145.733 41.1947 146.664 42.0215C147.602 42.8483 148.07 43.9421 148.07 45.3027C148.07 46.696 147.611 47.7799 146.693 48.5547C145.782 49.3294 144.503 49.7168 142.855 49.7168H139.916ZM139.916 47.7344H142.885C143.764 47.7344 144.434 47.5293 144.896 47.1191C145.359 46.7025 145.59 46.1035 145.59 45.3223C145.59 44.554 145.355 43.9421 144.887 43.4863C144.418 43.0241 143.773 42.7865 142.953 42.7734H139.916V47.7344ZM149.428 49.6191C149.428 48.584 149.633 47.653 150.043 46.8262C150.453 45.9928 151.029 45.3548 151.771 44.9121C152.514 44.4629 153.367 44.2383 154.33 44.2383C155.756 44.2383 156.911 44.6973 157.797 45.6152C158.689 46.5332 159.171 47.7507 159.242 49.2676L159.252 49.8242C159.252 50.8659 159.05 51.7969 158.646 52.6172C158.249 53.4375 157.676 54.0723 156.928 54.5215C156.186 54.9707 155.326 55.1953 154.35 55.1953C152.859 55.1953 151.664 54.7005 150.766 53.7109C149.874 52.7148 149.428 51.39 149.428 49.7363V49.6191ZM151.801 49.8242C151.801 50.9115 152.025 51.7643 152.475 52.3828C152.924 52.9948 153.549 53.3008 154.35 53.3008C155.15 53.3008 155.772 52.9883 156.215 52.3633C156.664 51.7383 156.889 50.8236 156.889 49.6191C156.889 48.5514 156.658 47.7051 156.195 47.0801C155.74 46.4551 155.118 46.1426 154.33 46.1426C153.555 46.1426 152.94 46.4518 152.484 47.0703C152.029 47.6823 151.801 48.6003 151.801 49.8242ZM169.262 47.3242C169.262 47.793 169.118 48.2259 168.832 48.623C168.552 49.0137 168.155 49.3262 167.641 49.5605C168.852 49.9837 169.457 50.8008 169.457 52.0117C169.457 52.9818 169.063 53.7565 168.275 54.3359C167.488 54.9089 166.433 55.1953 165.111 55.1953C164.304 55.1953 163.568 55.0618 162.904 54.7949C162.24 54.5215 161.723 54.1374 161.352 53.6426C160.98 53.1413 160.795 52.5488 160.795 51.8652H163.158C163.158 52.2949 163.35 52.6562 163.734 52.9492C164.118 53.2357 164.604 53.3789 165.189 53.3789C165.769 53.3789 166.228 53.2454 166.566 52.9785C166.911 52.7051 167.084 52.3503 167.084 51.9141C167.084 51.3997 166.934 51.0286 166.635 50.8008C166.335 50.5729 165.873 50.459 165.248 50.459H163.549V48.75H165.307C166.368 48.737 166.898 48.3008 166.898 47.4414C166.898 47.0117 166.745 46.6764 166.439 46.4355C166.133 46.1947 165.714 46.0742 165.18 46.0742C164.659 46.0742 164.219 46.2044 163.861 46.4648C163.503 46.7188 163.324 47.041 163.324 47.4316H160.961C160.961 46.5007 161.352 45.7389 162.133 45.1465C162.914 44.5475 163.907 44.248 165.111 44.248C166.42 44.248 167.439 44.515 168.168 45.0488C168.897 45.5827 169.262 46.3411 169.262 47.3242ZM180.727 49.8242C180.727 51.4583 180.355 52.7637 179.613 53.7402C178.871 54.7103 177.875 55.1953 176.625 55.1953C175.466 55.1953 174.538 54.8145 173.842 54.0527V59.0625H171.469V44.4336H173.656L173.754 45.5078C174.451 44.6615 175.398 44.2383 176.596 44.2383C177.885 44.2383 178.894 44.7201 179.623 45.6836C180.359 46.6406 180.727 47.972 180.727 49.6777V49.8242ZM178.363 49.6191C178.363 48.5645 178.152 47.7279 177.729 47.1094C177.312 46.4909 176.713 46.1816 175.932 46.1816C174.962 46.1816 174.265 46.582 173.842 47.3828V52.0703C174.271 52.8906 174.975 53.3008 175.951 53.3008C176.706 53.3008 177.296 52.998 177.719 52.3926C178.148 51.7806 178.363 50.8561 178.363 49.6191ZM182.299 49.6191C182.299 48.584 182.504 47.653 182.914 46.8262C183.324 45.9928 183.9 45.3548 184.643 44.9121C185.385 44.4629 186.238 44.2383 187.201 44.2383C188.627 44.2383 189.783 44.6973 190.668 45.6152C191.56 46.5332 192.042 47.7507 192.113 49.2676L192.123 49.8242C192.123 50.8659 191.921 51.7969 191.518 52.6172C191.12 53.4375 190.548 54.0723 189.799 54.5215C189.057 54.9707 188.197 55.1953 187.221 55.1953C185.73 55.1953 184.535 54.7005 183.637 53.7109C182.745 52.7148 182.299 51.39 182.299 49.7363V49.6191ZM184.672 49.8242C184.672 50.9115 184.896 51.7643 185.346 52.3828C185.795 52.9948 186.42 53.3008 187.221 53.3008C188.021 53.3008 188.643 52.9883 189.086 52.3633C189.535 51.7383 189.76 50.8236 189.76 49.6191C189.76 48.5514 189.529 47.7051 189.066 47.0801C188.611 46.4551 187.989 46.1426 187.201 46.1426C186.426 46.1426 185.811 46.4518 185.355 47.0703C184.9 47.6823 184.672 48.6003 184.672 49.8242ZM199.105 45.0195C200.434 45.0195 201.498 45.4655 202.299 46.3574C203.1 47.2428 203.5 48.4473 203.5 49.9707V50.0879C203.5 51.6113 203.064 52.8451 202.191 53.7891C201.326 54.7331 200.147 55.2051 198.656 55.2051C197.204 55.2051 196.033 54.7233 195.141 53.7598C194.249 52.7962 193.803 51.4811 193.803 49.8145V49.1309C193.803 46.8522 194.206 45.0488 195.014 43.7207C195.821 42.3926 197.025 41.5625 198.627 41.2305C199.525 41.0482 200.105 40.8561 200.365 40.6543C200.632 40.446 200.766 40.166 200.766 39.8145H202.68C202.68 40.472 202.572 41.0059 202.357 41.416C202.143 41.8262 201.814 42.1615 201.371 42.4219C200.928 42.6758 200.167 42.9167 199.086 43.1445C198.096 43.3529 197.341 43.724 196.82 44.2578C196.306 44.7917 195.961 45.5306 195.785 46.4746C196.729 45.5046 197.836 45.0195 199.105 45.0195ZM198.637 46.9238C197.868 46.9238 197.266 47.1842 196.83 47.7051C196.394 48.2194 196.176 49.0137 196.176 50.0879C196.176 51.1035 196.391 51.8945 196.82 52.4609C197.25 53.0273 197.862 53.3105 198.656 53.3105C199.444 53.3105 200.053 53.0273 200.482 52.4609C200.919 51.888 201.137 51.0286 201.137 49.8828C201.137 48.9714 200.919 48.252 200.482 47.7246C200.053 47.1908 199.438 46.9238 198.637 46.9238ZM214.34 44.4336V55H211.967V46.3477H208.979L208.783 50.0293C208.66 51.8001 208.318 53.0729 207.758 53.8477C207.204 54.6159 206.355 55 205.209 55H204.477L204.467 53.0273L204.955 52.9785C205.476 52.9069 205.854 52.5911 206.088 52.0312C206.329 51.4648 206.482 50.4362 206.547 48.9453L206.742 44.4336H214.34ZM221.518 55.1953C220.014 55.1953 218.793 54.7233 217.855 53.7793C216.924 52.8288 216.459 51.5658 216.459 49.9902V49.6973C216.459 48.6426 216.661 47.7018 217.064 46.875C217.475 46.0417 218.048 45.3939 218.783 44.9316C219.519 44.4694 220.339 44.2383 221.244 44.2383C222.683 44.2383 223.793 44.6973 224.574 45.6152C225.362 46.5332 225.756 47.832 225.756 49.5117V50.4688H218.852C218.923 51.3411 219.213 52.0312 219.721 52.5391C220.235 53.0469 220.88 53.3008 221.654 53.3008C222.742 53.3008 223.627 52.8613 224.311 51.9824L225.59 53.2031C225.167 53.8346 224.6 54.3262 223.891 54.6777C223.188 55.0228 222.396 55.1953 221.518 55.1953ZM221.234 46.1426C220.583 46.1426 220.056 46.3704 219.652 46.8262C219.255 47.2819 219.001 47.9167 218.891 48.7305H223.412V48.5547C223.36 47.7604 223.148 47.1615 222.777 46.7578C222.406 46.3477 221.892 46.1426 221.234 46.1426ZM236.557 55H234.184V50.7324H230.072V55H227.699V44.4336H230.072V48.8379H234.184V44.4336H236.557V55ZM238.646 49.6191C238.646 48.584 238.852 47.653 239.262 46.8262C239.672 45.9928 240.248 45.3548 240.99 44.9121C241.732 44.4629 242.585 44.2383 243.549 44.2383C244.975 44.2383 246.13 44.6973 247.016 45.6152C247.908 46.5332 248.389 47.7507 248.461 49.2676L248.471 49.8242C248.471 50.8659 248.269 51.7969 247.865 52.6172C247.468 53.4375 246.895 54.0723 246.146 54.5215C245.404 54.9707 244.545 55.1953 243.568 55.1953C242.077 55.1953 240.883 54.7005 239.984 53.7109C239.092 52.7148 238.646 51.39 238.646 49.7363V49.6191ZM241.02 49.8242C241.02 50.9115 241.244 51.7643 241.693 52.3828C242.143 52.9948 242.768 53.3008 243.568 53.3008C244.369 53.3008 244.991 52.9883 245.434 52.3633C245.883 51.7383 246.107 50.8236 246.107 49.6191C246.107 48.5514 245.876 47.7051 245.414 47.0801C244.958 46.4551 244.337 46.1426 243.549 46.1426C242.774 46.1426 242.159 46.4518 241.703 47.0703C241.247 47.6823 241.02 48.6003 241.02 49.8242ZM151.738 70.8203C151.738 72.4844 151.43 73.957 150.812 75.2383C150.195 76.5195 149.316 77.5078 148.176 78.2031C147.043 78.8906 145.75 79.2344 144.297 79.2344C142.844 79.2344 141.555 78.9023 140.43 78.2383C139.305 77.5664 138.426 76.6094 137.793 75.3672C137.168 74.125 136.84 72.6992 136.809 71.0898V70.1289C136.809 68.457 137.113 66.9844 137.723 65.7109C138.34 64.4297 139.219 63.4414 140.359 62.7461C141.508 62.0508 142.812 61.7031 144.273 61.7031C145.719 61.7031 147.008 62.0469 148.141 62.7344C149.273 63.4219 150.152 64.4023 150.777 65.6758C151.41 66.9414 151.73 68.3945 151.738 70.0352V70.8203ZM147.555 70.1055C147.555 68.4102 147.27 67.125 146.699 66.25C146.137 65.3672 145.328 64.9258 144.273 64.9258C142.211 64.9258 141.121 66.4727 141.004 69.5664L140.992 70.8203C140.992 72.4922 141.27 73.7773 141.824 74.6758C142.379 75.5742 143.203 76.0234 144.297 76.0234C145.336 76.0234 146.137 75.582 146.699 74.6992C147.262 73.8164 147.547 72.5469 147.555 70.8906V70.1055ZM159.039 76.1875C159.594 76.1875 160.023 76.0391 160.328 75.7422C160.633 75.4375 160.781 75.0156 160.773 74.4766H164.477C164.477 75.8672 163.977 77.0078 162.977 77.8984C161.984 78.7891 160.703 79.2344 159.133 79.2344C157.289 79.2344 155.836 78.6562 154.773 77.5C153.711 76.3438 153.18 74.7422 153.18 72.6953V72.5312C153.18 71.25 153.414 70.1211 153.883 69.1445C154.359 68.1602 155.043 67.4062 155.934 66.8828C156.824 66.3516 157.879 66.0859 159.098 66.0859C160.746 66.0859 162.055 66.543 163.023 67.457C163.992 68.3711 164.477 69.6094 164.477 71.1719H160.773C160.773 70.5156 160.613 70.0117 160.293 69.6602C159.973 69.3086 159.543 69.1328 159.004 69.1328C157.98 69.1328 157.383 69.7852 157.211 71.0898C157.156 71.5039 157.129 72.0742 157.129 72.8008C157.129 74.0742 157.281 74.957 157.586 75.4492C157.891 75.9414 158.375 76.1875 159.039 76.1875ZM170.746 63.168V66.3203H172.832V69.0625H170.746V74.8633C170.746 75.3398 170.832 75.6719 171.004 75.8594C171.176 76.0469 171.516 76.1406 172.023 76.1406C172.414 76.1406 172.742 76.1172 173.008 76.0703V78.8945C172.297 79.1211 171.555 79.2344 170.781 79.2344C169.422 79.2344 168.418 78.9141 167.77 78.2734C167.121 77.6328 166.797 76.6602 166.797 75.3555V69.0625H165.18V66.3203H166.797V63.168H170.746ZM173.547 72.543C173.547 71.2773 173.793 70.1523 174.285 69.168C174.777 68.1758 175.484 67.4141 176.406 66.8828C177.328 66.3516 178.41 66.0859 179.652 66.0859C181.551 66.0859 183.047 66.6758 184.141 67.8555C185.234 69.0273 185.781 70.625 185.781 72.6484V72.7891C185.781 74.7656 185.23 76.3359 184.129 77.5C183.035 78.6562 181.551 79.2344 179.676 79.2344C177.871 79.2344 176.422 78.6953 175.328 77.6172C174.234 76.5312 173.645 75.0625 173.559 73.2109L173.547 72.543ZM177.496 72.7891C177.496 73.9609 177.68 74.8203 178.047 75.3672C178.414 75.9141 178.957 76.1875 179.676 76.1875C181.082 76.1875 181.801 75.1055 181.832 72.9414V72.543C181.832 70.2695 181.105 69.1328 179.652 69.1328C178.332 69.1328 177.617 70.1133 177.508 72.0742L177.496 72.7891ZM200.922 72.6367L202.879 61.9375H206.957L203.336 79H199.07L196.785 69.2734L194.547 79H190.293L186.66 61.9375H190.75L192.707 72.6367L195.051 61.9375H198.543L200.922 72.6367ZM212.547 79H208.586V66.3203H212.547V79ZM208.352 63.0508C208.352 62.4883 208.555 62.0273 208.961 61.668C209.367 61.3086 209.895 61.1289 210.543 61.1289C211.191 61.1289 211.719 61.3086 212.125 61.668C212.531 62.0273 212.734 62.4883 212.734 63.0508C212.734 63.6133 212.531 64.0742 212.125 64.4336C211.719 64.793 211.191 64.9727 210.543 64.9727C209.895 64.9727 209.367 64.793 208.961 64.4336C208.555 64.0742 208.352 63.6133 208.352 63.0508ZM220.352 76.1875C220.906 76.1875 221.336 76.0391 221.641 75.7422C221.945 75.4375 222.094 75.0156 222.086 74.4766H225.789C225.789 75.8672 225.289 77.0078 224.289 77.8984C223.297 78.7891 222.016 79.2344 220.445 79.2344C218.602 79.2344 217.148 78.6562 216.086 77.5C215.023 76.3438 214.492 74.7422 214.492 72.6953V72.5312C214.492 71.25 214.727 70.1211 215.195 69.1445C215.672 68.1602 216.355 67.4062 217.246 66.8828C218.137 66.3516 219.191 66.0859 220.41 66.0859C222.059 66.0859 223.367 66.543 224.336 67.457C225.305 68.3711 225.789 69.6094 225.789 71.1719H222.086C222.086 70.5156 221.926 70.0117 221.605 69.6602C221.285 69.3086 220.855 69.1328 220.316 69.1328C219.293 69.1328 218.695 69.7852 218.523 71.0898C218.469 71.5039 218.441 72.0742 218.441 72.8008C218.441 74.0742 218.594 74.957 218.898 75.4492C219.203 75.9414 219.688 76.1875 220.352 76.1875ZM233.594 79.2344C231.648 79.2344 230.074 78.6562 228.871 77.5C227.668 76.3359 227.066 74.8242 227.066 72.9648V72.6367C227.066 71.3398 227.305 70.1953 227.781 69.2031C228.266 68.2109 228.969 67.4453 229.891 66.9062C230.812 66.3594 231.906 66.0859 233.172 66.0859C234.953 66.0859 236.359 66.6406 237.391 67.75C238.422 68.8516 238.938 70.3906 238.938 72.3672V73.9023H231.086C231.227 74.6133 231.535 75.1719 232.012 75.5781C232.488 75.9844 233.105 76.1875 233.863 76.1875C235.113 76.1875 236.09 75.75 236.793 74.875L238.598 77.0078C238.105 77.6875 237.406 78.2305 236.5 78.6367C235.602 79.0352 234.633 79.2344 233.594 79.2344ZM233.148 69.1328C231.992 69.1328 231.305 69.8984 231.086 71.4297H235.07V71.125C235.086 70.4922 234.926 70.0039 234.59 69.6602C234.254 69.3086 233.773 69.1328 233.148 69.1328Z" fill="white"/>
</svg>
