<svg width="16" height="16" viewBox="0 0 16 16" fill="none" xmlns="http://www.w3.org/2000/svg">
<path d="M0.59191 1.92308H2.28871L4.70569 10.6636C4.77473 10.9201 5.0115 11.0977 5.27786 11.0977H12.7063C12.9431 11.0977 13.1503 10.9596 13.2489 10.7425L15.952 4.52748C16.0309 4.34006 16.0111 4.13289 15.9026 3.96517C15.7941 3.79745 15.6067 3.69881 15.4093 3.69881H7.20156C6.87601 3.69881 6.60965 3.96517 6.60965 4.29072C6.60965 4.61627 6.87601 4.88263 7.20156 4.88263H14.5018L12.3117 9.91387H5.72179L3.30484 1.17334C3.2358 0.916831 2.99904 0.739258 2.73268 0.739258H0.59191C0.26636 0.739258 0 1.00562 0 1.33117C0 1.65672 0.26636 1.92308 0.59191 1.92308Z" fill="white"/>
<path d="M4.71554 15.2607C5.45543 15.2607 6.0572 14.6589 6.0572 13.919C6.0572 13.1792 5.45543 12.5774 4.71554 12.5774C3.97565 12.5774 3.37389 13.1791 3.37389 13.919C3.37389 14.6589 3.97565 15.2607 4.71554 15.2607Z" fill="white"/>
<path d="M13.101 15.2608C13.1306 15.2608 13.17 15.2608 13.1996 15.2608C13.5547 15.2312 13.8803 15.0734 14.1171 14.7971C14.3538 14.5308 14.4624 14.1855 14.4426 13.8205C14.3933 13.0905 13.7521 12.5281 13.0122 12.5775C12.2723 12.6268 11.7198 13.2779 11.7692 14.0079C11.8185 14.7084 12.4005 15.2608 13.101 15.2608Z" fill="white"/>
</svg>
