<svg width="293" height="289" viewBox="0 0 293 289" fill="none" xmlns="http://www.w3.org/2000/svg">
<g clip-path="url(#clip0)">
<path d="M120.266 226.188V231.422H135.969C142.907 231.414 149.559 228.654 154.466 223.747C159.372 218.841 162.132 212.189 162.141 205.25V200.016H146.438C139.499 200.024 132.847 202.784 127.94 207.69C123.034 212.597 120.274 219.249 120.266 226.188ZM135.969 220.953H131.629C132.716 217.894 134.722 215.245 137.374 213.371C140.025 211.497 143.191 210.488 146.438 210.484H150.777C149.69 213.544 147.684 216.192 145.033 218.067C142.382 219.941 139.215 220.949 135.969 220.953Z" fill="#D52B2B"/>
<path d="M109.797 168.609H88.8594V95.3281C88.8596 94.2291 88.514 93.1579 87.8713 92.2663C87.2287 91.3747 86.3218 90.708 85.2791 90.3607L57.4531 81.0854V63.9219H46.9844V179.078C46.9955 188.792 50.8594 198.106 57.7284 204.975C64.5975 211.844 73.9107 215.708 83.625 215.719H88.8594C95.798 215.71 102.45 212.95 107.357 208.044C112.263 203.138 115.023 196.486 115.031 189.547V173.844C115.031 172.456 114.48 171.124 113.498 170.142C112.517 169.161 111.185 168.609 109.797 168.609ZM78.3906 204.727C72.4827 203.513 67.1742 200.298 63.3601 195.626C59.546 190.954 57.4598 185.109 57.4531 179.078H78.3906V204.727ZM78.3906 168.609H57.4531V151.446L78.3906 144.468V168.609ZM78.3906 133.429L57.4531 140.407V121.5H67.9219V111.031H57.4531V92.1194L78.3906 99.1021V133.429ZM104.562 189.547C104.562 193.712 102.908 197.706 99.9632 200.651C97.0183 203.596 93.0241 205.25 88.8594 205.25V179.078H104.562V189.547Z" fill="#D52B2B"/>
<path d="M125.5 -35.5312C94.4422 -35.5313 64.0818 -26.3215 38.2582 -9.06671C12.4345 8.18811 -7.69257 32.713 -19.5779 61.4068C-31.4632 90.1005 -34.573 121.674 -28.5139 152.135C-22.4548 182.596 -7.49901 210.577 14.4622 232.538C36.4234 254.499 64.4037 269.455 94.8648 275.514C125.326 281.573 156.9 278.463 185.593 266.578C214.287 254.693 238.812 234.566 256.067 208.742C273.322 182.918 282.531 152.558 282.531 121.5C282.484 79.8672 265.925 39.953 236.486 10.5142C207.047 -18.9247 167.133 -35.4841 125.5 -35.5312ZM125.5 268.063C96.5127 268.063 68.1764 259.467 44.0743 243.362C19.9722 227.258 1.18694 204.368 -9.90603 177.587C-20.999 150.806 -23.9014 121.337 -18.2463 92.9071C-12.5911 64.4767 1.36759 38.3618 21.8647 17.8647C42.3618 -2.63247 68.4768 -16.5912 96.9071 -22.2463C125.337 -27.9015 154.806 -24.9991 181.587 -13.9061C208.368 -2.81312 231.258 15.9722 247.362 40.0742C263.467 64.1763 272.063 92.5127 272.063 121.5C272.018 160.357 256.563 197.61 229.086 225.086C201.61 252.563 164.357 268.018 125.5 268.063Z" fill="#D52B2B"/>
<path d="M135.969 -8.90408C135.969 -8.90408 118.737 -9.1972 117.968 -9.12916C84.6366 -7.16961 53.3111 7.44154 30.39 31.7197C7.46889 55.9979 -5.31821 88.1112 -5.35938 121.5L-5.22852 126.734C-4.22725 151.93 4.0321 176.3 18.556 196.912C33.08 217.525 53.2499 233.502 76.6396 242.922C100.029 252.343 125.643 254.805 150.398 250.012C175.154 245.22 197.998 233.377 216.183 215.909C234.367 198.44 247.118 176.09 252.9 151.546C258.682 127.003 257.25 101.311 248.777 77.5623C240.303 53.8133 225.148 33.0182 205.135 17.6785C185.122 2.33884 161.104 -6.89217 135.969 -8.90408ZM117.308 1.41811C119.721 1.25584 122.145 1.15115 124.594 1.13022C123.506 4.18458 121.5 6.82781 118.851 8.69806C116.202 10.5683 113.039 11.5742 109.797 11.578H105.458C106.38 9.00077 107.958 6.70833 110.036 4.92671C112.114 3.1451 114.62 1.93582 117.308 1.41811ZM235.422 74.3905V72.4905C242.66 88.6738 246.235 106.256 245.891 123.981C245.547 141.706 241.293 159.136 233.432 175.027C225.571 190.917 214.298 204.875 200.418 215.904C186.538 226.933 170.393 234.76 153.138 238.826C135.882 242.893 117.941 243.098 100.597 239.427C83.2529 235.757 66.9334 228.301 52.8045 217.593C38.6757 206.884 27.0861 193.188 18.8639 177.481C10.6416 161.775 5.98962 144.447 5.24023 126.734H10.3438C17.2824 126.726 23.9345 123.966 28.8409 119.06C33.7473 114.153 36.5073 107.501 36.5156 100.562V95.328H20.8125C15.9994 95.3466 11.2867 96.7061 7.20312 99.2538C11.5321 76.4662 22.3342 55.4082 38.3174 38.5989C54.3005 21.7896 74.7879 9.9407 97.3286 4.46975C95.2371 8.24949 94.125 12.4927 94.0938 16.8124V22.0468H109.797C115.747 22.0381 121.516 20.0024 126.153 16.2753C130.791 12.5483 134.021 7.35222 135.309 1.54373C162.382 3.74336 187.907 15.0671 207.706 33.6619C204.79 32.912 201.792 32.5269 198.781 32.5155H83.625V42.9843H100.794L104.28 53.453H94.0938V63.9218H107.771L110.069 70.8102C110.416 71.8521 111.082 72.7584 111.973 73.401C112.863 74.0435 113.933 74.3897 115.031 74.3905H188.312V90.0937H183.078C173.364 90.1048 164.051 93.9687 157.182 100.838C150.312 107.707 146.449 117.02 146.438 126.734C146.438 128.123 146.989 129.454 147.971 130.436C148.952 131.417 150.284 131.969 151.672 131.969H162.141C170.944 131.958 179.449 128.779 186.101 123.012C192.752 117.245 197.105 109.276 198.362 100.562H209.25C216.189 100.554 222.841 97.7941 227.747 92.8877C232.654 87.9813 235.414 81.3292 235.422 74.3905ZM6.00445 116.266C7.09102 113.206 9.09745 110.558 11.7486 108.683C14.3997 106.809 17.5658 105.801 20.8125 105.797H25.1518C24.0652 108.856 22.0588 111.505 19.4077 113.379C16.7565 115.253 13.5905 116.262 10.3438 116.266H6.00445ZM188.312 42.9843V63.9218H164.172L171.149 42.9843H188.312ZM141.203 53.453V42.9843H160.11L153.132 63.9218H118.805L111.828 42.9843H130.734V53.453H141.203ZM187.789 100.562C186.575 106.47 183.361 111.779 178.689 115.593C174.017 119.407 168.172 121.493 162.141 121.5H157.43C158.644 115.592 161.858 110.283 166.53 106.469C171.202 102.655 177.047 100.569 183.078 100.562H187.789ZM209.25 90.0937H198.781V74.3905H224.953C224.953 78.5553 223.299 82.5494 220.354 85.4943C217.409 88.4392 213.415 90.0937 209.25 90.0937ZM224.43 63.9218H198.781V42.9843C204.813 42.9909 210.657 45.0772 215.329 48.8912C220.002 52.7053 223.216 58.0139 224.43 63.9218Z" fill="#D52B2B"/>
<path d="M204.016 179.078H214.484V189.547H204.016V179.078Z" fill="#D52B2B"/>
<path d="M123.966 123.034C122.985 122.052 121.653 121.501 120.265 121.501C118.878 121.501 117.546 122.052 116.565 123.034L100.862 138.737C99.8804 139.718 99.3291 141.05 99.3291 142.438C99.3291 143.826 99.8804 145.157 100.862 146.138L142.737 188.013C143.718 188.995 145.049 189.546 146.437 189.546C147.825 189.546 149.156 188.995 150.138 188.013L165.841 172.31C166.822 171.329 167.374 169.997 167.374 168.609C167.374 167.222 166.822 165.89 165.841 164.909L123.966 123.034ZM146.437 176.911L111.964 142.438L120.265 134.136L154.739 168.609L146.437 176.911Z" fill="#D52B2B"/>
<path d="M179.377 156.607L195.08 172.31C196.062 173.291 197.393 173.843 198.781 173.843C200.169 173.843 201.5 173.291 202.482 172.31L239.122 135.67C240.104 134.688 240.655 133.357 240.655 131.969C240.655 130.581 240.104 129.25 239.122 128.268L223.419 112.565C222.438 111.584 221.107 111.032 219.719 111.032C218.331 111.032 217 111.584 216.018 112.565L179.377 149.206C178.396 150.187 177.845 151.518 177.845 152.906C177.845 154.294 178.396 155.625 179.377 156.607ZM219.719 123.667L228.02 131.969L198.781 161.208L190.479 152.906L219.719 123.667Z" fill="#D52B2B"/>
<path d="M57.4531 37.75H67.9219V48.2188H57.4531V37.75Z" fill="#D52B2B"/>
<path d="M104.562 90.0938H115.031V100.562H104.562V90.0938Z" fill="#D52B2B"/>
<path d="M20.8125 142.438H31.2812V152.906H20.8125V142.438Z" fill="#D52B2B"/>
<path d="M172.609 189.547H183.078V200.016H172.609V189.547Z" fill="#D52B2B"/>
</g>
<defs>
<clipPath id="clip0">
<rect width="293" height="289" fill="white"/>
</clipPath>
</defs>
</svg>
