<svg width="129" height="46" viewBox="0 0 129 46" fill="none" xmlns="http://www.w3.org/2000/svg">
<g filter="url(#filter0_d)">
<path d="M33.184 30.3244C31.8909 29.9123 33.184 25.625 26.7573 18.7565C26.2531 18.2177 40.478 11.165 40.7449 12.611C41.8791 18.7565 35.4523 31.0474 33.184 30.3244Z" fill="#FC2C2C"/>
<path d="M33.184 30.3244C31.8909 29.9123 33.184 25.625 26.7573 18.7565C26.2531 18.2177 40.478 11.165 40.7449 12.611C41.8791 18.7565 35.4523 31.0474 33.184 30.3244Z" fill="url(#paint0_linear)"/>
<path d="M33.184 30.3244C31.8909 29.9123 33.184 25.625 26.7573 18.7565C26.2531 18.2177 40.478 11.165 40.7449 12.611C41.8791 18.7565 35.4523 31.0474 33.184 30.3244Z" stroke="#B52A2A"/>
<path d="M33.184 30.3244C31.8909 29.9123 33.184 25.625 26.7573 18.7565C26.2531 18.2177 40.478 11.165 40.7449 12.611C41.8791 18.7565 35.4523 31.0474 33.184 30.3244Z" stroke="url(#paint1_linear)"/>
</g>
<path d="M47.323 17.564V4.78396H50.833V14.504H56.629V17.564H47.323ZM58.1043 17.564V7.33996H61.1643V17.564H58.1043ZM63.5092 17.564V7.33996H68.4592C69.0112 7.33996 69.5212 7.44796 69.9892 7.66396C70.4692 7.86796 70.8772 8.13796 71.2132 8.47396C71.5612 8.80996 71.8312 9.19396 72.0232 9.62596C72.2152 10.046 72.3112 10.478 72.3112 10.922C72.3112 11.378 72.2212 11.822 72.0412 12.254C71.8612 12.686 71.6032 13.07 71.2672 13.406C70.9432 13.742 70.5472 14.012 70.0792 14.216C69.6112 14.42 69.0952 14.522 68.5312 14.522H66.5692V17.564H63.5092ZM66.5692 11.84H68.3332C68.5492 11.84 68.7472 11.786 68.9272 11.678C69.1072 11.558 69.1972 11.306 69.1972 10.922C69.1972 10.73 69.1672 10.574 69.1072 10.454C69.0472 10.334 68.9692 10.244 68.8732 10.184C68.7892 10.112 68.6932 10.064 68.5852 10.04C68.4772 10.016 68.3692 10.004 68.2612 10.004H66.5692V11.84ZM73.9415 17.564V7.33996H77.0015V17.564H73.9415ZM82.4064 13.01V17.564H79.3464V7.33996H81.7404L86.4924 12.056V7.33996H89.5524V17.564H87.1224L82.4064 13.01ZM98.584 10.886C98.548 10.862 98.434 10.802 98.242 10.706C98.062 10.598 97.834 10.49 97.558 10.382C97.294 10.274 96.994 10.178 96.658 10.094C96.334 10.01 96.01 9.96796 95.686 9.96796C95.422 9.96796 95.212 9.99196 95.056 10.04C94.9 10.076 94.822 10.154 94.822 10.274C94.822 10.49 95.002 10.646 95.362 10.742C95.722 10.838 96.22 10.982 96.856 11.174C97.36 11.318 97.816 11.48 98.224 11.66C98.644 11.828 98.998 12.038 99.286 12.29C99.574 12.53 99.796 12.818 99.952 13.154C100.108 13.49 100.186 13.898 100.186 14.378C100.186 15.014 100.06 15.548 99.808 15.98C99.568 16.4 99.25 16.742 98.854 17.006C98.458 17.258 98.008 17.438 97.504 17.546C97 17.654 96.49 17.708 95.974 17.708C95.578 17.708 95.164 17.678 94.732 17.618C94.3 17.558 93.874 17.48 93.454 17.384C93.046 17.276 92.644 17.15 92.248 17.006C91.852 16.862 91.492 16.706 91.168 16.538L92.5 13.856C92.548 13.916 92.68 14.006 92.896 14.126C93.112 14.246 93.382 14.366 93.706 14.486C94.03 14.606 94.39 14.714 94.786 14.81C95.194 14.894 95.608 14.936 96.028 14.936C96.34 14.936 96.556 14.912 96.676 14.864C96.808 14.804 96.874 14.738 96.874 14.666C96.874 14.546 96.808 14.45 96.676 14.378C96.544 14.294 96.364 14.216 96.136 14.144C95.92 14.072 95.662 14.006 95.362 13.946C95.074 13.874 94.768 13.784 94.444 13.676C93.472 13.364 92.764 12.986 92.32 12.542C91.876 12.086 91.654 11.468 91.654 10.688C91.654 10.136 91.768 9.64396 91.996 9.21196C92.224 8.77996 92.524 8.41996 92.896 8.13196C93.28 7.84396 93.718 7.62796 94.21 7.48396C94.714 7.32796 95.236 7.24996 95.776 7.24996C96.172 7.24996 96.562 7.28596 96.946 7.35796C97.342 7.42996 97.714 7.51996 98.062 7.62796C98.422 7.73596 98.752 7.85596 99.052 7.98796C99.364 8.11996 99.646 8.23996 99.898 8.34796L98.584 10.886ZM101.986 17.564V7.33996H105.046V11.264L108.988 7.33996H112.138L107.944 11.93L112.426 17.564H109.222L106.126 13.64L105.046 14.54V17.564H101.986ZM113.526 17.564V7.33996H116.586V17.564H113.526ZM127.103 14.9V17.564H118.931V7.33996H126.959V10.004H121.991V11.12H126.239V13.604H121.991V14.9H127.103ZM47.899 32.564V19.784H53.209C53.749 19.784 54.247 19.898 54.703 20.126C55.159 20.354 55.549 20.66 55.873 21.044C56.209 21.416 56.467 21.842 56.647 22.322C56.839 22.79 56.935 23.264 56.935 23.744C56.935 24.212 56.863 24.668 56.719 25.112C56.575 25.544 56.371 25.934 56.107 26.282C55.843 26.63 55.525 26.918 55.153 27.146C54.781 27.374 54.373 27.524 53.929 27.596L57.115 32.564H56.053L52.957 27.74H48.817V32.564H47.899ZM48.817 26.894H53.299C53.707 26.894 54.079 26.804 54.415 26.624C54.751 26.444 55.039 26.21 55.279 25.922C55.519 25.622 55.699 25.286 55.819 24.914C55.951 24.53 56.017 24.14 56.017 23.744C56.017 23.336 55.939 22.946 55.783 22.574C55.639 22.19 55.435 21.854 55.171 21.566C54.919 21.278 54.619 21.05 54.271 20.882C53.935 20.702 53.569 20.612 53.173 20.612H48.817V26.894ZM65.0424 32.744C64.6104 32.744 64.2084 32.672 63.8364 32.528C63.4644 32.372 63.1344 32.168 62.8464 31.916C62.5704 31.652 62.3544 31.346 62.1984 30.998C62.0424 30.638 61.9644 30.254 61.9644 29.846C61.9644 29.438 62.0604 29.066 62.2524 28.73C62.4444 28.394 62.7084 28.106 63.0444 27.866C63.3924 27.614 63.8064 27.422 64.2864 27.29C64.7664 27.146 65.2944 27.074 65.8704 27.074C66.3744 27.074 66.8784 27.122 67.3824 27.218C67.8984 27.302 68.3604 27.422 68.7684 27.578V26.66C68.7684 25.772 68.5164 25.07 68.0124 24.554C67.5084 24.026 66.8244 23.762 65.9604 23.762C65.5044 23.762 65.0184 23.858 64.5024 24.05C63.9984 24.242 63.4824 24.518 62.9544 24.878L62.6124 24.266C63.8124 23.45 64.9524 23.042 66.0324 23.042C67.1604 23.042 68.0484 23.372 68.6964 24.032C69.3444 24.68 69.6684 25.58 69.6684 26.732V31.304C69.6684 31.604 69.8004 31.754 70.0644 31.754V32.564C70.0044 32.576 69.9384 32.582 69.8664 32.582C69.8064 32.594 69.7524 32.6 69.7044 32.6C69.4644 32.6 69.2724 32.522 69.1284 32.366C68.9844 32.198 68.9004 32 68.8764 31.772V30.998C68.4444 31.562 67.8924 31.994 67.2204 32.294C66.5484 32.594 65.8224 32.744 65.0424 32.744ZM65.2224 32.024C65.9184 32.024 66.5544 31.892 67.1304 31.628C67.7184 31.364 68.1684 31.016 68.4804 30.584C68.6724 30.332 68.7684 30.092 68.7684 29.864V28.208C68.3364 28.04 67.8864 27.914 67.4184 27.83C66.9504 27.746 66.4644 27.704 65.9604 27.704C65.4924 27.704 65.0664 27.758 64.6824 27.866C64.2984 27.962 63.9684 28.1 63.6924 28.28C63.4164 28.46 63.2004 28.682 63.0444 28.946C62.9004 29.198 62.8284 29.48 62.8284 29.792C62.8284 30.104 62.8884 30.398 63.0084 30.674C63.1284 30.95 63.2964 31.19 63.5124 31.394C63.7284 31.586 63.9804 31.742 64.2684 31.862C64.5684 31.97 64.8864 32.024 65.2224 32.024ZM82.5944 32.564L78.9404 27.56L76.7264 29.594V32.564H75.8264V19.424H76.7264V28.604L82.4144 23.222H83.4584L79.5524 27.02L83.5844 32.564H82.5944ZM88.6507 32.564V23.204H89.5507V32.564H88.6507ZM88.6507 21.08V19.424H89.5507V21.08H88.6507Z" fill="white"/>
<path d="M99.9062 24.3293C99.9062 24.0733 99.9502 23.8193 100.038 23.5673C100.13 23.3113 100.262 23.0833 100.434 22.8833C100.606 22.6833 100.816 22.5213 101.064 22.3973C101.316 22.2693 101.602 22.2053 101.922 22.2053C102.302 22.2053 102.626 22.2933 102.894 22.4693C103.162 22.6413 103.362 22.8633 103.494 23.1353L103.242 23.2793C103.166 23.1313 103.076 23.0073 102.972 22.9073C102.872 22.8073 102.762 22.7273 102.642 22.6673C102.526 22.6033 102.404 22.5573 102.276 22.5293C102.148 22.5013 102.022 22.4873 101.898 22.4873C101.626 22.4873 101.386 22.5433 101.178 22.6553C100.97 22.7633 100.794 22.9053 100.65 23.0813C100.506 23.2573 100.396 23.4573 100.32 23.6813C100.248 23.9013 100.212 24.1233 100.212 24.3473C100.212 24.5993 100.256 24.8393 100.344 25.0673C100.432 25.2953 100.552 25.4973 100.704 25.6733C100.856 25.8453 101.036 25.9833 101.244 26.0873C101.452 26.1913 101.676 26.2433 101.916 26.2433C102.044 26.2433 102.176 26.2273 102.312 26.1953C102.448 26.1633 102.578 26.1133 102.702 26.0453C102.826 25.9773 102.942 25.8913 103.05 25.7873C103.158 25.6793 103.248 25.5533 103.32 25.4093L103.584 25.5353C103.512 25.6953 103.414 25.8373 103.29 25.9613C103.166 26.0853 103.028 26.1893 102.876 26.2733C102.724 26.3573 102.562 26.4213 102.39 26.4653C102.222 26.5053 102.056 26.5253 101.892 26.5253C101.6 26.5253 101.332 26.4613 101.088 26.3333C100.848 26.2053 100.64 26.0393 100.464 25.8353C100.288 25.6273 100.15 25.3933 100.05 25.1333C99.9542 24.8693 99.9062 24.6013 99.9062 24.3293ZM105.729 23.6393C105.449 23.6473 105.203 23.7313 104.991 23.8913C104.783 24.0473 104.637 24.2633 104.553 24.5393V26.4893H104.253V23.3693H104.541V24.1373C104.649 23.9173 104.791 23.7393 104.967 23.6033C105.147 23.4633 105.339 23.3833 105.543 23.3633C105.583 23.3593 105.619 23.3573 105.651 23.3573C105.683 23.3573 105.709 23.3573 105.729 23.3573V23.6393ZM107.025 26.5493C106.881 26.5493 106.747 26.5253 106.623 26.4773C106.499 26.4253 106.389 26.3573 106.293 26.2733C106.201 26.1853 106.129 26.0833 106.077 25.9673C106.025 25.8473 105.999 25.7193 105.999 25.5833C105.999 25.4473 106.031 25.3233 106.095 25.2113C106.159 25.0993 106.247 25.0033 106.359 24.9233C106.475 24.8393 106.613 24.7753 106.773 24.7313C106.933 24.6833 107.109 24.6593 107.301 24.6593C107.469 24.6593 107.637 24.6753 107.805 24.7073C107.977 24.7353 108.131 24.7753 108.267 24.8273V24.5213C108.267 24.2253 108.183 23.9913 108.015 23.8193C107.847 23.6433 107.619 23.5553 107.331 23.5553C107.179 23.5553 107.017 23.5873 106.845 23.6513C106.677 23.7153 106.505 23.8073 106.329 23.9273L106.215 23.7233C106.615 23.4513 106.995 23.3153 107.355 23.3153C107.731 23.3153 108.027 23.4253 108.243 23.6453C108.459 23.8613 108.567 24.1613 108.567 24.5453V26.0693C108.567 26.1693 108.611 26.2193 108.699 26.2193V26.4893C108.679 26.4933 108.657 26.4953 108.633 26.4953C108.613 26.4993 108.595 26.5013 108.579 26.5013C108.499 26.5013 108.435 26.4753 108.387 26.4233C108.339 26.3673 108.311 26.3013 108.303 26.2253V25.9673C108.159 26.1553 107.975 26.2993 107.751 26.3993C107.527 26.4993 107.285 26.5493 107.025 26.5493ZM107.085 26.3093C107.317 26.3093 107.529 26.2653 107.721 26.1773C107.917 26.0893 108.067 25.9733 108.171 25.8293C108.235 25.7453 108.267 25.6653 108.267 25.5893V25.0373C108.123 24.9813 107.973 24.9393 107.817 24.9113C107.661 24.8833 107.499 24.8693 107.331 24.8693C107.175 24.8693 107.033 24.8873 106.905 24.9233C106.777 24.9553 106.667 25.0013 106.575 25.0613C106.483 25.1213 106.411 25.1953 106.359 25.2833C106.311 25.3673 106.287 25.4613 106.287 25.5653C106.287 25.6693 106.307 25.7673 106.347 25.8593C106.387 25.9513 106.443 26.0313 106.515 26.0993C106.587 26.1633 106.671 26.2153 106.767 26.2553C106.867 26.2913 106.973 26.3093 107.085 26.3093ZM109.613 27.5453C109.633 27.5493 109.663 27.5513 109.703 27.5513C109.743 27.5513 109.779 27.5493 109.811 27.5453C109.847 27.5413 109.881 27.5313 109.913 27.5153C109.937 27.5033 109.959 27.4853 109.979 27.4613C109.999 27.4413 110.027 27.3973 110.063 27.3293C110.099 27.2613 110.145 27.1613 110.201 27.0293C110.257 26.8973 110.333 26.7173 110.429 26.4893L109.037 23.3693H109.349L110.591 26.1953L111.749 23.3693H112.043L110.333 27.4733C110.289 27.5853 110.217 27.6713 110.117 27.7313C110.021 27.7953 109.889 27.8273 109.721 27.8273C109.705 27.8273 109.687 27.8273 109.667 27.8273C109.651 27.8273 109.633 27.8253 109.613 27.8213V27.5453ZM112.781 23.6153H112.343V23.3693H112.781V23.2673C112.781 23.1313 112.801 22.9913 112.841 22.8473C112.881 22.6993 112.943 22.5673 113.027 22.4513C113.111 22.3353 113.219 22.2393 113.351 22.1633C113.487 22.0873 113.649 22.0493 113.837 22.0493C113.945 22.0493 114.045 22.0593 114.137 22.0793C114.233 22.0993 114.317 22.1233 114.389 22.1513C114.461 22.1753 114.521 22.2033 114.569 22.2353C114.617 22.2633 114.651 22.2853 114.671 22.3013L114.521 22.5113C114.465 22.4593 114.377 22.4153 114.257 22.3793C114.137 22.3393 114.001 22.3193 113.849 22.3193C113.713 22.3193 113.595 22.3493 113.495 22.4093C113.399 22.4653 113.319 22.5393 113.255 22.6313C113.195 22.7193 113.151 22.8193 113.123 22.9313C113.095 23.0433 113.081 23.1533 113.081 23.2613V23.3693H114.611V26.4893H114.311V23.6153H113.081V26.4893H112.781V23.6153ZM116.54 26.5493C116.3 26.5493 116.07 26.5093 115.85 26.4293C115.63 26.3493 115.438 26.2293 115.274 26.0693L115.424 25.8653C115.592 26.0173 115.766 26.1293 115.946 26.2013C116.126 26.2733 116.324 26.3093 116.54 26.3093C116.812 26.3093 117.03 26.2533 117.194 26.1413C117.362 26.0253 117.446 25.8653 117.446 25.6613C117.446 25.5653 117.424 25.4853 117.38 25.4213C117.34 25.3533 117.278 25.2973 117.194 25.2533C117.11 25.2053 117.006 25.1633 116.882 25.1273C116.758 25.0913 116.614 25.0533 116.45 25.0133C116.274 24.9733 116.12 24.9333 115.988 24.8933C115.86 24.8533 115.754 24.8053 115.67 24.7493C115.586 24.6933 115.522 24.6253 115.478 24.5453C115.438 24.4653 115.418 24.3633 115.418 24.2393C115.418 24.0833 115.448 23.9473 115.508 23.8313C115.568 23.7153 115.65 23.6193 115.754 23.5433C115.862 23.4673 115.984 23.4113 116.12 23.3753C116.26 23.3353 116.408 23.3153 116.564 23.3153C116.808 23.3153 117.024 23.3573 117.212 23.4413C117.4 23.5213 117.546 23.6253 117.65 23.7533L117.482 23.9153C117.378 23.7953 117.242 23.7053 117.074 23.6453C116.91 23.5853 116.734 23.5553 116.546 23.5553C116.43 23.5553 116.32 23.5673 116.216 23.5913C116.116 23.6153 116.028 23.6533 115.952 23.7053C115.876 23.7573 115.816 23.8253 115.772 23.9093C115.728 23.9893 115.706 24.0853 115.706 24.1973C115.706 24.2893 115.72 24.3633 115.748 24.4193C115.78 24.4753 115.828 24.5233 115.892 24.5633C115.96 24.6033 116.046 24.6393 116.15 24.6713C116.254 24.6993 116.378 24.7313 116.522 24.7673C116.718 24.8153 116.892 24.8613 117.044 24.9053C117.196 24.9493 117.322 25.0033 117.422 25.0673C117.526 25.1313 117.604 25.2073 117.656 25.2953C117.712 25.3833 117.74 25.4953 117.74 25.6313C117.74 25.9113 117.63 26.1353 117.41 26.3033C117.194 26.4673 116.904 26.5493 116.54 26.5493ZM120.988 26.4893H120.688V24.7493C120.688 23.9773 120.43 23.5913 119.914 23.5913C119.786 23.5913 119.66 23.6153 119.536 23.6633C119.416 23.7113 119.302 23.7793 119.194 23.8673C119.09 23.9553 118.998 24.0593 118.918 24.1793C118.838 24.2953 118.778 24.4213 118.738 24.5573V26.4893H118.438V22.1093H118.738V24.1133C118.866 23.8693 119.042 23.6753 119.266 23.5313C119.494 23.3873 119.738 23.3153 119.998 23.3153C120.17 23.3153 120.318 23.3473 120.442 23.4113C120.566 23.4753 120.668 23.5673 120.748 23.6873C120.832 23.8073 120.892 23.9533 120.928 24.1253C120.968 24.2933 120.988 24.4833 120.988 24.6953V26.4893ZM126.454 26.4893L125.908 25.9193C125.744 26.1113 125.552 26.2653 125.332 26.3813C125.112 26.4933 124.868 26.5493 124.6 26.5493C124.424 26.5493 124.254 26.5233 124.09 26.4713C123.93 26.4193 123.788 26.3453 123.664 26.2493C123.54 26.1493 123.442 26.0313 123.37 25.8953C123.298 25.7553 123.262 25.5973 123.262 25.4213C123.262 25.2773 123.286 25.1453 123.334 25.0253C123.386 24.9013 123.454 24.7893 123.538 24.6893C123.626 24.5853 123.726 24.4873 123.838 24.3953C123.954 24.3033 124.076 24.2153 124.204 24.1313C124.092 24.0113 123.996 23.9033 123.916 23.8073C123.84 23.7073 123.778 23.6173 123.73 23.5373C123.682 23.4573 123.646 23.3813 123.622 23.3093C123.602 23.2333 123.592 23.1593 123.592 23.0873C123.592 22.9633 123.618 22.8473 123.67 22.7393C123.726 22.6273 123.8 22.5293 123.892 22.4453C123.984 22.3613 124.094 22.2953 124.222 22.2473C124.35 22.1993 124.488 22.1753 124.636 22.1753C124.772 22.1753 124.898 22.1973 125.014 22.2413C125.13 22.2813 125.23 22.3373 125.314 22.4093C125.402 22.4813 125.47 22.5673 125.518 22.6673C125.566 22.7673 125.59 22.8753 125.59 22.9913C125.59 23.1113 125.564 23.2253 125.512 23.3333C125.46 23.4373 125.388 23.5373 125.296 23.6333C125.208 23.7253 125.104 23.8153 124.984 23.9033C124.868 23.9873 124.746 24.0733 124.618 24.1613L125.902 25.4933C125.99 25.3373 126.058 25.1673 126.106 24.9833C126.154 24.7953 126.178 24.6013 126.178 24.4013H126.442C126.434 24.8813 126.314 25.3093 126.082 25.6853L126.856 26.4893H126.454ZM124.636 26.3033C124.864 26.3033 125.07 26.2533 125.254 26.1533C125.438 26.0493 125.598 25.9113 125.734 25.7393L124.378 24.3173C124.262 24.3973 124.154 24.4773 124.054 24.5573C123.958 24.6373 123.872 24.7233 123.796 24.8153C123.72 24.9033 123.66 24.9993 123.616 25.1033C123.576 25.2033 123.556 25.3133 123.556 25.4333C123.556 25.5773 123.588 25.7033 123.652 25.8113C123.716 25.9193 123.798 26.0113 123.898 26.0873C124.002 26.1593 124.118 26.2133 124.246 26.2493C124.378 26.2853 124.508 26.3033 124.636 26.3033ZM123.874 23.0813C123.874 23.1333 123.88 23.1853 123.892 23.2373C123.908 23.2893 123.936 23.3493 123.976 23.4173C124.02 23.4853 124.078 23.5653 124.15 23.6573C124.226 23.7453 124.322 23.8513 124.438 23.9753C124.702 23.8033 124.914 23.6453 125.074 23.5013C125.234 23.3533 125.314 23.1873 125.314 23.0033C125.314 22.8353 125.25 22.6973 125.122 22.5893C124.994 22.4773 124.83 22.4213 124.63 22.4213C124.522 22.4213 124.422 22.4393 124.33 22.4753C124.238 22.5113 124.158 22.5593 124.09 22.6193C124.022 22.6793 123.968 22.7493 123.928 22.8293C123.892 22.9093 123.874 22.9933 123.874 23.0813ZM99.4971 32.4893V28.2293H100.913C101.249 28.2293 101.543 28.2853 101.795 28.3973C102.051 28.5093 102.263 28.6613 102.431 28.8533C102.599 29.0453 102.725 29.2713 102.809 29.5313C102.893 29.7873 102.935 30.0613 102.935 30.3533C102.935 30.6773 102.887 30.9713 102.791 31.2353C102.699 31.4953 102.565 31.7193 102.389 31.9073C102.213 32.0913 101.999 32.2353 101.747 32.3393C101.499 32.4393 101.221 32.4893 100.913 32.4893H99.4971ZM102.629 30.3533C102.629 30.0853 102.591 29.8393 102.515 29.6153C102.439 29.3873 102.327 29.1913 102.179 29.0273C102.035 28.8633 101.857 28.7353 101.645 28.6433C101.433 28.5513 101.189 28.5053 100.913 28.5053H99.8031V32.2133H100.913C101.193 32.2133 101.439 32.1673 101.651 32.0753C101.867 31.9793 102.047 31.8473 102.191 31.6793C102.335 31.5113 102.443 31.3153 102.515 31.0913C102.591 30.8633 102.629 30.6173 102.629 30.3533ZM105.01 32.5493C104.79 32.5493 104.586 32.5073 104.398 32.4233C104.21 32.3353 104.046 32.2173 103.906 32.0693C103.77 31.9173 103.662 31.7433 103.582 31.5473C103.506 31.3513 103.468 31.1413 103.468 30.9173C103.468 30.6973 103.506 30.4913 103.582 30.2993C103.662 30.1033 103.77 29.9333 103.906 29.7893C104.042 29.6413 104.202 29.5253 104.386 29.4413C104.574 29.3573 104.776 29.3153 104.992 29.3153C105.212 29.3153 105.416 29.3593 105.604 29.4473C105.792 29.5313 105.954 29.6473 106.09 29.7953C106.226 29.9393 106.332 30.1093 106.408 30.3053C106.484 30.4973 106.522 30.7013 106.522 30.9173C106.522 30.9373 106.522 30.9633 106.522 30.9953C106.522 31.0233 106.52 31.0413 106.516 31.0493H103.78C103.792 31.2293 103.834 31.3973 103.906 31.5533C103.978 31.7053 104.068 31.8373 104.176 31.9493C104.288 32.0613 104.416 32.1493 104.56 32.2133C104.704 32.2773 104.858 32.3093 105.022 32.3093C105.13 32.3093 105.236 32.2953 105.34 32.2673C105.444 32.2353 105.54 32.1933 105.628 32.1413C105.72 32.0893 105.8 32.0273 105.868 31.9553C105.94 31.8793 105.996 31.7973 106.036 31.7093L106.3 31.7813C106.256 31.8933 106.19 31.9973 106.102 32.0933C106.018 32.1853 105.918 32.2653 105.802 32.3333C105.69 32.4013 105.566 32.4533 105.43 32.4893C105.294 32.5293 105.154 32.5493 105.01 32.5493ZM106.234 30.8093C106.222 30.6253 106.18 30.4573 106.108 30.3053C106.04 30.1533 105.95 30.0233 105.838 29.9153C105.73 29.8033 105.604 29.7173 105.46 29.6573C105.316 29.5933 105.162 29.5613 104.998 29.5613C104.834 29.5613 104.68 29.5933 104.536 29.6573C104.392 29.7173 104.264 29.8033 104.152 29.9153C104.044 30.0233 103.956 30.1553 103.888 30.3113C103.824 30.4633 103.786 30.6293 103.774 30.8093H106.234ZM107.206 28.1093H107.512V31.8713C107.512 31.9873 107.544 32.0793 107.608 32.1473C107.676 32.2153 107.768 32.2493 107.884 32.2493C107.928 32.2493 107.98 32.2453 108.04 32.2373C108.104 32.2253 108.162 32.2093 108.214 32.1893L108.274 32.4293C108.206 32.4573 108.122 32.4793 108.022 32.4953C107.922 32.5153 107.836 32.5253 107.764 32.5253C107.596 32.5253 107.46 32.4753 107.356 32.3753C107.256 32.2713 107.206 32.1333 107.206 31.9613V28.1093ZM108.735 32.4893V29.3693H109.035V32.4893H108.735ZM108.735 28.6613V28.1093H109.035V28.6613H108.735ZM109.761 30.9173C109.761 30.6973 109.799 30.4893 109.875 30.2933C109.951 30.0973 110.057 29.9273 110.193 29.7833C110.329 29.6393 110.491 29.5253 110.679 29.4413C110.867 29.3573 111.073 29.3153 111.297 29.3153C111.581 29.3153 111.831 29.3793 112.047 29.5073C112.263 29.6353 112.425 29.8133 112.533 30.0413L112.239 30.1373C112.147 29.9653 112.015 29.8313 111.843 29.7353C111.675 29.6353 111.489 29.5853 111.285 29.5853C111.113 29.5853 110.953 29.6193 110.805 29.6873C110.657 29.7553 110.527 29.8493 110.415 29.9693C110.307 30.0893 110.221 30.2313 110.157 30.3953C110.093 30.5553 110.061 30.7293 110.061 30.9173C110.061 31.1053 110.093 31.2833 110.157 31.4513C110.225 31.6153 110.313 31.7593 110.421 31.8833C110.533 32.0033 110.663 32.0993 110.811 32.1713C110.963 32.2433 111.123 32.2793 111.291 32.2793C111.399 32.2793 111.505 32.2633 111.609 32.2313C111.717 32.1993 111.815 32.1573 111.903 32.1053C111.995 32.0533 112.073 31.9933 112.137 31.9253C112.205 31.8533 112.251 31.7793 112.275 31.7033L112.569 31.7873C112.529 31.8953 112.467 31.9973 112.383 32.0933C112.303 32.1853 112.207 32.2653 112.095 32.3333C111.983 32.4013 111.859 32.4533 111.723 32.4893C111.587 32.5293 111.447 32.5493 111.303 32.5493C111.083 32.5493 110.879 32.5073 110.691 32.4233C110.503 32.3353 110.339 32.2173 110.199 32.0693C110.063 31.9173 109.955 31.7433 109.875 31.5473C109.799 31.3513 109.761 31.1413 109.761 30.9173ZM114.015 32.5493C113.871 32.5493 113.737 32.5253 113.613 32.4773C113.489 32.4253 113.379 32.3573 113.283 32.2733C113.191 32.1853 113.119 32.0833 113.067 31.9673C113.015 31.8473 112.989 31.7193 112.989 31.5833C112.989 31.4473 113.021 31.3233 113.085 31.2113C113.149 31.0993 113.237 31.0033 113.349 30.9233C113.465 30.8393 113.603 30.7753 113.763 30.7313C113.923 30.6833 114.099 30.6593 114.291 30.6593C114.459 30.6593 114.627 30.6753 114.795 30.7073C114.967 30.7353 115.121 30.7753 115.257 30.8273V30.5213C115.257 30.2253 115.173 29.9913 115.005 29.8193C114.837 29.6433 114.609 29.5553 114.321 29.5553C114.169 29.5553 114.007 29.5873 113.835 29.6513C113.667 29.7153 113.495 29.8073 113.319 29.9273L113.205 29.7233C113.605 29.4513 113.985 29.3153 114.345 29.3153C114.721 29.3153 115.017 29.4253 115.233 29.6453C115.449 29.8613 115.557 30.1613 115.557 30.5453V32.0693C115.557 32.1693 115.601 32.2193 115.689 32.2193V32.4893C115.669 32.4933 115.647 32.4953 115.623 32.4953C115.603 32.4993 115.585 32.5013 115.569 32.5013C115.489 32.5013 115.425 32.4753 115.377 32.4233C115.329 32.3673 115.301 32.3013 115.293 32.2253V31.9673C115.149 32.1553 114.965 32.2993 114.741 32.3993C114.517 32.4993 114.275 32.5493 114.015 32.5493ZM114.075 32.3093C114.307 32.3093 114.519 32.2653 114.711 32.1773C114.907 32.0893 115.057 31.9733 115.161 31.8293C115.225 31.7453 115.257 31.6653 115.257 31.5893V31.0373C115.113 30.9813 114.963 30.9393 114.807 30.9113C114.651 30.8833 114.489 30.8693 114.321 30.8693C114.165 30.8693 114.023 30.8873 113.895 30.9233C113.767 30.9553 113.657 31.0013 113.565 31.0613C113.473 31.1213 113.401 31.1953 113.349 31.2833C113.301 31.3673 113.277 31.4613 113.277 31.5653C113.277 31.6693 113.297 31.7673 113.337 31.8593C113.377 31.9513 113.433 32.0313 113.505 32.0993C113.577 32.1633 113.661 32.2153 113.757 32.2553C113.857 32.2913 113.963 32.3093 114.075 32.3093ZM116.254 30.9173C116.254 30.6973 116.292 30.4893 116.368 30.2933C116.444 30.0973 116.55 29.9273 116.686 29.7833C116.822 29.6393 116.984 29.5253 117.172 29.4413C117.36 29.3573 117.566 29.3153 117.79 29.3153C118.074 29.3153 118.324 29.3793 118.54 29.5073C118.756 29.6353 118.918 29.8133 119.026 30.0413L118.732 30.1373C118.64 29.9653 118.508 29.8313 118.336 29.7353C118.168 29.6353 117.982 29.5853 117.778 29.5853C117.606 29.5853 117.446 29.6193 117.298 29.6873C117.15 29.7553 117.02 29.8493 116.908 29.9693C116.8 30.0893 116.714 30.2313 116.65 30.3953C116.586 30.5553 116.554 30.7293 116.554 30.9173C116.554 31.1053 116.586 31.2833 116.65 31.4513C116.718 31.6153 116.806 31.7593 116.914 31.8833C117.026 32.0033 117.156 32.0993 117.304 32.1713C117.456 32.2433 117.616 32.2793 117.784 32.2793C117.892 32.2793 117.998 32.2633 118.102 32.2313C118.21 32.1993 118.308 32.1573 118.396 32.1053C118.488 32.0533 118.566 31.9933 118.63 31.9253C118.698 31.8533 118.744 31.7793 118.768 31.7033L119.062 31.7873C119.022 31.8953 118.96 31.9973 118.876 32.0933C118.796 32.1853 118.7 32.2653 118.588 32.3333C118.476 32.4013 118.352 32.4533 118.216 32.4893C118.08 32.5293 117.94 32.5493 117.796 32.5493C117.576 32.5493 117.372 32.5073 117.184 32.4233C116.996 32.3353 116.832 32.2173 116.692 32.0693C116.556 31.9173 116.448 31.7433 116.368 31.5473C116.292 31.3513 116.254 31.1413 116.254 30.9173ZM119.739 32.4893V29.3693H120.039V32.4893H119.739ZM119.739 28.6613V28.1093H120.039V28.6613H119.739ZM122.307 32.5493C122.087 32.5493 121.883 32.5073 121.695 32.4233C121.507 32.3353 121.343 32.2173 121.203 32.0693C121.067 31.9173 120.959 31.7433 120.879 31.5473C120.803 31.3513 120.765 31.1413 120.765 30.9173C120.765 30.6973 120.803 30.4913 120.879 30.2993C120.959 30.1033 121.067 29.9333 121.203 29.7893C121.339 29.6413 121.499 29.5253 121.683 29.4413C121.871 29.3573 122.073 29.3153 122.289 29.3153C122.509 29.3153 122.713 29.3593 122.901 29.4473C123.089 29.5313 123.251 29.6473 123.387 29.7953C123.523 29.9393 123.629 30.1093 123.705 30.3053C123.781 30.4973 123.819 30.7013 123.819 30.9173C123.819 30.9373 123.819 30.9633 123.819 30.9953C123.819 31.0233 123.817 31.0413 123.813 31.0493H121.077C121.089 31.2293 121.131 31.3973 121.203 31.5533C121.275 31.7053 121.365 31.8373 121.473 31.9493C121.585 32.0613 121.713 32.1493 121.857 32.2133C122.001 32.2773 122.155 32.3093 122.319 32.3093C122.427 32.3093 122.533 32.2953 122.637 32.2673C122.741 32.2353 122.837 32.1933 122.925 32.1413C123.017 32.0893 123.097 32.0273 123.165 31.9553C123.237 31.8793 123.293 31.7973 123.333 31.7093L123.597 31.7813C123.553 31.8933 123.487 31.9973 123.399 32.0933C123.315 32.1853 123.215 32.2653 123.099 32.3333C122.987 32.4013 122.863 32.4533 122.727 32.4893C122.591 32.5293 122.451 32.5493 122.307 32.5493ZM123.531 30.8093C123.519 30.6253 123.477 30.4573 123.405 30.3053C123.337 30.1533 123.247 30.0233 123.135 29.9153C123.027 29.8033 122.901 29.7173 122.757 29.6573C122.613 29.5933 122.459 29.5613 122.295 29.5613C122.131 29.5613 121.977 29.5933 121.833 29.6573C121.689 29.7173 121.561 29.8033 121.449 29.9153C121.341 30.0233 121.253 30.1553 121.185 30.3113C121.121 30.4633 121.083 30.6293 121.071 30.8093H123.531ZM125.469 32.5493C125.229 32.5493 124.999 32.5093 124.779 32.4293C124.559 32.3493 124.367 32.2293 124.203 32.0693L124.353 31.8653C124.521 32.0173 124.695 32.1293 124.875 32.2013C125.055 32.2733 125.253 32.3093 125.469 32.3093C125.741 32.3093 125.959 32.2533 126.123 32.1413C126.291 32.0253 126.375 31.8653 126.375 31.6613C126.375 31.5653 126.353 31.4853 126.309 31.4213C126.269 31.3533 126.207 31.2973 126.123 31.2533C126.039 31.2053 125.935 31.1633 125.811 31.1273C125.687 31.0913 125.543 31.0533 125.379 31.0133C125.203 30.9733 125.049 30.9333 124.917 30.8933C124.789 30.8533 124.683 30.8053 124.599 30.7493C124.515 30.6933 124.451 30.6253 124.407 30.5453C124.367 30.4653 124.347 30.3633 124.347 30.2393C124.347 30.0833 124.377 29.9473 124.437 29.8313C124.497 29.7153 124.579 29.6193 124.683 29.5433C124.791 29.4673 124.913 29.4113 125.049 29.3753C125.189 29.3353 125.337 29.3153 125.493 29.3153C125.737 29.3153 125.953 29.3573 126.141 29.4413C126.329 29.5213 126.475 29.6253 126.579 29.7533L126.411 29.9153C126.307 29.7953 126.171 29.7053 126.003 29.6453C125.839 29.5853 125.663 29.5553 125.475 29.5553C125.359 29.5553 125.249 29.5673 125.145 29.5913C125.045 29.6153 124.957 29.6533 124.881 29.7053C124.805 29.7573 124.745 29.8253 124.701 29.9093C124.657 29.9893 124.635 30.0853 124.635 30.1973C124.635 30.2893 124.649 30.3633 124.677 30.4193C124.709 30.4753 124.757 30.5233 124.821 30.5633C124.889 30.6033 124.975 30.6393 125.079 30.6713C125.183 30.6993 125.307 30.7313 125.451 30.7673C125.647 30.8153 125.821 30.8613 125.973 30.9053C126.125 30.9493 126.251 31.0033 126.351 31.0673C126.455 31.1313 126.533 31.2073 126.585 31.2953C126.641 31.3833 126.669 31.4953 126.669 31.6313C126.669 31.9113 126.559 32.1353 126.339 32.3033C126.123 32.4673 125.833 32.5493 125.469 32.5493Z" fill="#FF5151"/>
<g filter="url(#filter1_d)">
<path d="M7.77348 28.5746C9.50691 30.2241 10.8936 29.4406 14.3605 31.5437C17.8274 33.6469 19.2141 38.9665 26.1478 35.9974C30.4664 34.1481 29.7778 29.688 28.9213 27.4612C26.4945 21.1518 21.2942 21.1106 23.721 17.0693C29.9613 6.67742 36.895 3.46087 33.4282 2.22375C26.1478 -0.374216 18.5207 1.48147 13.3204 4.82172C9.85359 7.04855 5 11.8734 5 18.925C5 24.0073 6.04006 26.9251 7.77348 28.5746Z" fill="#FC2C2C"/>
<path d="M7.77348 28.5746C9.50691 30.2241 10.8936 29.4406 14.3605 31.5437C17.8274 33.6469 19.2141 38.9665 26.1478 35.9974C30.4664 34.1481 29.7778 29.688 28.9213 27.4612C26.4945 21.1518 21.2942 21.1106 23.721 17.0693C29.9613 6.67742 36.895 3.46087 33.4282 2.22375C26.1478 -0.374216 18.5207 1.48147 13.3204 4.82172C9.85359 7.04855 5 11.8734 5 18.925C5 24.0073 6.04006 26.9251 7.77348 28.5746Z" fill="url(#paint2_linear)"/>
<path d="M7.77348 28.5746C9.50691 30.2241 10.8936 29.4406 14.3605 31.5437C17.8274 33.6469 19.2141 38.9665 26.1478 35.9974C30.4664 34.1481 29.7778 29.688 28.9213 27.4612C26.4945 21.1518 21.2942 21.1106 23.721 17.0693C29.9613 6.67742 36.895 3.46087 33.4282 2.22375C26.1478 -0.374216 18.5207 1.48147 13.3204 4.82172C9.85359 7.04855 5 11.8734 5 18.925C5 24.0073 6.04006 26.9251 7.77348 28.5746Z" stroke="#B52A2A"/>
<path d="M7.77348 28.5746C9.50691 30.2241 10.8936 29.4406 14.3605 31.5437C17.8274 33.6469 19.2141 38.9665 26.1478 35.9974C30.4664 34.1481 29.7778 29.688 28.9213 27.4612C26.4945 21.1518 21.2942 21.1106 23.721 17.0693C29.9613 6.67742 36.895 3.46087 33.4282 2.22375C26.1478 -0.374216 18.5207 1.48147 13.3204 4.82172C9.85359 7.04855 5 11.8734 5 18.925C5 24.0073 6.04006 26.9251 7.77348 28.5746Z" stroke="url(#paint3_linear)"/>
</g>
<path d="M15.0265 7.42085C12.2514 10.2393 10.6646 13.9605 10.1781 13.4814C9.69154 13.0024 7.9544 11.6716 10.7295 8.85319C13.5045 6.03478 19.7409 2.79599 20.2275 3.27504C20.714 3.75409 17.8015 4.60244 15.0265 7.42085Z" fill="#FF7979"/>
<path d="M35.7953 18.1635C34.593 19.3845 34.1463 20.0877 33.6468 19.5958C33.1472 19.1039 30.701 19.8039 31.9033 18.5829C33.1055 17.3619 37.4443 14.8069 37.9438 15.2988C38.4433 15.7906 36.9975 16.9425 35.7953 18.1635Z" fill="#FF7979"/>
<defs>
<filter id="filter0_d" x="22.2446" y="11.916" width="23.1333" height="26.9395" filterUnits="userSpaceOnUse" color-interpolation-filters="sRGB">
<feFlood flood-opacity="0" result="BackgroundImageFix"/>
<feColorMatrix in="SourceAlpha" type="matrix" values="0 0 0 0 0 0 0 0 0 0 0 0 0 0 0 0 0 0 127 0"/>
<feOffset dy="4"/>
<feGaussianBlur stdDeviation="2"/>
<feColorMatrix type="matrix" values="0 0 0 0 0 0 0 0 0 0 0 0 0 0 0 0 0 0 0.25 0"/>
<feBlend mode="normal" in2="BackgroundImageFix" result="effect1_dropShadow"/>
<feBlend mode="normal" in="SourceGraphic" in2="effect1_dropShadow" result="shape"/>
</filter>
<filter id="filter1_d" x="0.5" y="0.5" width="38.3547" height="44.8782" filterUnits="userSpaceOnUse" color-interpolation-filters="sRGB">
<feFlood flood-opacity="0" result="BackgroundImageFix"/>
<feColorMatrix in="SourceAlpha" type="matrix" values="0 0 0 0 0 0 0 0 0 0 0 0 0 0 0 0 0 0 127 0"/>
<feOffset dy="4"/>
<feGaussianBlur stdDeviation="2"/>
<feColorMatrix type="matrix" values="0 0 0 0 0 0 0 0 0 0 0 0 0 0 0 0 0 0 0.25 0"/>
<feBlend mode="normal" in2="BackgroundImageFix" result="effect1_dropShadow"/>
<feBlend mode="normal" in="SourceGraphic" in2="effect1_dropShadow" result="shape"/>
</filter>
<linearGradient id="paint0_linear" x1="33.8111" y1="12.416" x2="33.8111" y2="30.355" gradientUnits="userSpaceOnUse">
<stop stop-color="#FC2C2C"/>
<stop offset="1" stop-color="#681616"/>
</linearGradient>
<linearGradient id="paint1_linear" x1="33.8111" y1="12.416" x2="33.8111" y2="30.355" gradientUnits="userSpaceOnUse">
<stop stop-color="#F42B2B"/>
<stop offset="1" stop-color="#651313"/>
</linearGradient>
<linearGradient id="paint2_linear" x1="19.6773" y1="1" x2="19.6773" y2="36.8779" gradientUnits="userSpaceOnUse">
<stop stop-color="#FC2C2C"/>
<stop offset="1" stop-color="#681616"/>
</linearGradient>
<linearGradient id="paint3_linear" x1="19.6773" y1="1" x2="19.6773" y2="36.8779" gradientUnits="userSpaceOnUse">
<stop stop-color="#F42B2B"/>
<stop offset="1" stop-color="#651313"/>
</linearGradient>
</defs>
</svg>
