<svg width="57" height="55" viewBox="0 0 57 55" fill="none" xmlns="http://www.w3.org/2000/svg">
<g filter="url(#filter0_d)">
<path d="M8.59031 35.5856C10.8343 37.6545 12.6294 36.6718 17.1173 39.3096C21.6052 41.9475 23.4003 48.6197 32.3761 44.8956C37.9666 42.5762 37.0752 36.9821 35.9664 34.1891C32.8249 26.2755 26.0931 26.2238 29.2346 21.155C37.3128 8.12092 46.2886 4.08656 41.8007 2.53489C32.3761 -0.723615 22.5028 1.60388 15.7709 5.79341C11.283 8.58642 5 14.638 5 23.4825C5 29.857 6.34637 33.5167 8.59031 35.5856Z" fill="#FC2C2C"/>
<path d="M8.59031 35.5856C10.8343 37.6545 12.6294 36.6718 17.1173 39.3096C21.6052 41.9475 23.4003 48.6197 32.3761 44.8956C37.9666 42.5762 37.0752 36.9821 35.9664 34.1891C32.8249 26.2755 26.0931 26.2238 29.2346 21.155C37.3128 8.12092 46.2886 4.08656 41.8007 2.53489C32.3761 -0.723615 22.5028 1.60388 15.7709 5.79341C11.283 8.58642 5 14.638 5 23.4825C5 29.857 6.34637 33.5167 8.59031 35.5856Z" fill="url(#paint0_linear)"/>
<path d="M8.59031 35.5856C10.8343 37.6545 12.6294 36.6718 17.1173 39.3096C21.6052 41.9475 23.4003 48.6197 32.3761 44.8956C37.9666 42.5762 37.0752 36.9821 35.9664 34.1891C32.8249 26.2755 26.0931 26.2238 29.2346 21.155C37.3128 8.12092 46.2886 4.08656 41.8007 2.53489C32.3761 -0.723615 22.5028 1.60388 15.7709 5.79341C11.283 8.58642 5 14.638 5 23.4825C5 29.857 6.34637 33.5167 8.59031 35.5856Z" stroke="#B52A2A"/>
<path d="M8.59031 35.5856C10.8343 37.6545 12.6294 36.6718 17.1173 39.3096C21.6052 41.9475 23.4003 48.6197 32.3761 44.8956C37.9666 42.5762 37.0752 36.9821 35.9664 34.1891C32.8249 26.2755 26.0931 26.2238 29.2346 21.155C37.3128 8.12092 46.2886 4.08656 41.8007 2.53489C32.3761 -0.723615 22.5028 1.60388 15.7709 5.79341C11.283 8.58642 5 14.638 5 23.4825C5 29.857 6.34637 33.5167 8.59031 35.5856Z" stroke="url(#paint1_linear)"/>
</g>
<g filter="url(#filter1_d)">
<path d="M38.2285 42.2949C37.1152 41.5369 40.4514 37.9555 36.267 29.2375C35.9387 28.5536 51.4279 24.9922 51.2768 26.5465C50.6349 33.1519 40.1814 43.6247 38.2285 42.2949Z" fill="#FC2C2C"/>
<path d="M38.2285 42.2949C37.1152 41.5369 40.4514 37.9555 36.267 29.2375C35.9387 28.5536 51.4279 24.9922 51.2768 26.5465C50.6349 33.1519 40.1814 43.6247 38.2285 42.2949Z" fill="url(#paint2_linear)"/>
<path d="M38.2285 42.2949C37.1152 41.5369 40.4514 37.9555 36.267 29.2375C35.9387 28.5536 51.4279 24.9922 51.2768 26.5465C50.6349 33.1519 40.1814 43.6247 38.2285 42.2949Z" stroke="#B52A2A"/>
<path d="M38.2285 42.2949C37.1152 41.5369 40.4514 37.9555 36.267 29.2375C35.9387 28.5536 51.4279 24.9922 51.2768 26.5465C50.6349 33.1519 40.1814 43.6247 38.2285 42.2949Z" stroke="url(#paint3_linear)"/>
</g>
<path d="M15.8109 10.2265C12.8803 14.2412 11.5931 19.1594 10.9001 18.6535C10.207 18.1476 7.80245 16.8133 10.733 12.7985C13.6636 8.78378 20.8196 3.60892 21.5127 4.11482C22.2057 4.62071 18.7415 6.21175 15.8109 10.2265Z" fill="#FF7979"/>
<path d="M43.546 30.0583C42.3061 30.669 41.7791 31.0859 41.5293 30.5786C41.2795 30.0713 39.2306 29.9548 40.4705 29.3441C41.7104 28.7335 45.6934 27.94 45.9432 28.4472C46.193 28.9545 44.7859 29.4477 43.546 30.0583Z" fill="#FF7979"/>
<defs>
<filter id="filter0_d" x="0.5" y="0.499802" width="47.0001" height="54.0002" filterUnits="userSpaceOnUse" color-interpolation-filters="sRGB">
<feFlood flood-opacity="0" result="BackgroundImageFix"/>
<feColorMatrix in="SourceAlpha" type="matrix" values="0 0 0 0 0 0 0 0 0 0 0 0 0 0 0 0 0 0 127 0"/>
<feOffset dy="4"/>
<feGaussianBlur stdDeviation="2"/>
<feColorMatrix type="matrix" values="0 0 0 0 0 0 0 0 0 0 0 0 0 0 0 0 0 0 0.25 0"/>
<feBlend mode="normal" in2="BackgroundImageFix" result="effect1_dropShadow"/>
<feBlend mode="normal" in="SourceGraphic" in2="effect1_dropShadow" result="shape"/>
</filter>
<filter id="filter1_d" x="28.4561" y="22.1082" width="27.6001" height="31.0844" filterUnits="userSpaceOnUse" color-interpolation-filters="sRGB">
<feFlood flood-opacity="0" result="BackgroundImageFix"/>
<feColorMatrix in="SourceAlpha" type="matrix" values="0 0 0 0 0 0 0 0 0 0 0 0 0 0 0 0 0 0 127 0"/>
<feOffset dy="4"/>
<feGaussianBlur stdDeviation="2"/>
<feColorMatrix type="matrix" values="0 0 0 0 0 0 0 0 0 0 0 0 0 0 0 0 0 0 0.25 0"/>
<feBlend mode="normal" in2="BackgroundImageFix" result="effect1_dropShadow"/>
<feBlend mode="normal" in="SourceGraphic" in2="effect1_dropShadow" result="shape"/>
</filter>
<linearGradient id="paint0_linear" x1="24" y1="6" x2="24" y2="46" gradientUnits="userSpaceOnUse">
<stop stop-color="#FC2C2C"/>
<stop offset="1" stop-color="#681616"/>
</linearGradient>
<linearGradient id="paint1_linear" x1="24" y1="1" x2="24" y2="46" gradientUnits="userSpaceOnUse">
<stop stop-color="#F42B2B"/>
<stop offset="1" stop-color="#651313"/>
</linearGradient>
<linearGradient id="paint2_linear" x1="44" y1="26" x2="39.7236" y2="42.9759" gradientUnits="userSpaceOnUse">
<stop stop-color="#FC2C2C"/>
<stop offset="1" stop-color="#681616"/>
</linearGradient>
<linearGradient id="paint3_linear" x1="44.7432" y1="24.5513" x2="39.7236" y2="42.9759" gradientUnits="userSpaceOnUse">
<stop stop-color="#F42B2B"/>
<stop offset="1" stop-color="#651313"/>
</linearGradient>
</defs>
</svg>
