<svg width="86" height="55" viewBox="0 0 86 55" fill="none" xmlns="http://www.w3.org/2000/svg">
<g filter="url(#filter0_d)">
<path d="M23.5903 35.5856C25.8343 37.6545 27.6294 36.6718 32.1173 39.3096C36.6052 41.9475 38.4003 48.6197 47.3761 44.8956C52.9666 42.5762 52.0752 36.9821 50.9664 34.1891C47.8249 26.2755 41.0931 26.2238 44.2346 21.155C52.3128 8.12092 61.2886 4.08656 56.8007 2.53489C47.3761 -0.723615 37.5028 1.60388 30.7709 5.79341C26.283 8.58642 20 14.638 20 23.4825C20 29.857 21.3464 33.5167 23.5903 35.5856Z" fill="#FC2C2C"/>
<path d="M23.5903 35.5856C25.8343 37.6545 27.6294 36.6718 32.1173 39.3096C36.6052 41.9475 38.4003 48.6197 47.3761 44.8956C52.9666 42.5762 52.0752 36.9821 50.9664 34.1891C47.8249 26.2755 41.0931 26.2238 44.2346 21.155C52.3128 8.12092 61.2886 4.08656 56.8007 2.53489C47.3761 -0.723615 37.5028 1.60388 30.7709 5.79341C26.283 8.58642 20 14.638 20 23.4825C20 29.857 21.3464 33.5167 23.5903 35.5856Z" fill="url(#paint0_linear)"/>
<path d="M23.5903 35.5856C25.8343 37.6545 27.6294 36.6718 32.1173 39.3096C36.6052 41.9475 38.4003 48.6197 47.3761 44.8956C52.9666 42.5762 52.0752 36.9821 50.9664 34.1891C47.8249 26.2755 41.0931 26.2238 44.2346 21.155C52.3128 8.12092 61.2886 4.08656 56.8007 2.53489C47.3761 -0.723615 37.5028 1.60388 30.7709 5.79341C26.283 8.58642 20 14.638 20 23.4825C20 29.857 21.3464 33.5167 23.5903 35.5856Z" stroke="#B52A2A"/>
<path d="M23.5903 35.5856C25.8343 37.6545 27.6294 36.6718 32.1173 39.3096C36.6052 41.9475 38.4003 48.6197 47.3761 44.8956C52.9666 42.5762 52.0752 36.9821 50.9664 34.1891C47.8249 26.2755 41.0931 26.2238 44.2346 21.155C52.3128 8.12092 61.2886 4.08656 56.8007 2.53489C47.3761 -0.723615 37.5028 1.60388 30.7709 5.79341C26.283 8.58642 20 14.638 20 23.4825C20 29.857 21.3464 33.5167 23.5903 35.5856Z" stroke="url(#paint1_linear)"/>
</g>
<g filter="url(#filter1_d)">
<path d="M56.2902 38.9591C54.8263 38.4077 56.2902 32.6718 49.0148 23.4827C48.4441 22.7619 64.5473 13.3263 64.8494 15.2609C66.1333 23.4827 58.858 39.9264 56.2902 38.9591Z" fill="#FC2C2C"/>
<path d="M56.2902 38.9591C54.8263 38.4077 56.2902 32.6718 49.0148 23.4827C48.4441 22.7619 64.5473 13.3263 64.8494 15.2609C66.1333 23.4827 58.858 39.9264 56.2902 38.9591Z" fill="url(#paint2_linear)"/>
<path d="M56.2902 38.9591C54.8263 38.4077 56.2902 32.6718 49.0148 23.4827C48.4441 22.7619 64.5473 13.3263 64.8494 15.2609C66.1333 23.4827 58.858 39.9264 56.2902 38.9591Z" stroke="#B52A2A"/>
<path d="M56.2902 38.9591C54.8263 38.4077 56.2902 32.6718 49.0148 23.4827C48.4441 22.7619 64.5473 13.3263 64.8494 15.2609C66.1333 23.4827 58.858 39.9264 56.2902 38.9591Z" stroke="url(#paint3_linear)"/>
</g>
<path d="M32.6 9.10001C29.1126 12.6419 27.1185 17.3182 26.5071 16.7162C25.8957 16.1142 23.7126 14.4419 27.2 10.9C30.6874 7.35816 38.5246 3.28803 39.136 3.89004C39.7474 4.49206 36.0874 5.55816 32.6 9.10001Z" fill="#FF7979"/>
<path d="M58.7 22.6C57.1892 24.1344 56.6278 25.0181 56 24.4C55.3722 23.7819 52.2982 24.6616 53.809 23.1272C55.3198 21.5927 60.7722 18.3819 61.4 19C62.0278 19.6181 60.2108 21.0656 58.7 22.6Z" fill="#FF7979"/>
<defs>
<filter id="filter0_d" x="15.5" y="0.499802" width="47.0001" height="54.0002" filterUnits="userSpaceOnUse" color-interpolation-filters="sRGB">
<feFlood flood-opacity="0" result="BackgroundImageFix"/>
<feColorMatrix in="SourceAlpha" type="matrix" values="0 0 0 0 0 0 0 0 0 0 0 0 0 0 0 0 0 0 127 0"/>
<feOffset dy="4"/>
<feGaussianBlur stdDeviation="2"/>
<feColorMatrix type="matrix" values="0 0 0 0 0 0 0 0 0 0 0 0 0 0 0 0 0 0 0.25 0"/>
<feBlend mode="normal" in2="BackgroundImageFix" result="effect1_dropShadow"/>
<feBlend mode="normal" in="SourceGraphic" in2="effect1_dropShadow" result="shape"/>
</filter>
<filter id="filter1_d" x="44.5002" y="14.5" width="24.9998" height="33.0011" filterUnits="userSpaceOnUse" color-interpolation-filters="sRGB">
<feFlood flood-opacity="0" result="BackgroundImageFix"/>
<feColorMatrix in="SourceAlpha" type="matrix" values="0 0 0 0 0 0 0 0 0 0 0 0 0 0 0 0 0 0 127 0"/>
<feOffset dy="4"/>
<feGaussianBlur stdDeviation="2"/>
<feColorMatrix type="matrix" values="0 0 0 0 0 0 0 0 0 0 0 0 0 0 0 0 0 0 0.25 0"/>
<feBlend mode="normal" in2="BackgroundImageFix" result="effect1_dropShadow"/>
<feBlend mode="normal" in="SourceGraphic" in2="effect1_dropShadow" result="shape"/>
</filter>
<linearGradient id="paint0_linear" x1="39" y1="1" x2="39" y2="46" gradientUnits="userSpaceOnUse">
<stop stop-color="#FC2C2C"/>
<stop offset="1" stop-color="#681616"/>
</linearGradient>
<linearGradient id="paint1_linear" x1="39" y1="1" x2="39" y2="46" gradientUnits="userSpaceOnUse">
<stop stop-color="#F42B2B"/>
<stop offset="1" stop-color="#651313"/>
</linearGradient>
<linearGradient id="paint2_linear" x1="57" y1="15" x2="57" y2="39" gradientUnits="userSpaceOnUse">
<stop stop-color="#FC2C2C"/>
<stop offset="1" stop-color="#681616"/>
</linearGradient>
<linearGradient id="paint3_linear" x1="57" y1="15" x2="57" y2="39" gradientUnits="userSpaceOnUse">
<stop stop-color="#F42B2B"/>
<stop offset="1" stop-color="#651313"/>
</linearGradient>
</defs>
</svg>
