<svg width="26" height="26" viewBox="0 0 26 26" fill="none" xmlns="http://www.w3.org/2000/svg">
<g clip-path="url(#clip0)">
<path d="M12.9899 23.5004C12.9131 23.525 12.83 23.5179 12.7585 23.4816L5.07829 19.5286C4.92967 19.4521 4.87104 19.2692 4.94751 19.1206L13.5455 2.41243C13.6192 2.26915 13.8108 2.20774 13.9535 2.28165L21.633 6.23424C21.7816 6.31072 21.8403 6.49367 21.7638 6.64228L13.1666 23.3508C13.1295 23.4219 13.066 23.476 12.9899 23.5004ZM5.62534 19.1286L12.7666 22.8038L21.0865 6.63405L13.9459 2.95872L5.62534 19.1286Z" fill="#FEFEFE"/>
<path d="M14.3176 6.65965C14.2437 6.68333 14.1608 6.67872 14.0863 6.64087L12.2061 5.6734C12.0575 5.59693 11.9989 5.41398 12.0753 5.26536C12.1518 5.11675 12.3348 5.05811 12.4834 5.13458L14.3635 6.10205C14.5121 6.17852 14.5708 6.36147 14.4943 6.51009C14.4563 6.58401 14.3914 6.63597 14.3176 6.65965Z" fill="#FEFEFE"/>
<path d="M14.1087 10.0291C14.0348 10.0528 13.9519 10.0481 13.8774 10.0103L10.7916 8.42242C10.6429 8.34595 10.5843 8.163 10.6608 8.01439C10.7372 7.86577 10.9202 7.80713 11.0688 7.88361L14.1546 9.47147C14.3033 9.54795 14.3619 9.7309 14.2854 9.87951C14.2476 9.95402 14.1826 10.0054 14.1087 10.0291Z" fill="#FEFEFE"/>
<path d="M11.488 12.1599C11.4141 12.1836 11.3312 12.179 11.2567 12.1411L9.37652 11.1736C9.2279 11.0972 9.16927 10.9142 9.24574 10.7656C9.32221 10.617 9.50516 10.5584 9.65378 10.6348L11.5339 11.6023C11.6825 11.6788 11.7412 11.8617 11.6647 12.0103C11.6267 12.0843 11.5619 12.1362 11.488 12.1599Z" fill="#FEFEFE"/>
<path d="M11.2784 15.5308C11.2045 15.5545 11.1216 15.5499 11.0471 15.512L7.96123 13.9241C7.81262 13.8477 7.75398 13.6647 7.83045 13.5161C7.90693 13.3675 8.08988 13.3088 8.23849 13.3853L11.3243 14.9732C11.4729 15.0497 11.5316 15.2326 11.4551 15.3812C11.4171 15.4551 11.3522 15.5071 11.2784 15.5308Z" fill="#FEFEFE"/>
<path d="M8.65742 17.6594C8.58354 17.6831 8.5006 17.6785 8.4261 17.6406L6.54595 16.6732C6.39734 16.5967 6.3387 16.4137 6.41517 16.2651C6.49164 16.1165 6.6746 16.0579 6.82321 16.1343L8.70336 17.1018C8.85197 17.1783 8.91061 17.3612 8.83414 17.5098C8.7961 17.5838 8.73129 17.6357 8.65742 17.6594Z" fill="#FEFEFE"/>
</g>
<defs>
<clipPath id="clip0">
<rect width="20" height="20" fill="white" transform="translate(0.78125 6.41162) rotate(-17.7711)"/>
</clipPath>
</defs>
</svg>
