<svg width="277" height="332" viewBox="0 0 277 332" fill="none" xmlns="http://www.w3.org/2000/svg">
<g clip-path="url(#clip0)">
<path d="M275.256 54.6746C273.31 52.1593 270.307 50.6861 267.126 50.6861H5.72967L-5.6872 6.79535C-6.8641 2.26868 -10.9524 -0.890137 -15.6326 -0.890137H-68.9451C-74.62 -0.890137 -79.2207 3.70774 -79.2207 9.3791C-79.2207 15.0504 -74.62 19.6483 -68.9451 19.6483H-23.5791L-12.1622 63.539C-12.1622 63.5404 -12.1622 63.5404 -12.1608 63.5418L28.0935 218.222C29.2704 222.748 33.3587 225.907 38.0375 225.907H226.865C231.543 225.907 235.632 222.748 236.809 218.222L277.068 63.539C277.871 60.4637 277.201 57.1885 275.256 54.6746ZM82.2801 205.369H45.9839L37.9114 174.354H82.2801V205.369ZM82.2801 153.814H32.5668L24.4902 122.777H82.2801V153.814ZM82.2801 102.239H19.1441L11.073 71.2245H82.2801V102.239ZM162.076 205.369H102.831V174.354H162.076V205.369ZM162.076 153.814H102.831V122.777H162.076V153.814ZM162.076 102.239H102.831V71.2245H162.076V102.239ZM218.921 205.369H182.627V174.354H226.993L218.921 205.369ZM232.339 153.814H182.627V122.777H240.417L232.339 153.814ZM245.763 102.239H182.629V71.2245H253.837L245.763 102.239Z" fill="#D52B2B"/>
<path d="M65.2979 234.264C44.6015 234.264 27.7632 251.092 27.7632 271.774C27.7632 292.461 44.6015 309.291 65.2979 309.291C85.9929 309.291 102.831 292.461 102.831 271.774C102.831 251.092 85.9943 234.264 65.2979 234.264ZM65.2979 288.753C55.9334 288.753 48.3144 281.136 48.3144 271.774C48.3144 262.416 55.9334 254.803 65.2979 254.803C74.661 254.803 82.28 262.417 82.28 271.774C82.28 281.137 74.6624 288.753 65.2979 288.753Z" fill="#D52B2B"/>
<path d="M199.607 234.264C178.913 234.264 162.078 251.092 162.078 271.774C162.078 292.461 178.913 309.291 199.607 309.291C220.305 309.291 237.142 292.461 237.142 271.774C237.142 251.092 220.303 234.264 199.607 234.264ZM199.607 288.753C190.245 288.753 182.629 281.136 182.629 271.774C182.629 262.416 190.245 254.803 199.607 254.803C208.973 254.803 216.59 262.417 216.59 271.774C216.59 281.137 208.971 288.753 199.607 288.753Z" fill="#D52B2B"/>
</g>
<defs>
<clipPath id="clip0">
<rect width="277" height="332" fill="white"/>
</clipPath>
</defs>
</svg>
