<svg width="253" height="253" viewBox="0 0 253 253" fill="none" xmlns="http://www.w3.org/2000/svg">
<g clip-path="url(#clip0)">
<path d="M177.188 90.0071C183.624 86.2907 191.886 88.504 195.602 94.941C197.402 98.0593 197.88 101.692 196.948 105.17C196.016 108.647 193.786 111.555 190.669 113.354L190.19 113.63C187.008 115.468 184.732 118.434 183.781 121.983C182.83 125.532 183.318 129.239 185.155 132.421C187.051 135.706 190.107 137.912 193.51 138.824C196.912 139.736 200.662 139.352 203.946 137.456L216.817 130.026C240.11 116.577 248.119 86.6856 234.671 63.3921C221.222 40.0987 191.331 32.0897 168.038 45.5377L155.185 52.9575C145.025 58.8238 141.531 71.8632 147.397 82.0243C153.41 92.4389 166.774 96.0192 177.188 90.0071ZM188.503 80.6603C190.097 68.8389 184.423 57.2959 174.473 51.2179C183.312 46.8703 193.085 46.0247 202.1 48.2311C202.173 48.4177 202.256 48.6023 202.359 48.7815C209.134 60.5162 205.188 75.5419 193.586 82.4592C192.276 81.8034 190.906 81.2793 189.496 80.9015C189.167 80.8133 188.836 80.7329 188.503 80.6603ZM212.795 123.06L199.925 130.491C197.196 132.067 193.695 131.128 192.12 128.4C190.545 125.672 191.483 122.171 194.211 120.597L194.689 120.321C198.896 117.892 201.97 114.247 203.731 110.085C213.427 111.737 223.043 108.894 230.226 102.925C226.952 111.12 221.013 118.316 212.795 123.06ZM233.033 84.577C229.561 96.6416 217.622 104.107 205.437 102.216C205.538 98.3825 204.621 94.4767 202.567 90.9193C201.891 89.7481 201.116 88.6691 200.266 87.677C211.398 79.5511 216.137 65.344 212.52 52.3592C218.64 55.8171 223.944 60.8982 227.705 67.4136C230.841 72.8447 232.579 78.7055 233.033 84.577ZM159.207 59.9232L165.924 56.0454C176.107 59.4881 182.255 69.9131 180.402 80.4518C177.92 80.8614 175.47 81.7116 173.167 83.0416C166.594 86.837 158.158 84.5763 154.363 78.0031C150.714 71.683 152.887 63.5724 159.207 59.9232Z" fill="#D52B2B"/>
<path d="M44.7637 127.62C46.66 130.904 49.715 133.111 53.1182 134.022C56.5206 134.934 60.2711 134.551 63.5547 132.655C66.7368 130.817 69.013 127.851 69.964 124.302C70.9151 120.752 70.4271 117.045 68.5897 113.864L68.3139 113.386C66.5133 110.268 66.0353 106.635 66.9672 103.157C67.899 99.6797 70.1297 96.7724 73.2479 94.9721C79.6846 91.2559 87.9448 93.4688 91.6617 99.9061C97.6743 110.321 111.039 113.901 121.453 107.888C131.613 102.022 135.107 88.9828 129.241 78.8222L121.82 65.9703C108.372 42.677 78.4804 34.6677 55.1868 48.1159C31.8937 61.5642 23.8841 91.4563 37.3324 114.749L44.7637 127.62ZM59.5337 125.69C56.8053 127.265 53.3039 126.326 51.7292 123.598L44.2985 110.728C39.5537 102.51 38.0075 93.3085 39.2707 84.5744C42.505 93.3321 49.4073 100.6 58.6262 104.019C58.048 108.641 58.979 113.304 61.3486 117.408L61.6244 117.885C63.1995 120.613 62.2614 124.114 59.5337 125.69ZM81.2348 85.1707C74.6456 73.3792 78.7409 58.3935 90.4757 51.6185C90.6545 51.5152 90.8186 51.3968 90.9754 51.2715C99.8859 53.8681 107.926 59.4867 113.408 67.6716C101.751 67.96 91.0659 75.1195 86.5362 86.1545C84.8206 85.6074 83.0386 85.2781 81.2348 85.1707ZM117.431 100.923C110.858 104.719 102.422 102.459 98.6273 95.8848C97.2974 93.5813 95.6011 91.6197 93.6567 90.0246C97.3213 79.9714 107.858 74.017 118.398 76.1272L122.276 82.8432C125.924 89.1639 123.751 97.2745 117.431 100.923ZM59.209 55.0813C65.7245 51.3195 72.8579 49.571 79.8868 49.6363C70.2616 59.0728 67.2624 73.7461 72.8401 86.3494C71.6084 86.7838 70.3981 87.3308 69.2265 88.0069C65.741 90.0193 62.9537 92.8999 61.0826 96.3511C49.591 91.8927 42.9884 79.4614 46.014 67.2811C49.3431 62.4233 53.778 58.2168 59.209 55.0813Z" fill="#D52B2B"/>
<path d="M205.403 212.285L135.87 193.653C135.923 193.4 135.978 193.147 136.045 192.895C137.969 185.716 145.375 181.44 152.555 183.363C164.17 186.476 176.152 179.558 179.264 167.942C182.301 156.609 175.552 144.919 164.219 141.882L149.884 138.041C123.903 131.08 97.1036 146.553 90.1421 172.533C89.3956 175.319 88.8984 178.152 88.6516 181.001L14.2916 161.077C12.1466 160.502 9.94115 161.775 9.36641 163.92C4.20127 183.197 15.6818 203.082 34.9584 208.247L81.9837 220.847C84.1287 221.422 86.3342 220.149 86.9089 218.004C87.4837 215.859 86.2103 213.653 84.0654 213.079L37.04 200.478C23.3659 196.814 14.7354 183.626 16.3709 169.96L129.967 200.398C130.146 200.476 130.33 200.542 130.52 200.593C130.707 200.643 130.901 200.678 131.097 200.701L199.16 218.939C193.744 231.592 179.676 238.697 166.001 235.033L119.025 222.446C116.88 221.871 114.675 223.145 114.1 225.29C113.525 227.434 114.799 229.64 116.943 230.215L163.919 242.802C183.196 247.967 203.081 236.486 208.246 217.21C208.821 215.065 207.547 212.859 205.403 212.285ZM139.203 177.266C137.604 178.091 136.113 179.118 134.762 180.317C121.765 176.638 114.064 163.146 117.571 150.057C117.625 149.858 117.657 149.658 117.679 149.459C125.811 144.997 135.465 143.284 145.123 145.19C141.713 148.762 139.229 153.149 137.916 158.052C136.186 164.507 136.659 171.201 139.203 177.266ZM171.496 165.861C169.531 173.193 161.969 177.559 154.637 175.595C152.067 174.906 149.48 174.719 146.977 174.966C144.812 170.33 144.345 165.133 145.685 160.133C147.07 154.965 150.231 150.581 154.646 147.643L162.137 149.651C169.186 151.54 173.385 158.812 171.496 165.861ZM97.9108 174.615C99.858 167.348 103.666 161.067 108.682 156.143C108.549 169.622 116.803 182.118 129.659 187.086C129.095 188.264 128.626 189.507 128.276 190.813C128.209 191.064 128.147 191.315 128.089 191.568L96.5665 183.122C96.7127 180.261 97.1616 177.411 97.9108 174.615Z" fill="#D52B2B"/>
<path d="M197.587 172.978L193.72 175.21C191.796 176.321 191.137 178.78 192.248 180.704C192.803 181.666 193.695 182.311 194.69 182.578C195.684 182.844 196.779 182.731 197.741 182.176L201.608 179.943C203.532 178.833 204.191 176.373 203.08 174.45C201.969 172.527 199.511 171.868 197.587 172.978Z" fill="#D52B2B"/>
<path d="M60.6117 153.299L56.7449 155.532C54.8216 156.642 54.1625 159.102 55.2733 161.025C55.8283 161.987 56.7207 162.633 57.7147 162.899C58.7087 163.165 59.8048 163.052 60.7663 162.497L64.6332 160.264C66.5565 159.154 67.2155 156.694 66.1047 154.771C64.9948 152.847 62.5347 152.188 60.6117 153.299Z" fill="#D52B2B"/>
<path d="M86.1385 120.716C84.2153 121.827 83.5562 124.286 84.6665 126.21L86.6661 129.673C87.2216 130.635 88.1139 131.281 89.1079 131.547C90.1019 131.813 91.1976 131.7 92.1594 131.145C94.0827 130.035 94.7417 127.575 93.6314 125.651L91.6318 122.188C90.5209 120.265 88.0621 119.606 86.1385 120.716Z" fill="#D52B2B"/>
<path d="M130.291 52.8962C131.286 53.1626 132.381 53.0494 133.343 52.4944L136.786 50.5062C138.71 49.3958 139.369 46.9362 138.258 45.0125C137.147 43.0895 134.689 42.4307 132.765 43.5405L129.321 45.5287C127.398 46.6391 126.739 49.0987 127.849 51.0224C128.405 51.9844 129.297 52.6297 130.291 52.8962Z" fill="#D52B2B"/>
<path d="M92.284 21.5673C92.8394 22.5292 93.7318 23.1747 94.7258 23.441C95.7198 23.7074 96.8159 23.5943 97.7773 23.0393C99.7006 21.9289 100.36 19.4693 99.2492 17.546L96.5091 12.8005C95.3983 10.8771 92.9387 10.218 91.0154 11.3284C89.0921 12.4389 88.4331 14.8984 89.5435 16.8217L92.284 21.5673Z" fill="#D52B2B"/>
<path d="M101.55 217.738C100.529 217.464 99.4162 217.608 98.4995 218.141C97.5835 218.669 96.8989 219.56 96.6252 220.582C96.3515 221.603 96.4986 222.717 97.0279 223.633C97.5564 224.549 98.4472 225.233 99.4688 225.507C100.49 225.78 101.604 225.634 102.52 225.104C103.441 224.573 104.124 223.686 104.397 222.664C104.671 221.643 104.524 220.529 103.992 219.612C103.464 218.692 102.576 218.013 101.55 217.738Z" fill="#D52B2B"/>
</g>
<defs>
<clipPath id="clip0">
<rect width="205.895" height="205.895" fill="white" transform="translate(53.2891) rotate(15)"/>
</clipPath>
</defs>
</svg>
