<svg width="295" height="293" viewBox="0 0 295 293" fill="none" xmlns="http://www.w3.org/2000/svg">
<g clip-path="url(#clip0)">
<path d="M74.8033 20.3379C49.7836 34.7829 29.6094 56.3228 16.8316 82.2336C4.05376 108.144 -0.753646 137.262 3.01728 165.905C6.7882 194.548 18.9681 221.43 38.0167 243.151C57.0653 264.872 82.1271 280.456 110.033 287.933C137.939 295.411 167.435 294.445 194.792 285.159C222.149 275.872 246.138 258.682 263.725 235.762C281.312 212.842 291.708 185.221 293.597 156.393C295.487 127.564 288.785 98.8233 274.34 73.8036C254.939 40.2869 223.035 15.8347 185.627 5.81136C148.22 -4.21194 108.364 1.01226 74.8033 20.3379V20.3379ZM216.006 264.907C192.654 278.389 165.829 284.644 138.922 282.881C112.016 281.117 86.2366 271.414 64.8445 255C43.4524 238.585 27.4082 216.195 18.7409 190.662C10.0735 165.129 9.1723 137.599 16.1511 111.554C23.13 85.5083 37.6755 62.1173 57.9482 44.3386C78.2209 26.5599 103.31 15.192 130.044 11.6724C156.777 8.1529 183.954 12.6398 208.138 24.5657C232.321 36.4917 252.425 55.321 265.907 78.6727C283.944 109.996 288.82 147.195 279.464 182.108C270.109 217.022 247.288 246.799 216.006 264.907V264.907Z" fill="#D52B2B"/>
<path d="M148.664 32.0952L148.884 22.3662C120.841 21.7818 93.3886 30.462 70.7793 47.0618L76.5736 54.905C97.4426 39.5827 122.78 31.5658 148.664 32.0952V32.0952Z" fill="#D52B2B"/>
<path d="M228.236 156.237C231.074 156.01 233.891 155.579 236.666 154.947C237.923 154.652 239.011 153.869 239.69 152.772C240.37 151.675 240.587 150.353 240.292 149.096L215.751 44.8193C215.45 43.5613 214.664 42.4731 213.564 41.7911C212.446 41.1658 211.144 40.9533 209.885 41.1907C198.853 43.7801 188.814 49.5263 180.994 57.7273C173.174 65.9284 167.912 76.2294 165.85 87.3721C161.865 85.0715 157.743 82.911 153.583 80.9816C154.246 74.4547 153.01 67.8753 150.025 62.0332C147.041 56.191 142.433 51.3345 136.756 48.0465L128.323 43.1774C127.204 42.5318 125.875 42.3568 124.628 42.691C123.381 43.0253 122.317 43.8413 121.671 44.9596L116.802 53.3931C113.916 58.3829 112.353 64.0273 112.26 69.7908C86.7126 67.3347 60.9945 72.2189 38.126 83.8701C37.3341 84.3225 36.6852 84.9883 36.2532 85.7916C35.8213 86.5949 35.6236 87.5033 35.6828 88.4135C37.9467 110.165 44.7905 131.191 55.7637 150.107C49.1709 156.222 44.0792 163.776 40.8855 172.181C37.6919 180.587 36.4826 189.616 37.352 198.566C38.2214 207.515 41.146 216.143 45.8977 223.776C50.6494 231.41 57.0998 237.843 64.7462 242.574C65.2775 242.881 65.7942 243.213 66.3213 243.517C79.1834 250.978 94.4191 253.215 108.883 249.767C110.14 249.471 111.227 248.689 111.907 247.592C112.587 246.495 112.803 245.173 112.509 243.916L108.045 224.955L101.27 196.227C101.405 196.305 101.536 196.381 101.671 196.459C115.294 204.549 129.821 211.01 144.953 215.707C144.411 222.146 145.71 228.606 148.699 234.334C151.688 240.062 156.244 244.823 161.835 248.061L170.268 252.93C171.387 253.576 172.716 253.751 173.963 253.417C175.21 253.082 176.274 252.266 176.919 251.148L181.788 242.715C185.941 235.517 187.305 227.045 185.621 218.908C191.371 217.722 196.854 215.488 201.795 212.318L216.627 244.91C217.063 245.868 217.797 246.658 218.719 247.163C219.642 247.669 220.703 247.862 221.745 247.713C222.786 247.565 223.751 247.084 224.496 246.341C225.241 245.599 225.725 244.635 225.877 243.594C228.014 229.315 232.353 215.454 238.738 202.504C246.755 190.499 256.586 179.808 267.879 170.815C268.705 170.163 269.297 169.262 269.568 168.245C269.839 167.229 269.773 166.152 269.38 165.176C268.988 164.2 268.29 163.378 267.392 162.831C266.493 162.285 265.441 162.045 264.394 162.146L228.75 165.602C228.898 162.471 228.726 159.333 228.236 156.237V156.237ZM220.636 108.051L225.144 127.189C219.101 127.605 213.08 126.108 207.936 122.91C207.683 122.764 207.465 122.576 207.22 122.417L220.636 108.051ZM211.963 71.2271L216.46 90.3248L198.074 83.471C201.245 77.9843 206.122 73.6845 211.963 71.2271V71.2271ZM214.743 100.077L200.057 115.775C197.552 112.519 195.772 108.766 194.837 104.766C193.902 100.766 193.833 96.6123 194.635 92.5836L214.743 100.077ZM207.445 52.0102L209.693 61.5558C202.862 64.0995 196.882 68.5089 192.432 74.2825C187.983 80.0561 185.243 86.9623 184.524 94.2158C183.805 101.469 185.135 108.779 188.364 115.314C191.593 121.849 196.59 127.347 202.789 131.182C210.13 135.768 218.802 137.746 227.405 136.798L229.651 146.337C220.513 147.543 211.222 146.13 202.855 142.263C194.489 138.397 187.392 132.235 182.389 124.494C177.387 116.754 174.683 107.752 174.594 98.5363C174.505 89.3202 177.033 80.268 181.885 72.4321C187.775 62.8687 196.809 55.653 207.438 52.0229L207.445 52.0102ZM127.67 54.0454L131.887 56.4799C137.473 59.7138 141.548 65.0312 143.218 71.2656C144.889 77.5001 144.019 84.1426 140.798 89.7361L138.364 93.9528L134.147 91.5183C128.561 88.2844 124.486 82.9671 122.815 76.7326C121.145 70.4981 122.015 63.8556 125.236 58.2621L127.67 54.0454ZM101.858 241.174C89.8765 242.776 77.7275 239.865 67.7741 233.006C57.8206 226.147 50.7744 215.831 48.0061 204.064C45.2378 192.297 46.9453 179.921 52.7966 169.344C58.6478 158.767 68.2244 150.744 79.6634 146.837L81.9092 156.376C75.0699 158.914 69.0809 163.322 64.6241 169.097C60.1673 174.873 57.422 181.783 56.7007 189.043C55.9794 196.302 57.3112 203.618 60.5444 210.158C63.7776 216.697 68.7822 222.197 74.9884 226.032C82.3231 230.634 91.0008 232.616 99.6064 231.654L101.858 241.174ZM70.2861 178.299C73.4574 172.821 78.3307 168.528 84.1652 166.072L88.6623 185.17L70.2861 178.299ZM86.9545 194.906L72.2693 210.603C69.7668 207.347 67.9883 203.594 67.0527 199.595C66.1171 195.597 66.046 191.444 66.8441 187.416L86.9545 194.906ZM97.3506 222.025C91.2996 222.452 85.2685 220.955 80.1189 217.749C79.8616 217.601 79.6438 217.413 79.3981 217.254L92.8369 202.878L97.3506 222.025ZM170.921 242.062L166.704 239.628C161.118 236.394 157.043 231.076 155.372 224.842C153.702 218.608 154.572 211.965 157.793 206.371L160.227 202.155L164.444 204.589C170.03 207.823 174.105 213.141 175.775 219.375C177.446 225.609 176.576 232.252 173.355 237.845L170.921 242.062ZM250.38 173.283C242.634 180.471 235.882 188.66 230.304 197.635C225.321 206.954 221.604 216.896 219.252 227.198L208.128 202.75C207.817 202.057 207.347 201.448 206.756 200.971C206.165 200.494 205.469 200.163 204.727 200.005C203.984 199.844 203.214 199.86 202.478 200.05C201.742 200.24 201.062 200.6 200.49 201.101C195.29 205.523 188.983 208.444 182.248 209.55C179.274 203.963 174.793 199.323 169.313 196.156L160.88 191.287C159.761 190.641 158.432 190.466 157.185 190.8C155.938 191.135 154.874 191.951 154.228 193.069L149.359 201.502C148.505 203.008 147.767 204.576 147.152 206.193C132.96 201.72 119.333 195.624 106.54 188.025C103.635 186.348 100.802 184.516 98.0885 182.584L87.9706 139.635C87.6717 138.375 86.8862 137.285 85.7857 136.602C84.6734 135.958 83.3631 135.746 82.1044 136.006C75.4776 137.582 69.178 140.306 63.4915 144.055C54.2976 127.604 48.2783 109.571 45.7472 90.8958C66.9254 81.1027 90.3635 77.2382 113.565 79.7139C115.957 88.2536 121.597 95.5176 129.278 99.9517L137.711 104.821C138.83 105.466 140.159 105.641 141.406 105.307C142.653 104.973 143.717 104.157 144.362 103.039L149.231 94.6051C149.967 93.312 150.615 91.9714 151.172 90.5922C155.876 92.864 160.485 95.4464 164.893 98.1149C164.856 108.734 167.748 119.158 173.25 128.24L164.151 128.828C164.625 138.287 162.723 147.713 158.62 156.248C153.268 164.062 146.055 170.42 137.632 174.75L141.953 183.48C152.104 178.308 160.749 170.606 167.053 161.117C172.003 151.254 174.365 140.293 173.917 129.266C178.633 136.765 184.999 143.089 192.53 147.754C193.061 148.061 193.578 148.393 194.105 148.697C201.532 152.979 209.815 155.563 218.359 156.263C219.265 160.824 219.278 165.517 218.398 170.083C218.251 170.828 218.28 171.597 218.483 172.328C218.686 173.06 219.057 173.734 219.567 174.297C220.077 174.859 220.711 175.295 221.42 175.568C222.128 175.842 222.89 175.946 223.646 175.873L250.38 173.283Z" fill="#D52B2B"/>
<path d="M113.054 111.421C114.742 117.367 114.455 123.7 112.237 129.469C108.35 134.274 103.009 137.689 97.0156 139.2L99.5422 148.603C101.103 148.189 114.957 144.234 120.67 134.338C126.384 124.441 122.882 110.466 122.461 108.907L113.054 111.421Z" fill="#D52B2B"/>
<path d="M184.738 152.807C186.426 158.753 186.139 165.086 183.921 170.855C180.034 175.661 174.692 179.076 168.699 180.587L171.226 189.99C172.786 189.576 186.64 185.621 192.354 175.724C198.068 165.828 194.566 151.853 194.144 150.294L184.738 152.807Z" fill="#D52B2B"/>
<path d="M138.851 114.221C139.324 123.679 137.423 133.106 133.32 141.641C127.968 149.454 120.755 155.813 112.332 160.143L116.653 168.873C126.803 163.701 135.448 155.998 141.753 146.51C146.818 136.306 149.166 124.968 148.57 113.592L138.851 114.221Z" fill="#D52B2B"/>
<path d="M85.8055 97.3422L77.3721 92.4731L72.503 100.907L80.9365 105.776L85.8055 97.3422Z" fill="#D52B2B"/>
<path d="M154.532 260.711L146.099 255.842L141.23 264.276L149.663 269.145L154.532 260.711Z" fill="#D52B2B"/>
<path d="M130.361 263.623L121.928 258.754L117.059 267.187L125.492 272.056L130.361 263.623Z" fill="#D52B2B"/>
</g>
<defs>
<clipPath id="clip0">
<rect width="295" height="293" fill="white"/>
</clipPath>
</defs>
</svg>
