<svg width="20" height="20" viewBox="0 0 20 20" fill="none" xmlns="http://www.w3.org/2000/svg">
<path d="M19.6307 0.929209C19.305 0.503677 18.7999 0.259766 18.2445 0.259766C17.8858 0.259766 17.5143 0.359582 17.1398 0.556212L1.19547 8.916C0.0622183 9.51115 -0.016584 10.4072 0.00217848 10.7645C0.0201904 11.124 0.193555 12.0058 1.38234 12.4779L3.41994 13.2839C3.80645 13.437 4.23874 13.5158 4.70404 13.5158C4.77759 13.5158 4.84814 13.506 4.92094 13.5023C4.89317 13.5383 4.8594 13.5661 4.83388 13.6036C4.45413 14.1717 4.43537 14.9417 4.77909 15.771C4.78435 15.7853 4.7896 15.7973 4.79485 15.8093C5.3975 17.1445 6.0677 18.6515 6.14875 18.8608C6.34838 19.3817 6.85722 19.7404 7.41559 19.7404C8.27566 19.7404 8.53083 19.3261 9.93801 17.0356C10.0476 16.8675 10.2915 16.4773 10.3328 15.9804C10.4971 16.0472 10.6517 16.1088 10.7838 16.1621L13.0413 17.0822C13.4939 17.2668 13.8901 17.4296 14.0988 17.5159C14.1633 17.5557 14.2316 17.5895 14.3029 17.6188C14.462 17.6818 14.6316 17.7141 14.802 17.7141C15.8287 17.7141 16.0748 16.8247 16.2069 16.3482C16.2722 16.1125 16.3623 15.7861 16.4591 15.4258L19.9024 2.77393C20.162 1.81855 19.8431 1.20839 19.6307 0.929209ZM8.80101 16.3152C8.80101 16.3152 7.52366 18.3948 7.41484 18.3948C7.41184 18.3948 7.41034 18.3933 7.40884 18.3903C7.2835 18.0533 6.02117 15.2562 6.02117 15.2562C5.78851 14.6956 5.83054 14.2153 6.23056 14.2153C6.31836 14.2153 6.42343 14.2385 6.54651 14.2896L7.52666 14.7991C7.69027 14.911 7.86889 15.0078 8.06552 15.0851L8.11505 15.1038L8.20736 15.1504C8.96462 15.5511 9.20553 15.696 8.80101 16.3152ZM18.604 2.4197L15.1622 15.0716C14.9678 15.7846 14.8057 16.3677 14.8027 16.3677C14.7997 16.3662 14.796 16.3527 14.796 16.3504C14.796 16.3459 14.2346 16.1163 13.5487 15.8356L11.2897 14.9155C10.6037 14.6378 9.47871 14.1882 8.789 13.9226L8.67492 13.8768L8.25315 13.6576C7.83512 13.3372 7.79834 12.8088 8.21862 12.3608L15.2073 4.87757C15.4879 4.57813 15.5938 4.42352 15.533 4.42352C15.4849 4.42352 15.3296 4.52334 15.0699 4.72672L6.22755 11.7018C5.8418 12.0028 5.25566 12.1709 4.70479 12.1709C4.42261 12.1709 4.14868 12.1259 3.91527 12.0336L1.87917 11.2283C1.19097 10.9559 1.1647 10.453 1.81988 10.1078L17.7657 1.7465C17.9496 1.65044 18.1109 1.60541 18.2445 1.60541C18.5875 1.60541 18.7436 1.90561 18.604 2.4197Z" fill="white"/>
</svg>
