<svg width="20" height="20" viewBox="0 0 20 20" fill="none" xmlns="http://www.w3.org/2000/svg">
<path d="M19.6307 0.929209C19.305 0.503677 18.7999 0.259766 18.2446 0.259766C17.8858 0.259766 17.5143 0.359582 17.1398 0.556212L1.19553 8.916C0.0622793 9.51115 -0.0165229 10.4072 0.00223952 10.7645C0.0202514 11.124 0.193616 12.0058 1.3824 12.4779L3.42 13.2839C3.80651 13.437 4.2388 13.5158 4.7041 13.5158C4.77765 13.5158 4.8482 13.506 4.921 13.5023C4.89323 13.5383 4.85946 13.5661 4.83394 13.6036C4.45419 14.1717 4.43543 14.9417 4.77915 15.771C4.78441 15.7853 4.78966 15.7973 4.79491 15.8093C5.39756 17.1445 6.06776 18.6515 6.14881 18.8608C6.34844 19.3817 6.85728 19.7404 7.41565 19.7404C8.27572 19.7404 8.53089 19.3261 9.93807 17.0356C10.0476 16.8675 10.2916 16.4773 10.3328 15.9804C10.4972 16.0472 10.6518 16.1088 10.7839 16.1621L13.0414 17.0822C13.4939 17.2668 13.8902 17.4296 14.0988 17.5159C14.1634 17.5557 14.2317 17.5895 14.303 17.6188C14.4621 17.6818 14.6317 17.7141 14.802 17.7141C15.8287 17.7141 16.0749 16.8247 16.207 16.3482C16.2723 16.1125 16.3623 15.7861 16.4591 15.4258L19.9024 2.77393C20.1621 1.81855 19.8431 1.20839 19.6307 0.929209ZM8.80107 16.3152C8.80107 16.3152 7.52372 18.3948 7.4149 18.3948C7.4119 18.3948 7.4104 18.3933 7.4089 18.3903C7.28356 18.0533 6.02123 15.2562 6.02123 15.2562C5.78857 14.6956 5.8306 14.2153 6.23062 14.2153C6.31842 14.2153 6.42349 14.2385 6.54658 14.2896L7.52672 14.7991C7.69033 14.911 7.86895 15.0078 8.06558 15.0851L8.11511 15.1038L8.20743 15.1504C8.96468 15.5511 9.20559 15.696 8.80107 16.3152ZM18.6041 2.4197L15.1623 15.0716C14.9679 15.7846 14.8058 16.3677 14.8028 16.3677C14.7998 16.3662 14.796 16.3527 14.796 16.3504C14.796 16.3459 14.2347 16.1163 13.5487 15.8356L11.2897 14.9155C10.6038 14.6378 9.47877 14.1882 8.78906 13.9226L8.67498 13.8768L8.25321 13.6576C7.83518 13.3372 7.7984 12.8088 8.21868 12.3608L15.2073 4.87757C15.488 4.57813 15.5938 4.42352 15.533 4.42352C15.485 4.42352 15.3296 4.52334 15.07 4.72673L6.22761 11.7018C5.84186 12.0028 5.25572 12.1709 4.70485 12.1709C4.42267 12.1709 4.14874 12.1259 3.91533 12.0336L1.87923 11.2283C1.19103 10.9559 1.16476 10.453 1.81994 10.1078L17.7658 1.7465C17.9496 1.65044 18.111 1.60541 18.2446 1.60541C18.5876 1.60541 18.7437 1.90561 18.6041 2.4197Z" fill="white"/>
</svg>
