<svg width="286" height="513" viewBox="0 0 286 513" fill="none" xmlns="http://www.w3.org/2000/svg">
<g clip-path="url(#clip0)">
<path d="M215.463 209.876C212.747 205.422 207.821 202.655 202.607 202.655H189.207C185.065 202.655 181.708 206.012 181.708 210.154C181.708 214.297 185.065 217.653 189.207 217.653L202.656 217.682L229.18 261.165C229.176 261.191 229.148 261.241 229.109 261.245L139.738 261.186L139.796 217.652H154.462C158.604 217.652 161.961 214.296 161.961 210.153C161.961 206.011 158.604 202.654 154.462 202.654H139.796C131.494 202.654 124.74 209.408 124.74 217.711V261.186C124.74 269.489 131.494 276.243 139.796 276.243H229.109C234.546 276.243 239.577 273.298 242.238 268.558C244.899 263.819 244.795 257.991 241.967 253.349L215.463 209.876Z" fill="#D52B2B"/>
<path d="M95.5221 202.655H25.3159C17.013 202.655 10.2588 209.409 10.2588 217.712V261.187C10.2588 269.49 17.013 276.244 25.3159 276.244H95.5221C103.824 276.244 110.578 269.49 110.578 261.187V217.712C110.578 209.409 103.824 202.655 95.5221 202.655ZM95.5421 261.245C95.5421 261.245 95.5371 261.246 95.5221 261.246L25.2579 261.187L25.3169 217.653L95.5801 217.712L95.5421 261.245Z" fill="#D52B2B"/>
<path d="M284.663 272.606C280.005 240.006 266.589 209.392 245.855 183.861V170.355C245.855 159.523 237.043 150.712 226.212 150.712H148.874V139.107H223.886C232.035 139.107 238.665 132.477 238.665 124.327C238.665 106.763 224.376 92.4729 206.812 92.4729H179.841C178.351 88.3414 177.907 80.3284 179.896 69.0128C180.587 65.0783 179.023 61.1558 175.811 58.7751C172.587 56.3844 168.361 56.0264 164.785 57.8382C146.399 67.152 138.647 83.539 135.66 92.4729H-123.814C-141.378 92.4729 -155.668 106.763 -155.668 124.327C-155.668 132.477 -149.038 139.107 -140.888 139.107H-105.506C-101.363 139.107 -98.0067 135.75 -98.0067 131.608C-98.0067 127.465 -101.363 124.109 -105.506 124.109H-140.67C-140.553 114.914 -133.036 107.47 -123.815 107.47H206.812C216.034 107.47 223.549 114.913 223.666 124.109H-70.5111C-74.6536 124.109 -78.0102 127.465 -78.0102 131.608C-78.0102 135.75 -74.6536 139.107 -70.5111 139.107H57.2839V150.712H-136.026C-146.858 150.712 -155.669 159.523 -155.669 170.355V183.447C-155.669 183.447 -192.769 236.106 -192.769 236.107C-195.637 240.181 -198.407 244.849 -200.579 249.357C-202.174 252.668 -203.548 256.076 -204.709 259.562C-204.757 259.708 -204.804 259.854 -204.852 260C-206.81 265.984 -208.054 271.801 -208.835 278.03C-209.349 282.133 -209.611 324.515 -209.611 324.515C-209.611 324.528 -209.609 365.079 -209.609 365.079C-218.687 365.132 -226.056 372.529 -226.056 381.62V394.36C-226.056 403.485 -218.633 410.908 -209.508 410.908H-157.553C-153.898 436.667 -131.711 456.543 -104.96 456.543C-78.2082 456.543 -56.0209 436.667 -52.3654 410.908H-20.8503C-16.7078 410.908 -13.3513 407.551 -13.3513 403.409C-13.3513 399.267 -16.7078 395.91 -20.8503 395.91H-49.3888L-37.5592 386.606C-29.5772 380.328 -24.9978 370.902 -24.9978 360.747V300.321H270.946V380.322C270.946 388.918 263.953 395.91 255.357 395.91H217.443C213.787 370.152 191.6 350.276 164.848 350.276C138.097 350.276 115.91 370.151 112.254 395.91H13.8133C9.67085 395.91 6.31427 399.267 6.31427 403.409C6.31427 407.551 9.67085 410.908 13.8133 410.908H112.254C115.91 436.667 138.097 456.543 164.848 456.543C191.6 456.543 213.787 436.667 217.443 410.908H255.357C272.223 410.908 285.944 397.187 285.944 380.322V290.642C285.944 284.63 285.514 278.562 284.663 272.606ZM151.714 92.4719C153.936 87.5545 157.678 81.4192 163.811 76.3119C163.288 82.4961 163.465 87.8894 164.34 92.4719H151.714ZM148.875 165.71H226.213C228.774 165.71 230.858 167.793 230.858 170.355V179.013H148.876V165.71H148.875ZM124.37 139.106H133.877V179.012H124.37V139.106ZM96.788 139.106H109.371V150.711H96.788V139.106ZM96.788 165.71H109.371V179.013H96.788V165.71ZM72.282 139.106H81.7898V179.012H72.282V139.106ZM-140.67 170.354C-140.67 167.792 -138.587 165.709 -136.025 165.709H57.2849V179.012H-140.67V170.354ZM-184.057 250.246C-184.017 250.179 -183.976 250.112 -183.937 250.045C-183.501 249.31 -183.046 248.581 -182.583 247.854C-176.027 237.575 -168.529 227.749 -161.493 217.76C-161.486 217.749 -161.43 217.651 -161.416 217.651C-161.413 217.651 -138.207 217.639 -138.207 217.639C-138.186 217.656 -138.161 217.709 -138.149 217.698C-138.149 217.698 -138.155 217.716 -138.176 217.749L-165.683 261.249H-189.382C-187.938 257.497 -186.163 253.821 -184.057 250.246ZM-178.909 394.36C-178.909 395.214 -179.603 395.91 -180.458 395.91H-209.508C-210.362 395.91 -211.058 395.215 -211.058 394.36V381.62C-211.058 380.766 -210.363 380.07 -209.508 380.07H-180.457C-179.603 380.07 -178.908 380.765 -178.908 381.62V394.36H-178.909ZM-104.96 441.545C-125.987 441.545 -143.095 424.438 -143.095 403.409C-143.095 382.382 -125.988 365.274 -104.96 365.274C-83.9314 365.274 -66.8236 382.381 -66.8236 403.409C-66.8236 424.437 -83.9304 441.545 -104.96 441.545ZM-39.9959 360.747C-39.9959 366.273 -42.4866 371.401 -46.8311 374.817L-56.2459 382.221C-64.4469 363.439 -83.1905 350.276 -104.96 350.276C-131.711 350.276 -153.898 370.151 -157.553 395.91H-163.988C-163.94 395.399 -163.91 394.883 -163.91 394.36V381.62C-163.91 372.495 -171.334 365.072 -180.458 365.072H-194.611V332.013H-191.154C-184.222 332.013 -177.935 327.918 -175.14 321.592L-166.374 301.832C-165.966 300.914 -165.06 300.321 -164.066 300.321H-39.9949V360.747H-39.9959ZM-164.067 285.324C-170.98 285.324 -177.264 289.411 -180.081 295.744L-188.854 315.522C-189.255 316.429 -190.158 317.015 -191.154 317.015H-194.611V290.404C-194.611 285.655 -194.207 280.919 -193.417 276.247H-165.685C-160.484 276.247 -155.724 273.619 -152.961 269.228C-152.961 269.228 -125.494 225.754 -125.491 225.75C-122.565 221.11 -122.393 215.243 -125.042 210.44C-127.69 205.638 -132.743 202.655 -138.229 202.655H-150.855L-144.765 194.01H234.809C253.502 217.288 265.586 245.123 269.816 274.726C269.906 275.356 269.973 275.992 270.052 276.624C270.415 279.524 270.666 282.408 270.804 285.323H-164.067V285.324ZM164.848 441.545C143.82 441.545 126.712 424.438 126.712 403.409C126.712 382.382 143.819 365.274 164.848 365.274C185.878 365.274 202.985 382.381 202.985 403.409C202.985 424.437 185.877 441.545 164.848 441.545Z" fill="#D52B2B"/>
<path d="M164.849 378.606C151.172 378.606 140.045 389.733 140.045 403.41C140.045 417.088 151.172 428.215 164.849 428.215C178.526 428.215 189.653 417.088 189.653 403.41C189.653 389.733 178.526 378.606 164.849 378.606ZM164.849 413.216C159.443 413.216 155.043 408.818 155.043 403.409C155.043 398.003 159.442 393.604 164.849 393.604C170.256 393.604 174.655 398.002 174.655 403.409C174.655 408.817 170.255 413.216 164.849 413.216Z" fill="#D52B2B"/>
</g>
<defs>
<clipPath id="clip0">
<rect width="285" height="512" fill="white" transform="translate(0.944336 0.617676)"/>
</clipPath>
</defs>
</svg>
