<svg width="20" height="20" viewBox="0 0 20 20" fill="none" xmlns="http://www.w3.org/2000/svg">
<path d="M17.5845 2.23745C16.0036 0.687522 13.4476 -0.063475 9.98641 0.00419674C6.49638 0.0728377 4.16347 0.685408 2.64464 1.93205C1.17613 3.13727 0.492188 4.90088 0.492188 7.48219V10.1166C0.492188 13.164 2.12512 16.5142 5.24604 17.0211C5.60634 17.08 5.94576 16.8351 6.00426 16.4747C6.06277 16.1145 5.81817 15.775 5.45787 15.7165C3.09103 15.332 1.8139 12.5443 1.8139 10.1166V7.48219C1.8139 3.78086 3.1854 1.45984 10.0123 1.32556C13.1073 1.26423 15.3412 1.88905 16.659 3.18116C17.686 4.18821 18.1853 5.59504 18.1853 7.48219V10.1166C18.1853 14.1059 16.3947 15.8655 11.8022 16.3836H8.54566C8.3704 16.3836 8.20227 16.4532 8.07839 16.5772L5.7838 18.8717C5.52571 19.1298 5.52571 19.5483 5.7838 19.8064C5.9128 19.9354 6.08198 20 6.25107 20C6.42016 20 6.58934 19.9355 6.71834 19.8064L8.81943 17.7053H11.8391C11.8634 17.7053 11.8878 17.704 11.9121 17.7012C14.5403 17.4093 16.3402 16.7253 17.576 15.5484C18.8754 14.311 19.5071 12.5342 19.5071 10.1165V7.48219C19.5071 5.25298 18.8602 3.48841 17.5845 2.23745Z" fill="white"/>
<path d="M10.4119 4.31674C10.412 4.31674 10.412 4.31674 10.4122 4.31674C11.477 4.31674 12.4782 4.7315 13.2312 5.48452C13.9843 6.23763 14.3991 7.23896 14.399 8.304C14.399 8.66897 14.6948 8.96486 15.0598 8.96486C15.0599 8.96486 15.0599 8.96486 15.0599 8.96486C15.4248 8.96486 15.7207 8.66906 15.7207 8.30409C15.7208 6.88598 15.1686 5.55272 14.1659 4.54998C13.1632 3.54724 11.8302 2.99512 10.4122 2.99512C10.4121 2.99512 10.4118 2.99512 10.4117 2.99512C10.0468 2.99512 9.75098 3.291 9.75098 3.65597C9.75106 4.02085 10.047 4.31674 10.4119 4.31674Z" fill="white"/>
<path d="M10.4117 6.64007C11.3288 6.64025 12.0751 7.3864 12.0752 8.30341C12.0753 8.66838 12.3711 8.96426 12.7361 8.96418C13.1012 8.96418 13.397 8.6682 13.3969 8.30323C13.3966 6.65761 12.0576 5.31862 10.4119 5.31836H10.4118C10.0469 5.31836 9.75106 5.61416 9.75098 5.97913C9.75098 6.3441 10.0468 6.64007 10.4117 6.64007Z" fill="white"/>
<path d="M7.44876 7.77304C7.14749 7.97905 7.07022 8.39028 7.27614 8.69154C7.48206 8.99281 7.89338 9.07 8.19464 8.86407C8.43158 8.70212 8.98653 8.3227 8.94758 7.56421C8.92291 7.11025 8.51344 6.46208 8.17429 5.99824C7.67821 5.31959 7.25067 4.91082 6.90624 4.78412C6.58462 4.66437 6.24829 4.66181 5.90587 4.77671C5.19664 5.01568 4.6817 5.44753 4.41683 6.02556C4.15892 6.58826 4.16465 7.23493 4.43349 7.89605C5.06844 9.45373 5.95733 10.8175 7.08141 11.9552C8.21324 13.0733 9.57689 13.9622 11.1352 14.5975C11.4724 14.7347 11.806 14.8033 12.1267 14.8033C12.4342 14.8033 12.7298 14.7402 13.0052 14.614C13.5833 14.349 14.015 13.8342 14.2543 13.124C14.3688 12.7824 14.3663 12.4463 14.2475 12.1269C14.1199 11.78 13.711 11.3525 13.0325 10.8564C12.5685 10.5173 11.9204 10.1078 11.4647 10.083C10.7078 10.045 10.3287 10.599 10.1667 10.8359C9.96072 11.1372 10.0378 11.5484 10.3391 11.7545C10.6404 11.9606 11.0516 11.8834 11.2577 11.5821C11.3296 11.477 11.3706 11.4293 11.3942 11.4084C11.7651 11.5272 12.8229 12.3044 13.0133 12.6022C13.018 12.6213 13.0191 12.6503 13.0015 12.703C12.9181 12.9505 12.7555 13.2745 12.4546 13.4125C12.1727 13.5415 11.8524 13.4624 11.6337 13.3735C10.2374 12.8042 9.01834 12.0107 8.01595 11.0206C7.02017 10.0126 6.2267 8.79358 5.65774 7.39776C5.56857 7.17853 5.48936 6.85806 5.61845 6.57645C5.75634 6.27554 6.08043 6.11288 6.32715 6.0297C6.37984 6.01208 6.40883 6.01305 6.42892 6.01789C6.72684 6.20866 7.50356 7.26586 7.62252 7.6369C7.60155 7.66008 7.55388 7.70123 7.44876 7.77304Z" fill="white"/>
</svg>
