<svg width="20" height="20" viewBox="0 0 20 20" fill="none" xmlns="http://www.w3.org/2000/svg">
<g clip-path="url(#clip0)">
<path d="M17.5849 2.23745C16.0039 0.687522 13.448 -0.063475 9.98678 0.00419674C6.49675 0.0728377 4.16383 0.685408 2.64501 1.93205C1.1765 3.13727 0.492554 4.90088 0.492554 7.48219V10.1166C0.492554 13.164 2.12549 16.5142 5.24641 17.0211C5.60671 17.08 5.94612 16.8351 6.00463 16.4747C6.06314 16.1145 5.81853 15.775 5.45823 15.7165C3.0914 15.332 1.81427 12.5443 1.81427 10.1166V7.48219C1.81427 3.78086 3.18577 1.45984 10.0127 1.32556C13.1077 1.26423 15.3416 1.88905 16.6594 3.18116C17.6864 4.18821 18.1856 5.59504 18.1856 7.48219V10.1166C18.1856 14.1059 16.3951 15.8655 11.8025 16.3836H8.54602C8.37076 16.3836 8.20264 16.4532 8.07875 16.5772L5.78417 18.8717C5.52608 19.1298 5.52608 19.5483 5.78417 19.8064C5.91317 19.9354 6.08235 20 6.25144 20C6.42053 20 6.58971 19.9355 6.71871 19.8064L8.81979 17.7053H11.8395C11.8638 17.7053 11.8882 17.704 11.9124 17.7012C14.5407 17.4093 16.3405 16.7253 17.5763 15.5484C18.8757 14.311 19.5074 12.5342 19.5074 10.1165V7.48219C19.5074 5.25299 18.8606 3.48841 17.5849 2.23745Z" fill="white"/>
<path d="M10.4124 4.31625C10.4125 4.31625 10.4125 4.31625 10.4127 4.31625C11.4776 4.31625 12.4787 4.73101 13.2317 5.48403C13.9849 6.23714 14.3996 7.23847 14.3995 8.30351C14.3995 8.66848 14.6953 8.96437 15.0603 8.96437C15.0604 8.96437 15.0604 8.96437 15.0604 8.96437C15.4254 8.96437 15.7212 8.66857 15.7212 8.3036C15.7213 6.88549 15.1691 5.55223 14.1664 4.54949C13.1637 3.54675 11.8307 2.99463 10.4127 2.99463C10.4126 2.99463 10.4124 2.99463 10.4123 2.99463C10.0473 2.99463 9.7515 3.29052 9.7515 3.65549C9.75158 4.02037 10.0475 4.31625 10.4124 4.31625Z" fill="white"/>
<path d="M10.4123 6.64007C11.3294 6.64025 12.0756 7.3864 12.0757 8.30341C12.0758 8.66838 12.3716 8.96426 12.7366 8.96418C13.1017 8.96418 13.3975 8.6682 13.3974 8.30323C13.3971 6.65761 12.0582 5.31862 10.4124 5.31836H10.4124C10.0474 5.31836 9.75158 5.61416 9.7515 5.97913C9.7515 6.3441 10.0473 6.64007 10.4123 6.64007Z" fill="white"/>
<path d="M7.449 7.77304C7.14774 7.97905 7.07046 8.39028 7.27638 8.69154C7.48231 8.99281 7.89362 9.07 8.19489 8.86407C8.43183 8.70212 8.98677 8.3227 8.94782 7.56421C8.92315 7.11025 8.51368 6.46208 8.17453 5.99824C7.67845 5.31959 7.25092 4.91082 6.90648 4.78412C6.58486 4.66437 6.24853 4.66181 5.90612 4.77671C5.19689 5.01568 4.68195 5.44753 4.41708 6.02556C4.15917 6.58826 4.16489 7.23493 4.43373 7.89605C5.06868 9.45373 5.95758 10.8175 7.08165 11.9552C8.21348 13.0733 9.57714 13.9622 11.1354 14.5975C11.4727 14.7347 11.8063 14.8033 12.1269 14.8033C12.4344 14.8033 12.73 14.7402 13.0055 14.614C13.5835 14.349 14.0153 13.8342 14.2545 13.124C14.3691 12.7824 14.3665 12.4463 14.2477 12.1269C14.1201 11.78 13.7113 11.3525 13.0327 10.8564C12.5688 10.5173 11.9206 10.1078 11.4649 10.083C10.708 10.045 10.3289 10.599 10.167 10.8359C9.96096 11.1372 10.0381 11.5484 10.3393 11.7545C10.6407 11.9606 11.0518 11.8834 11.2579 11.5821C11.3298 11.477 11.3709 11.4293 11.3944 11.4084C11.7654 11.5272 12.8232 12.3044 13.0136 12.6022C13.0183 12.6213 13.0193 12.6503 13.0017 12.703C12.9183 12.9505 12.7558 13.2745 12.4549 13.4125C12.173 13.5415 11.8527 13.4624 11.634 13.3735C10.2376 12.8042 9.01858 12.0107 8.01619 11.0206C7.02041 10.0126 6.22694 8.79358 5.65799 7.39776C5.56882 7.17853 5.4896 6.85806 5.61869 6.57645C5.75659 6.27554 6.08067 6.11288 6.32739 6.0297C6.38009 6.01208 6.40907 6.01305 6.42916 6.01789C6.72708 6.20866 7.50381 7.26586 7.62276 7.6369C7.60179 7.66008 7.55412 7.70123 7.449 7.77304Z" fill="white"/>
</g>
<defs>
<clipPath id="clip0">
<rect width="20" height="20" fill="white"/>
</clipPath>
</defs>
</svg>
