<svg width="20" height="20" viewBox="0 0 20 20" fill="none" xmlns="http://www.w3.org/2000/svg">
<g clip-path="url(#clip0)">
<path d="M16.3768 8.6969L17.5576 6.65146C18.3593 5.26306 18.3593 3.60535 17.5576 2.21725C16.7561 0.828857 15.3204 -2.45312e-07 13.7175 -2.16151e-07L6.27728 -8.07977e-08C4.67403 -5.16312e-08 3.23833 0.828705 2.4371 2.21695C1.63555 3.60519 1.63555 5.26306 2.4371 6.65146L3.61797 8.69675C3.85296 9.10416 3.84014 9.6048 3.58471 10.0037C2.80163 11.2267 2.38781 12.6436 2.38781 14.1016C2.38781 16.1078 3.15228 17.6424 4.66015 18.6627C5.95287 19.5375 7.79842 20 9.99722 20C12.3193 20 14.2364 19.487 15.5409 18.5162C15.6726 18.4183 15.6999 18.2321 15.6019 18.1006C15.504 17.9689 15.3178 17.9416 15.1861 18.0396C13.9849 18.9334 12.1907 19.4058 9.99722 19.4058C7.9176 19.4058 6.18725 18.9787 4.99325 18.1706C3.65871 17.2675 2.98199 15.8984 2.98199 14.1016C2.98199 12.7574 3.36346 11.4511 4.08505 10.3241C4.46087 9.7377 4.47903 9.0004 4.13265 8.39966L3.10024 6.61163L4.64413 5.72021L5.27752 6.81732C5.71285 7.57172 6.62304 7.88681 7.44167 7.56622C8.25573 7.24762 9.11541 7.08603 9.99722 7.08603C10.8792 7.08603 11.739 7.24762 12.5531 7.56622C12.7682 7.65045 12.9896 7.69089 13.2072 7.69089C13.8173 7.69089 14.3962 7.3735 14.7172 6.81732L15.3506 5.72021L16.8945 6.61163L15.8622 8.39966C15.5156 8.99963 15.5336 9.73694 15.9092 10.3239C16.6313 11.451 17.0127 12.7571 17.0127 14.1016C17.0127 15.3777 16.6688 16.4455 15.9907 17.2752C15.887 17.4023 15.9057 17.5896 16.0328 17.6933C16.1599 17.7972 16.3472 17.7783 16.4509 17.6514C17.218 16.7125 17.6071 15.5182 17.6071 14.1016C17.6071 12.6433 17.193 11.2262 16.4097 10.0035C16.1543 9.60464 16.1416 9.10385 16.3768 8.6969ZM14.2025 6.52039C13.9151 7.01843 13.3123 7.22549 12.7697 7.01294C11.8864 6.66718 10.9535 6.49185 9.99722 6.49185C9.04095 6.49185 8.10833 6.66718 7.22515 7.01294C6.68224 7.22549 6.07967 7.01843 5.7922 6.52039L5.01019 5.16586C4.74575 4.70779 4.74575 4.16092 5.01019 3.7027C5.18642 3.39722 5.46307 3.1665 5.78899 3.05298C5.94402 2.99896 6.02596 2.82959 5.97195 2.67456C5.91793 2.51953 5.74856 2.43774 5.59353 2.49176C5.13287 2.65213 4.74285 2.97684 4.49551 3.40576C4.174 3.96271 4.13113 4.61273 4.3655 5.19485L2.81307 6.09131C2.26147 4.94644 2.3074 3.62976 2.95162 2.51404C3.64559 1.31195 4.88888 0.594177 6.27728 0.594177L13.7175 0.594177C15.1057 0.594177 16.3488 1.3121 17.0431 2.5145C17.6873 3.63007 17.7333 4.94659 17.1817 6.09131L15.6292 5.19501C15.8632 4.61395 15.8207 3.96484 15.5008 3.40866C15.1348 2.77222 14.4406 2.37701 13.6889 2.37701L6.87145 2.37701C6.70742 2.37701 6.57436 2.50992 6.57436 2.6741C6.57436 2.83813 6.70742 2.97119 6.87145 2.97119L13.6889 2.97119C14.2285 2.97119 14.7253 3.25226 14.9856 3.70483C15.249 4.16244 15.2485 4.70871 14.9846 5.16586L14.2025 6.52039Z" fill="white"/>
<path d="M9.25342 13.4825L9.87766 12.7014C9.90466 12.6666 9.90787 12.6312 9.90787 12.6075C9.90787 12.4835 9.75131 12.3623 9.63443 12.3623C9.57736 12.3623 9.53464 12.3847 9.50015 12.4331L8.75934 13.4413L8.75934 12.5126C8.75934 12.4088 8.63971 12.3623 8.52115 12.3623C8.41129 12.3623 8.28296 12.4017 8.28296 12.5126L8.28296 14.7955C8.28296 14.9012 8.4064 14.9494 8.52115 14.9494C8.63956 14.9494 8.75934 14.8966 8.75934 14.7955L8.75934 14.1107L8.93848 13.8851L9.59094 14.8744C9.62741 14.934 9.68662 14.967 9.75742 14.967C9.8981 14.967 10.0414 14.8467 10.0414 14.7288C10.0414 14.696 10.0324 14.6668 10.0151 14.6426L9.25342 13.4825Z" fill="white"/>
<path d="M11.2394 12.7824C11.5353 12.7824 11.5847 12.9633 11.5948 13.1205C11.598 13.2211 11.6804 13.2742 11.833 13.2742C11.9801 13.2742 12.0712 13.236 12.0712 13.0465C12.0712 12.6371 11.73 12.3623 11.2219 12.3623C10.5105 12.3623 10.4043 12.8723 10.4043 13.1764L10.4043 14.1563C10.4043 14.6812 10.6997 14.9703 11.2359 14.9703C11.7745 14.9703 12.0712 14.6812 12.0712 14.1563L12.0712 13.7383C12.0712 13.6601 12.0184 13.5809 11.9174 13.5809L11.3203 13.5809C11.2226 13.5809 11.1698 13.6782 11.1698 13.7699C11.1698 13.8638 11.2216 13.9588 11.3203 13.9588L11.5948 13.9588L11.5948 14.1563C11.5948 14.414 11.4707 14.5503 11.2359 14.5503C11.0002 14.5503 10.8805 14.4177 10.8805 14.1563L10.8805 13.1764C10.8805 12.915 11.0014 12.7824 11.2394 12.7824Z" fill="white"/>
<path d="M9.9975 9.96826C8.03552 9.96826 6.43945 11.5643 6.43945 13.5263C6.43945 15.4881 8.03552 17.0844 9.9975 17.0844C11.9593 17.0844 13.5554 15.4881 13.5554 13.5263C13.5554 11.5643 11.9593 9.96826 9.9975 9.96826ZM9.9975 16.49C8.36328 16.49 7.03363 15.1605 7.03363 13.5263C7.03363 11.8921 8.36328 10.5624 9.9975 10.5624C11.6316 10.5624 12.9612 11.8921 12.9612 13.5263C12.9612 15.1605 11.6317 16.49 9.9975 16.49Z" fill="white"/>
</g>
<defs>
<clipPath id="clip0">
<rect width="20" height="20" fill="white"/>
</clipPath>
</defs>
</svg>
