<svg width="14" height="14" viewBox="0 0 14 14" fill="none" xmlns="http://www.w3.org/2000/svg">
<path d="M8.10526 7.36805C7.69785 7.36805 7.3684 7.69793 7.3684 8.10529C7.3684 8.51189 7.69865 8.84214 8.10526 8.84214C8.51186 8.84214 8.84211 8.51189 8.84211 8.10529C8.84216 7.69793 8.51261 7.36805 8.10526 7.36805ZM5.89469 6.63157C6.30149 6.63157 6.63155 6.30151 6.63155 5.89471C6.63155 5.48764 6.30149 5.15795 5.89469 5.15795C5.488 5.15795 5.15793 5.48764 5.15793 5.89471C5.15793 6.30151 5.488 6.63157 5.89469 6.63157ZM8.10526 5.15795C7.69785 5.15795 7.3684 5.48764 7.3684 5.89471C7.3684 6.30151 7.6979 6.63157 8.10526 6.63157C8.51186 6.63157 8.84211 6.30151 8.84211 5.89471C8.84216 5.48764 8.51261 5.15795 8.10526 5.15795ZM8.84216 1.47362H5.15793V2.94733H8.84216V1.47362ZM10.3159 6.63157C10.7223 6.63157 11.0527 6.30151 11.0527 5.89471C11.0527 5.48764 10.723 5.15795 10.3159 5.15795C9.90847 5.15795 9.57901 5.48764 9.57901 5.89471C9.57901 6.30151 9.90926 6.63157 10.3159 6.63157ZM10.3159 8.84214C10.7223 8.84214 11.0527 8.51189 11.0527 8.10529C11.0527 7.69793 10.723 7.36843 10.3159 7.36843C9.90847 7.36843 9.57901 7.69793 9.57901 8.10529C9.57901 8.51189 9.90926 8.84214 10.3159 8.84214ZM5.89469 8.84214C6.30149 8.84214 6.63155 8.51189 6.63155 8.10529C6.63155 7.69793 6.30186 7.36805 5.89469 7.36805C5.48762 7.36805 5.15793 7.69793 5.15793 8.10529C5.15793 8.51189 5.488 8.84214 5.89469 8.84214ZM3.68423 11.0528C4.09092 11.0528 4.42108 10.7223 4.42108 10.3159C4.42108 9.90855 4.09092 9.57905 3.68423 9.57905C3.27715 9.57905 2.94737 9.90855 2.94737 10.3159C2.94737 10.7223 3.27748 11.0528 3.68423 11.0528ZM12.5262 1.47362H11.7896V2.94733H12.5262V12.5262H1.47371V2.94738H2.21047V1.47362H1.47371C0.659842 1.47362 0 2.13323 0 2.94738V12.526C0 13.3403 0.659842 14 1.47371 14H12.5262C13.3402 14 13.9999 13.3403 13.9999 12.526V2.94738C14 2.13323 13.3402 1.47362 12.5262 1.47362ZM3.68423 8.84214C4.09092 8.84214 4.42108 8.51189 4.42108 8.10529C4.42108 7.69793 4.09092 7.36805 3.68423 7.36805C3.27715 7.36805 2.94737 7.69793 2.94737 8.10529C2.94737 8.51189 3.27748 8.84214 3.68423 8.84214ZM3.68423 6.63157C4.09092 6.63157 4.42108 6.30151 4.42108 5.89471C4.42108 5.48764 4.09092 5.15795 3.68423 5.15795C3.27715 5.15795 2.94737 5.48764 2.94737 5.89471C2.94737 6.30151 3.27748 6.63157 3.68423 6.63157ZM5.89469 11.0528C6.30149 11.0528 6.63155 10.7223 6.63155 10.3159C6.63155 9.90855 6.30149 9.57905 5.89469 9.57905C5.488 9.57905 5.15793 9.90855 5.15793 10.3159C5.15793 10.7223 5.488 11.0528 5.89469 11.0528ZM3.68423 2.94738C4.09092 2.94738 4.42108 2.61732 4.42108 2.21052V0.736904C4.42108 0.329687 4.0913 0 3.68423 0C3.27748 0 2.94737 0.329687 2.94737 0.736857V2.21048C2.94737 2.61732 3.27748 2.94738 3.68423 2.94738ZM10.3159 2.94738C10.7223 2.94738 11.0527 2.61732 11.0527 2.21052V0.736904C11.0527 0.329687 10.7223 0 10.3159 0C9.90847 0 9.57901 0.329687 9.57901 0.736857V2.21048C9.57901 2.61732 9.90926 2.94738 10.3159 2.94738Z" fill="#706E6E"/>
</svg>
