<svg width="20" height="20" viewBox="0 0 20 20" fill="none" xmlns="http://www.w3.org/2000/svg">
<path d="M17.1578 10.7523C16.5663 12.2713 14.9483 13.0922 13.4057 12.7324L11.7809 16.9053C11.541 17.5215 10.8446 17.8275 10.2285 17.5876L4.70096 15.4353C4.08484 15.1954 3.77883 14.499 4.01873 13.8829L5.6436 9.70994C4.26348 8.93161 3.62704 7.23296 4.21854 5.7139C4.86688 4.04885 6.7483 3.22198 8.41247 3.86998C8.48483 3.89816 8.55704 3.9293 8.62822 3.96308C9.76351 3.16536 11.233 2.98005 12.5359 3.48735C13.8391 3.99482 14.7964 5.12506 15.0933 6.48046C15.1686 6.50371 15.2428 6.5296 15.3152 6.55777C16.9793 7.2058 17.8062 9.08722 17.1578 10.7523ZM16.2983 10.4176C16.7621 9.22658 16.1706 7.88071 14.9805 7.41731C14.8599 7.37035 14.7321 7.33272 14.5997 7.30589C14.4085 7.26627 14.2627 7.11157 14.2354 6.91862C14.0712 5.7568 13.2918 4.77156 12.2012 4.3469C11.1106 3.92225 9.8702 4.12101 8.96416 4.86559C8.81333 4.98967 8.60087 5.00486 8.43372 4.90498C8.31799 4.83517 8.19842 4.77649 8.07783 4.72954C6.88769 4.26612 5.54186 4.85763 5.07811 6.04865C4.61435 7.23966 5.20584 8.58553 6.39593 9.04893C6.6854 9.16165 6.98672 9.21383 7.28893 9.20677C6.95256 8.52326 6.80012 7.74635 6.88026 6.95288C6.90626 6.69934 7.1322 6.51467 7.38587 6.54021C7.6394 6.56621 7.82366 6.79194 7.79814 7.04566C7.652 8.48963 8.49426 9.86593 9.84708 10.3927C11.1999 10.9195 12.7515 10.4753 13.6203 9.31272C13.7724 9.10884 14.0615 9.06686 14.2659 9.21916C14.4696 9.3717 14.5115 9.66075 14.3593 9.86507C13.8818 10.5038 13.2436 10.9729 12.534 11.2491C12.7515 11.4585 13.0093 11.624 13.2986 11.7367C14.4887 12.2001 15.8346 11.6086 16.2983 10.4176ZM10.9214 16.5706L12.5461 12.3981C12.1479 12.1744 11.8057 11.8715 11.5342 11.5017C10.8648 11.5854 10.1701 11.5083 9.51231 11.2522C8.85453 10.9961 8.29109 10.5833 7.85414 10.0687C7.40437 10.1577 6.94707 10.1493 6.50287 10.045L4.8782 14.2175C4.82373 14.3574 4.89574 14.5213 5.03563 14.5758L10.5632 16.7281C10.7026 16.7824 10.8669 16.7105 10.9214 16.5706Z" fill="#F85B5B"/>
</svg>
