<svg width="14" height="11" viewBox="0 0 14 11" fill="none" xmlns="http://www.w3.org/2000/svg">
<path d="M13.8122 2.41271C13.103 1.6967 12.0628 1.41618 11.3745 1.23056C11.2422 1.19489 11.1173 1.1612 11.0133 1.12939C10.5908 0.999883 10.3206 0.708402 10.1983 0.548121C10.2024 0.42099 10.1099 0.276303 9.94904 0.173618L9.77759 0.06416C9.71183 0.0221888 9.63647 2.08411e-07 9.55972 2.06751e-07C9.40662 2.0344e-07 9.265 0.0873288 9.18973 0.228005L6.95851 4.22023L4.83521 0.245144C4.76089 0.0996558 4.61772 0.00935681 4.46115 0.00935681C4.38742 0.00935681 4.31468 0.029971 4.25073 0.0689125L4.07732 0.174598C3.91433 0.273868 3.81916 0.416682 3.82092 0.543962C3.69569 0.701451 3.42042 0.986635 2.99602 1.10679C2.89155 1.13634 2.76605 1.16729 2.63316 1.20006C1.94154 1.37061 0.896329 1.62832 0.174055 2.32879C-0.0376422 2.53416 -0.0180973 2.70377 0.0356366 2.8099L1.59246 5.88411C1.6448 5.98754 1.746 6.05176 1.85656 6.05179C1.94234 6.05179 2.02391 6.01394 2.08617 5.94527C2.23504 5.7811 2.78067 5.23657 3.55201 5.12278C4.17635 5.03063 4.90991 4.87095 5.6168 4.385L5.62514 4.37923C5.64222 4.36741 5.68544 4.3375 5.7073 4.3326C5.71117 4.33673 5.71815 4.34558 5.72682 4.36269L6.2987 5.40083L3.89007 9.71056L3.88855 9.71335C3.7763 9.92505 3.8442 10.1989 4.03986 10.3237L4.21131 10.4332C4.27708 10.4751 4.35243 10.4973 4.42919 10.4973C4.58195 10.4973 4.72331 10.4104 4.79867 10.2702L6.9365 6.55871L9.04269 10.3822C9.11713 10.5271 9.26004 10.6171 9.41631 10.6171C9.49 10.6171 9.56277 10.5965 9.62676 10.5575L9.80011 10.4519C9.99826 10.3312 10.0713 10.0588 9.96288 9.84461L7.59604 5.41366L8.22091 4.32886L8.22335 4.32443C8.23214 4.30786 8.23912 4.29924 8.24304 4.2952C8.26499 4.30067 8.30759 4.33147 8.32443 4.34368L8.33272 4.34965C9.03046 4.85084 9.76093 5.02657 10.3835 5.1324C11.1527 5.26304 11.6885 5.81953 11.8344 5.987C11.8969 6.0588 11.9799 6.09836 12.0679 6.09836C12.0679 6.09836 12.0679 6.09836 12.0679 6.09836C12.176 6.09836 12.2761 6.03619 12.3292 5.93612L13.9416 2.89658C13.9973 2.79164 14.02 2.62253 13.8122 2.41271Z" fill="#F85B5B"/>
</svg>
