<svg width="35" height="35" viewBox="0 0 35 35" fill="none" xmlns="http://www.w3.org/2000/svg">
<g clip-path="url(#clip0)">
<path d="M33.6938 2.64119C33.4318 1.57029 32.6088 0.728206 31.545 0.443035C27.5399 -0.63273 23.2316 0.513687 20.301 3.43537C20.1764 3.5596 20.1062 3.72823 20.1059 3.90423C20.1057 4.08023 20.1754 4.24907 20.2996 4.37367L23.6015 7.68553L22.4409 8.84267L22.3891 8.79904C22.1093 8.56223 21.6906 8.59685 21.4538 8.87643C21.217 9.15601 21.2516 9.57492 21.5314 9.81174L22.0484 10.2495C22.1724 10.3547 22.3245 10.4065 22.4761 10.4067C22.6467 10.407 22.8165 10.3419 22.9458 10.2133L24.5384 8.62551L25.4753 9.56523L23.884 11.1517C23.6397 11.3953 23.6228 11.7851 23.845 12.049L28.1512 17.1638C28.2653 17.299 28.3202 17.4707 28.3055 17.647C28.2904 17.8234 28.208 17.9838 28.0728 18.0979C27.7935 18.3338 27.3742 18.2985 27.1395 18.0205L22.9749 13.0739C22.8554 12.9317 22.6816 12.8464 22.4963 12.8381C22.3107 12.8297 22.1302 12.9 21.9988 13.0312L19.6547 15.3685C19.4105 15.6118 19.3935 16.0018 19.6155 16.2655L22.8782 20.1408C22.9926 20.276 23.0472 20.4477 23.0325 20.6242C23.0177 20.8004 22.935 20.9608 22.7998 21.0751C22.5205 21.3108 22.1017 21.2757 21.8665 20.9975L18.7457 17.2904C18.6261 17.1484 18.4523 17.0629 18.267 17.0548C18.082 17.0468 17.9009 17.1167 17.7696 17.248L15.4255 19.5847C15.1812 19.8283 15.1643 20.2183 15.3863 20.482L17.1496 22.5764C17.3858 22.8554 17.3504 23.2745 17.0714 23.5105C16.9362 23.6248 16.7648 23.6795 16.588 23.6647C16.4116 23.65 16.2515 23.5675 16.1382 23.4331L14.5162 21.5071C14.3966 21.3649 14.2231 21.2796 14.0375 21.2716C13.853 21.263 13.6717 21.3332 13.5401 21.4645L10.4027 24.5924C10.1436 24.8507 9.72264 24.8501 9.46435 24.591C9.33909 24.4656 9.27039 24.2988 9.27066 24.1215C9.27093 23.9443 9.34013 23.778 9.46577 23.6527L12.6019 20.526C12.7332 20.3948 12.8038 20.2145 12.7963 20.0292C12.7888 19.8436 12.704 19.6698 12.5621 19.5498L10.6582 17.9371C10.3799 17.7002 10.346 17.2811 10.5826 17.0028C10.8197 16.7242 11.2388 16.6904 11.5182 16.928L13.5899 18.6828C13.8529 18.9056 14.243 18.8898 14.487 18.6463L16.8311 16.3095C16.9628 16.1783 17.033 15.9983 17.0255 15.8127C17.018 15.6271 16.9333 15.4533 16.7917 15.3333L13.1113 12.2158C12.9764 12.101 12.8943 11.9407 12.88 11.7642C12.8658 11.5879 12.921 11.4164 13.0357 11.2815C13.1505 11.1467 13.3108 11.0645 13.4874 11.0502C13.6644 11.0362 13.8351 11.0912 13.9711 11.2067L17.8191 14.4663C18.0822 14.6891 18.4723 14.6733 18.7163 14.4298L21.0604 12.093C21.192 11.9618 21.2623 11.7815 21.255 11.5962C21.2473 11.4106 21.1625 11.2368 21.0209 11.1168L16.1042 6.95208C15.9693 6.83731 15.8872 6.677 15.8729 6.50047C15.8587 6.32393 15.9139 6.15242 16.0286 6.01755C16.1434 5.88268 16.3037 5.80076 16.4803 5.78625C16.6565 5.77226 16.8283 5.82747 16.9639 5.94302L17.4807 6.38055C17.7605 6.61736 18.1792 6.58275 18.416 6.30317C18.6528 6.02359 18.6182 5.60493 18.3386 5.36786L17.8227 4.9311C17.4178 4.58679 16.903 4.42064 16.3731 4.46339C15.8435 4.5064 15.3621 4.75295 15.0178 5.15781C14.6735 5.56268 14.5073 6.07746 14.5501 6.60733C14.5931 7.13694 14.8396 7.61839 15.2455 7.96374L19.6124 11.6626L18.2114 13.0594L14.8298 10.1951C14.4249 9.85052 13.9098 9.68463 13.3805 9.72737C12.8506 9.77038 12.3692 10.0169 12.0249 10.4218C11.6806 10.8267 11.5144 11.3414 11.5574 11.8713C11.6002 12.4009 11.8467 12.8824 12.2526 13.2277L15.3831 15.8794L13.9821 17.2759L12.3769 15.9163C11.5412 15.2054 10.2827 15.3072 9.57172 16.143C8.86102 16.9789 8.9628 18.2372 9.79946 18.949L11.1536 20.0959L10.0039 21.2422C8.91211 20.57 7.63999 20.2033 6.36473 20.2014C3.89119 20.1977 1.58126 21.527 0.336975 23.6705C-0.0323075 24.3055 -0.0259753 25.0901 0.352802 25.72C1.35358 27.4346 3.06687 28.6487 5.00276 29.0394C5.38734 30.9765 6.59625 32.6929 8.30779 33.6991C8.62761 33.8929 8.98801 33.9902 9.34855 33.9907C9.6964 33.9912 10.0446 33.9016 10.357 33.7214C11.3311 33.1599 12.1649 32.3576 12.7682 31.4013C12.9638 31.0913 12.8712 30.6816 12.5612 30.486C12.2512 30.2903 11.8413 30.3833 11.6459 30.693C11.1569 31.4678 10.482 32.1174 9.69388 32.5719C9.47674 32.6972 9.20821 32.6937 8.99353 32.563C8.99042 32.5609 8.98706 32.5591 8.98395 32.5573C7.47907 31.674 6.45344 30.1129 6.23988 28.3811C6.20275 28.0796 5.96569 27.8418 5.66455 27.8037C3.93317 27.5852 2.37512 26.5549 1.49663 25.0473C1.49456 25.044 1.49275 25.0409 1.49094 25.0377C1.36063 24.8227 1.35793 24.5541 1.48448 24.3369C2.49176 22.6015 4.36118 21.5252 6.36272 21.5283C7.28781 21.5297 8.21149 21.77 9.03041 22.2127L8.52862 22.713C8.15196 23.0882 7.94436 23.5879 7.94356 24.1195C7.94276 24.6512 8.14884 25.1515 8.52437 25.5281C8.91181 25.9167 9.42136 26.1114 9.93095 26.1122C10.4408 26.1129 10.9509 25.9198 11.3395 25.5324L11.8421 25.0313C12.006 25.3356 12.1429 25.6541 12.2492 25.9845C12.3392 26.2656 12.5994 26.4449 12.8796 26.4453C12.9473 26.4454 13.016 26.4351 13.0837 26.4134C13.4327 26.3012 13.6246 25.9277 13.5126 25.5787C13.3413 25.0455 13.1072 24.5371 12.8153 24.0611L13.9658 22.914L15.1234 24.289C15.4665 24.6949 15.9472 24.9429 16.4769 24.9875C17.0064 25.0319 17.5219 24.8673 17.9279 24.5242C18.7656 23.8158 18.8712 22.5578 18.1638 21.7208L16.7943 20.0941L18.1951 18.6973L20.852 21.8534C21.5602 22.6912 22.8182 22.7968 23.6562 22.0886C24.0621 21.7455 24.3104 21.2648 24.3547 20.7351C24.3991 20.2053 24.2348 19.69 23.8924 19.2852L21.0236 15.8773L22.4243 14.4808L26.125 18.8762C26.8332 19.7142 28.0912 19.8198 28.9292 19.1113C29.3351 18.7683 29.5831 18.2876 29.6277 17.7578C29.6721 17.2283 29.5075 16.7131 29.1654 16.3079L25.2528 11.6608L26.4124 10.505L29.7143 13.8168C29.8385 13.9414 30.0072 14.0117 30.1832 14.0119C30.3591 14.0122 30.528 13.9425 30.6526 13.8182C33.5657 10.9139 34.7308 6.63158 33.6938 2.64119ZM30.1703 12.3947L25.0097 7.21877L25.0097 7.21851L21.7231 3.92196C24.2959 1.67107 27.8669 0.829133 31.2009 1.72478C31.7981 1.88483 32.2596 2.35805 32.4056 2.95961C32.4067 2.96324 32.4074 2.96687 32.4082 2.9705C33.2731 6.29242 32.416 9.84269 30.1703 12.3947Z" fill="#AA1D1D"/>
<path d="M28.6929 3.53037L28.1289 3.52952L28.1297 2.9655C28.1303 2.59899 27.8337 2.3015 27.4672 2.30095C27.1007 2.3004 26.8032 2.59699 26.8026 2.9635L26.8018 3.52751L26.2377 3.52666C25.8712 3.52611 25.5737 3.8227 25.5732 4.18921C25.5726 4.55571 25.8692 4.8532 26.2357 4.85376L26.7998 4.85461L26.7989 5.41862C26.7984 5.78513 27.0949 6.08262 27.4615 6.08317C27.828 6.08373 28.1254 5.78713 28.126 5.42063L28.1269 4.85661L28.6909 4.85746C29.0571 4.85802 29.3549 4.56142 29.3554 4.19492C29.356 3.82841 29.0591 3.53092 28.6929 3.53037Z" fill="#AA1D1D"/>
<path d="M19.5295 8.07748C19.6532 8.18109 19.8037 8.23186 19.9536 8.23208C20.1436 8.23237 20.3326 8.15127 20.464 7.99387C20.699 7.71274 20.6618 7.29434 20.3804 7.05934L20.3802 7.05908C20.099 6.82382 19.6806 6.86155 19.4456 7.14268C19.2106 7.42382 19.2481 7.84248 19.5295 8.07748Z" fill="#AA1D1D"/>
<path d="M13.197 27.8488C12.8342 27.7998 12.4997 28.0546 12.4507 28.4179C12.4017 28.781 12.6565 29.1152 13.0198 29.1643C13.0494 29.1682 13.0792 29.1701 13.1082 29.1701C13.4358 29.1706 13.7211 28.9287 13.7659 28.5954L13.7661 28.5949C13.8149 28.2316 13.5603 27.8979 13.197 27.8488Z" fill="#AA1D1D"/>
</g>
<defs>
<clipPath id="clip0">
<rect width="34.0252" height="34.0252" fill="white" transform="matrix(1 0 -0.00301965 0.999995 0.102783 0)"/>
</clipPath>
</defs>
</svg>
