<svg width="61" height="60" viewBox="0 0 61 60" fill="none" xmlns="http://www.w3.org/2000/svg">
<g clip-path="url(#clip0)">
<path d="M57.3286 31.8743C58.0393 30.6991 58.0539 29.2324 57.3662 28.0451C54.7791 23.5735 49.97 20.7955 44.815 20.7955C44.5958 20.7955 44.3855 20.8825 44.2305 21.0375C44.0755 21.1925 43.9885 21.4028 43.9885 21.622L43.9885 27.4478H41.9468L41.9395 27.3638C41.9009 26.9088 41.5011 26.5711 41.0463 26.6094C40.5915 26.6478 40.2536 27.0478 40.2922 27.5029L40.3632 28.3438C40.3801 28.5456 40.4687 28.7251 40.6022 28.8586C40.7525 29.0089 40.9596 29.1009 41.1867 29.1011H43.9882V30.7541L41.189 30.7541C40.7593 30.7541 40.4016 31.0832 40.3655 31.5115L39.6657 39.8112C39.6474 40.0308 39.5449 40.2306 39.3768 40.3731C39.2083 40.5155 38.9946 40.5845 38.775 40.5662C38.3211 40.5288 37.9823 40.1288 38.0197 39.6771L38.6965 31.6503C38.7161 31.4197 38.6378 31.1916 38.4816 31.0213C38.3252 30.8507 38.1042 30.7539 37.8729 30.7541L33.7492 30.7544C33.3197 30.7541 32.9617 31.0834 32.9257 31.5113L32.3955 37.7997C32.3775 38.0195 32.2747 38.2191 32.1064 38.3618C31.9384 38.5043 31.7245 38.573 31.5046 38.5549C31.0509 38.5173 30.7123 38.1179 30.7495 37.6656L31.2569 31.6503C31.2763 31.4199 31.1982 31.1916 31.0418 31.0215C30.8856 30.8516 30.6644 30.7541 30.4331 30.7544L26.3098 30.7541C25.8801 30.7541 25.5221 31.0834 25.4861 31.5113L25.1995 34.9098C25.1625 35.3637 24.7627 35.7023 24.3091 35.6651C24.0892 35.6471 23.8899 35.5445 23.7469 35.376C23.6042 35.2078 23.5355 34.9943 23.5538 34.776L23.8168 31.6503C23.8364 31.4197 23.7583 31.1918 23.6017 31.0215C23.4465 30.8516 23.2248 30.7541 22.9932 30.7541L17.4743 30.7541C17.0186 30.7541 16.6478 30.3834 16.6478 29.9276C16.6475 29.7068 16.7336 29.4993 16.8898 29.3431C17.046 29.187 17.2533 29.1011 17.4743 29.1011L22.991 29.1011C23.2223 29.1009 23.443 29.0038 23.5994 28.8337C23.7561 28.6634 23.8342 28.4356 23.8145 28.2049L23.5533 25.1076C23.5161 24.6539 23.8549 24.2543 24.3084 24.2169C24.7625 24.1797 25.1621 24.5185 25.1995 24.9738L25.4838 28.344C25.5198 28.7719 25.8779 29.1011 26.3073 29.1009L30.4306 29.1011C30.6621 29.1011 30.8824 29.0041 31.039 28.8337C31.1957 28.6634 31.2738 28.4356 31.2543 28.2052L30.7495 22.2179C30.7315 21.9981 30.8 21.7843 30.9427 21.6161C31.0852 21.448 31.2847 21.3453 31.5046 21.3272C31.7245 21.3092 31.9382 21.3777 32.1064 21.5204C32.2749 21.6638 32.3772 21.8624 32.3955 22.0839L32.9234 28.344C32.9594 28.7719 33.3174 29.1011 33.7469 29.1009L37.8702 29.1011C38.1017 29.1011 38.3222 29.0038 38.4789 28.834C38.6353 28.6634 38.7133 28.4356 38.6939 28.2052L38.0195 20.2066C38.0014 19.9868 38.0699 19.7731 38.2126 19.6048C38.3553 19.4365 38.5549 19.3338 38.7748 19.3157C38.9946 19.2977 39.2081 19.3664 39.3766 19.5089C39.5444 19.6516 39.6474 19.8514 39.6654 20.0726L39.7365 20.9131C39.775 21.3681 40.1748 21.7058 40.6296 21.6674C41.0845 21.6291 41.4221 21.2293 41.384 20.7743L41.313 19.9352C41.2587 19.2753 40.9507 18.676 40.4456 18.2477C39.9406 17.8198 39.299 17.6138 38.6391 17.6682C37.9793 17.7225 37.38 18.0305 36.9516 18.5356C36.5238 19.0406 36.3178 19.6822 36.3721 20.3439L36.9713 27.4478L34.5068 27.4478L34.0428 21.9467C33.9887 21.2866 33.6803 20.6873 33.1757 20.2594C32.6704 19.8313 32.0288 19.6253 31.369 19.6797C30.7091 19.734 30.1098 20.042 29.6817 20.5473C29.2536 21.0521 29.0476 21.6937 29.102 22.3554L29.5314 27.4481L27.0672 27.4478L26.8468 24.8365C26.735 23.4744 25.5351 22.4572 24.1728 22.5693C22.8106 22.6816 21.7937 23.8812 21.9058 25.245L22.0916 27.4478L20.0691 27.4478C19.6972 25.8946 18.8974 24.4523 17.7741 23.3289C15.5952 21.1501 12.3882 20.2911 9.4052 21.0877C8.52092 21.3231 7.83641 22.0209 7.61654 22.9097C6.9914 25.3025 7.43503 27.8805 8.79924 29.9279C7.4348 31.975 6.99163 34.5525 7.61654 36.9455C7.72819 37.3978 7.96062 37.8006 8.27821 38.1182C8.58462 38.4246 8.97071 38.6518 9.40475 38.7675C10.758 39.1289 12.1992 39.1545 13.5725 38.8415C14.0177 38.7401 14.2963 38.2972 14.1949 37.852C14.0935 37.4067 13.6501 37.1282 13.2054 37.2296C12.0925 37.483 10.9258 37.4624 9.83079 37.1702C9.52895 37.0898 9.29515 36.8505 9.22072 36.5464C9.21981 36.5418 9.21844 36.5373 9.21729 36.5329C8.66659 34.4301 9.13487 32.1508 10.4696 30.4352C10.7021 30.1365 10.7021 29.7183 10.4699 29.4198C9.13465 27.7042 8.66636 25.4249 9.2173 23.3223C9.21844 23.3175 9.21958 23.3132 9.22072 23.3088C9.29493 23.0045 9.52873 22.7652 9.83148 22.6848C12.2464 22.0398 14.8422 22.7346 16.6053 24.4977C17.4202 25.3126 18.0236 26.3371 18.3567 27.4478L17.4741 27.4478C16.8117 27.4476 16.1891 27.7058 15.7208 28.1741C15.2525 28.6424 14.9943 29.265 14.9943 29.9276C14.9943 30.6112 15.2726 31.2311 15.7215 31.68C16.1706 32.1291 16.7905 32.4074 17.4741 32.4074H18.3581C18.235 32.82 18.0757 33.2214 17.8789 33.6063C17.7111 33.9335 17.783 34.3205 18.0298 34.5673C18.0894 34.6269 18.159 34.6783 18.2378 34.7187C18.6444 34.9267 19.1422 34.766 19.3504 34.3596C19.6682 33.7385 19.9089 33.0842 20.0701 32.4074L22.0939 32.4074L21.9058 34.6386C21.8514 35.2984 22.0574 35.94 22.4855 36.4453C22.9136 36.9501 23.5131 37.2583 24.173 37.3127C25.5351 37.4245 26.7347 36.4076 26.8468 35.047L27.0695 32.4074L29.5337 32.4072L29.1017 37.5284C28.9896 38.8904 30.0066 40.0899 31.3687 40.2023C32.0286 40.2566 32.6704 40.0509 33.1754 39.6226C33.6805 39.1942 33.9887 38.5951 34.0428 37.9369L34.5093 32.4072H36.9733L36.3721 39.5397C36.2598 40.9019 37.2768 42.1015 38.6391 42.2136C39.299 42.2679 39.9406 42.062 40.4458 41.6339C40.9507 41.2058 41.2587 40.6064 41.3132 39.9482L41.9489 32.4072L43.9885 32.4074L43.9885 38.2332C43.9885 38.4524 44.0755 38.6627 44.2305 38.8177C44.3855 38.9728 44.5958 39.0598 44.815 39.0598C49.9394 39.0598 54.7337 36.3067 57.3286 31.8743ZM45.6415 37.3798L45.6413 28.2746L45.6415 28.2744L45.6415 22.4755C49.891 22.7527 53.7818 25.1507 55.9353 28.8732C56.3214 29.5397 56.3123 30.363 55.9121 31.0222C55.9098 31.0263 55.9073 31.0302 55.9047 31.0341C53.746 34.7253 49.8673 37.1035 45.6415 37.3798Z" fill="#AA1D1D"/>
<path d="M52.134 28.2606L51.6371 27.7638L52.134 27.2669C52.4568 26.9441 52.4568 26.4208 52.134 26.0979C51.8111 25.7751 51.2878 25.7751 50.965 26.0979L50.4681 26.5948L49.9713 26.0979C49.6485 25.7751 49.1252 25.7751 48.8023 26.0979C48.4795 26.4208 48.4795 26.9441 48.8023 27.2669L49.2991 27.7638L48.8023 28.2606C48.4795 28.5834 48.4795 29.1067 48.8023 29.4296C49.1252 29.7524 49.6485 29.7524 49.9713 29.4296L50.4681 28.9328L50.965 29.4296C51.2876 29.7522 51.8111 29.7524 52.134 29.4296C52.4568 29.1067 52.4566 28.5832 52.134 28.2606Z" fill="#AA1D1D"/>
<path d="M40.0506 24.2126C40.0686 24.4128 40.1567 24.59 40.2887 24.7219C40.4561 24.8893 40.6942 24.984 40.9486 24.9608C41.4031 24.9194 41.7383 24.5176 41.6968 24.0628L41.6968 24.0623C41.6557 23.6075 41.2534 23.2728 40.7988 23.3141C40.3442 23.3554 40.009 23.7577 40.0506 24.2126Z" fill="#AA1D1D"/>
<path d="M17.0747 36.085C16.7978 35.7227 16.2786 35.6533 15.9158 35.9307C15.5532 36.2079 15.484 36.7268 15.7614 37.0896C15.784 37.1191 15.8087 37.1469 15.8343 37.1725C16.1229 37.4611 16.5873 37.4985 16.9199 37.244L16.9206 37.2437C17.2832 36.9661 17.3521 36.4478 17.0747 36.085Z" fill="#AA1D1D"/>
</g>
<defs>
<clipPath id="clip0">
<rect width="42.3864" height="42.3864" fill="white" transform="matrix(0.708174 0.706038 -0.708174 0.706038 30.017 0)"/>
</clipPath>
</defs>
</svg>
