<svg width="22" height="22" viewBox="0 0 22 22" fill="none" xmlns="http://www.w3.org/2000/svg">
<path d="M17.1007 17.9813C16.2773 17.7285 17.1007 15.0996 13.0083 10.8879C12.6873 10.5575 21.7454 6.2329 21.9153 7.11957C22.6375 10.8879 18.5451 18.4246 17.1007 17.9813Z" fill="#F5F881"/>
<path d="M1.70067 16.9085C2.76359 17.92 3.61393 17.4395 5.73977 18.7291C7.86561 20.0188 8.71595 23.2807 12.9676 21.4601C15.6158 20.3261 15.1935 17.5912 14.6683 16.2258C13.1802 12.3569 9.99145 12.3316 11.4795 9.85356C15.3061 3.48134 19.5577 1.50898 17.4319 0.75039C12.9676 -0.842656 8.29078 0.295233 5.10202 2.34344C2.97618 3.70892 0 6.66745 0 10.9915C0 14.1079 0.637752 15.897 1.70067 16.9085Z" fill="#F5F881"/>
</svg>
