<svg width="14" height="10" viewBox="0 0 14 10" fill="none" xmlns="http://www.w3.org/2000/svg">
<path d="M6.99 0.823242C4.31897 0.823242 1.89674 2.28459 0.109386 4.6582C-0.0364621 4.85266 -0.0364621 5.12434 0.109386 5.31881C1.89674 7.69528 4.31897 9.15662 6.99 9.15662C9.66103 9.15662 12.0833 7.69528 13.8706 5.32166C14.0165 5.1272 14.0165 4.85552 13.8706 4.66106C12.0833 2.28459 9.66103 0.823242 6.99 0.823242ZM7.1816 7.92406C5.40855 8.03559 3.94434 6.57424 4.05587 4.79833C4.14739 3.33412 5.33419 2.14732 6.7984 2.0558C8.57145 1.94427 10.0357 3.40562 9.92413 5.18154C9.82975 6.64288 8.64295 7.82969 7.1816 7.92406ZM7.09295 6.56853C6.13779 6.62858 5.34849 5.84214 5.41141 4.88698C5.46002 4.09768 6.10061 3.45995 6.88991 3.40848C7.84507 3.34842 8.63437 4.13486 8.57145 5.09002C8.51998 5.88218 7.87939 6.51991 7.09295 6.56853Z" fill="#F85B5B"/>
</svg>
