<svg width="242" height="345" viewBox="0 0 242 345" fill="none" xmlns="http://www.w3.org/2000/svg">
<path d="M0 0H242V345H0V0Z" fill="#F13A3A"/>
<g clip-path="url(#clip0)">
<path d="M172.875 283.5V288.625H188.25C195.044 288.617 201.557 285.914 206.361 281.111C211.164 276.307 213.867 269.794 213.875 263V257.875H198.5C191.706 257.883 185.193 260.586 180.389 265.389C175.586 270.193 172.883 276.706 172.875 283.5ZM188.25 278.375H184.001C185.065 275.379 187.03 272.786 189.625 270.951C192.221 269.116 195.321 268.129 198.5 268.125H202.749C201.685 271.121 199.72 273.714 197.125 275.549C194.529 277.384 191.429 278.371 188.25 278.375Z" fill="#E23333"/>
<path d="M162.625 227.125H142.125V155.375C142.125 154.299 141.787 153.25 141.158 152.377C140.528 151.504 139.64 150.851 138.619 150.511L111.375 141.43V124.625H101.125V237.375C101.136 246.886 104.919 256.005 111.645 262.73C118.37 269.456 127.489 273.239 137 273.25H142.125C148.919 273.242 155.432 270.539 160.236 265.736C165.039 260.932 167.742 254.419 167.75 247.625V232.25C167.75 230.891 167.21 229.587 166.249 228.626C165.288 227.665 163.984 227.125 162.625 227.125ZM131.875 262.488C126.091 261.299 120.893 258.152 117.159 253.577C113.424 249.003 111.381 243.28 111.375 237.375H131.875V262.488ZM131.875 227.125H111.375V210.32L131.875 203.489V227.125ZM131.875 192.68L111.375 199.511V181H121.625V170.75H111.375V152.233L131.875 159.07V192.68ZM157.5 247.625C157.5 251.703 155.88 255.613 152.997 258.497C150.113 261.38 146.203 263 142.125 263V237.375H157.5V247.625Z" fill="#E23333"/>
<path d="M178 27.25C147.591 27.25 117.865 36.2673 92.5811 53.1615C67.2971 70.0558 47.5906 94.0683 35.9536 122.162C24.3166 150.257 21.2719 181.171 27.2043 210.995C33.1368 240.82 47.7801 268.215 69.2824 289.718C90.7847 311.22 118.18 325.863 148.005 331.796C177.829 337.728 208.743 334.683 236.838 323.047C264.932 311.41 288.944 291.703 305.838 266.419C322.733 241.135 331.75 211.409 331.75 181C331.704 140.237 315.49 101.157 286.667 72.3333C257.843 43.5095 218.763 27.2961 178 27.25ZM178 324.5C149.618 324.5 121.874 316.084 98.2757 300.316C74.6773 284.548 56.2845 262.136 45.4234 235.915C34.5622 209.694 31.7204 180.841 37.2574 153.005C42.7944 125.168 56.4614 99.599 76.5302 79.5302C96.5991 59.4613 122.168 45.7943 150.005 40.2573C177.841 34.7203 206.694 37.5621 232.915 48.4233C259.136 59.2845 281.548 77.6772 297.316 101.276C313.084 124.874 321.5 152.618 321.5 181C321.457 219.045 306.324 255.52 279.422 282.422C252.52 309.324 216.045 324.457 178 324.5Z" fill="#E23333"/>
<path d="M188.25 53.3207C188.25 53.3207 171.379 53.0337 170.625 53.1004C137.99 55.019 107.319 69.3248 84.8773 93.0957C62.4352 116.867 49.9153 148.309 49.875 181L50.0031 186.125C50.9835 210.794 59.0702 234.655 73.2907 254.836C87.5111 275.018 107.26 290.662 130.161 299.885C153.062 309.109 178.14 311.519 202.378 306.827C226.617 302.135 248.984 290.539 266.788 273.436C284.592 256.332 297.076 234.449 302.738 210.419C308.399 186.388 306.997 161.233 298.701 137.98C290.404 114.728 275.566 94.3671 255.971 79.3479C236.377 64.3287 212.86 55.2906 188.25 53.3207ZM169.979 63.4272C172.342 63.2684 174.715 63.1659 177.113 63.1454C176.047 66.1359 174.083 68.7239 171.49 70.5551C168.896 72.3863 165.8 73.3711 162.625 73.3749H158.376C159.279 70.8515 160.824 68.6069 162.859 66.8625C164.894 65.1181 167.348 63.9341 169.979 63.4272ZM285.625 134.875V133.014C292.712 148.86 296.212 166.074 295.876 183.429C295.539 200.784 291.373 217.85 283.677 233.408C275.98 248.966 264.943 262.633 251.353 273.431C237.763 284.229 221.955 291.893 205.06 295.875C188.165 299.856 170.599 300.057 153.617 296.463C136.636 292.869 120.657 285.569 106.824 275.085C92.9899 264.6 81.6425 251.19 73.5921 235.812C65.5416 220.434 60.9869 203.467 60.2531 186.125H65.25C72.0437 186.117 78.5568 183.414 83.3606 178.611C88.1645 173.807 90.8669 167.294 90.875 160.5V155.375H75.5C70.7875 155.393 66.1732 156.724 62.175 159.219C66.4135 136.907 76.99 116.289 92.6391 99.8311C108.288 83.373 128.348 71.7717 150.417 66.4151C148.369 70.1159 147.281 74.2704 147.25 78.4999V83.6249H162.625C168.45 83.6164 174.099 81.6232 178.64 77.974C183.181 74.3248 186.342 69.2374 187.604 63.5502C214.111 65.7039 239.103 76.791 258.488 94.9972C255.633 94.263 252.698 93.886 249.75 93.8749H137V104.125H153.81L157.223 114.375H147.25V124.625H160.642L162.892 131.369C163.231 132.389 163.883 133.277 164.755 133.906C165.627 134.535 166.675 134.874 167.75 134.875H239.5V150.25H234.375C224.864 150.261 215.745 154.044 209.02 160.769C202.294 167.495 198.511 176.614 198.5 186.125C198.5 187.484 199.04 188.788 200.001 189.749C200.962 190.71 202.266 191.25 203.625 191.25H213.875C222.494 191.24 230.822 188.127 237.335 182.48C243.847 176.833 248.109 169.031 249.34 160.5H260C266.794 160.492 273.307 157.789 278.111 152.986C282.914 148.182 285.617 141.669 285.625 134.875ZM61.0014 175.875C62.0652 172.879 64.0297 170.286 66.6255 168.451C69.2212 166.616 72.3211 165.629 75.5 165.625H79.7486C78.6848 168.62 76.7203 171.214 74.1245 173.049C71.5288 174.884 68.4289 175.871 65.25 175.875H61.0014ZM239.5 104.125V124.625H215.863L222.695 104.125H239.5ZM193.375 114.375V104.125H211.887L205.055 124.625H171.445L164.614 104.125H183.125V114.375H193.375ZM238.988 160.5C237.799 166.284 234.652 171.482 230.077 175.216C225.503 178.951 219.78 180.993 213.875 181H209.262C210.451 175.215 213.598 170.018 218.173 166.283C222.747 162.549 228.47 160.506 234.375 160.5H238.988ZM260 150.25H249.75V134.875H275.375C275.375 138.953 273.755 142.863 270.872 145.747C267.988 148.63 264.078 150.25 260 150.25ZM274.863 124.625H249.75V104.125C255.655 104.131 261.378 106.174 265.952 109.908C270.527 113.643 273.674 118.84 274.863 124.625Z" fill="#E23333"/>
<path d="M176.498 182.502C175.537 181.541 174.234 181.001 172.875 181.001C171.516 181.001 170.213 181.541 169.252 182.502L153.877 197.877C152.916 198.838 152.376 200.141 152.376 201.5C152.376 202.859 152.916 204.162 153.877 205.124L194.877 246.123C195.838 247.084 197.141 247.624 198.5 247.624C199.859 247.624 201.162 247.084 202.123 246.123L217.498 230.749C218.459 229.787 218.999 228.484 218.999 227.125C218.999 225.766 218.459 224.463 217.498 223.502L176.498 182.502ZM198.5 235.253L164.747 201.5L172.875 193.372L206.628 227.125L198.5 235.253Z" fill="#E23333"/>
<path d="M230.752 215.374L246.127 230.749C247.088 231.709 248.391 232.249 249.75 232.249C251.109 232.249 252.412 231.709 253.373 230.749L289.248 194.874C290.209 193.912 290.749 192.609 290.749 191.25C290.749 189.891 290.209 188.588 289.248 187.627L273.873 172.252C272.912 171.291 271.609 170.751 270.25 170.751C268.891 170.751 267.588 171.291 266.627 172.252L230.752 208.127C229.791 209.088 229.251 210.391 229.251 211.75C229.251 213.109 229.791 214.412 230.752 215.374ZM270.25 183.122L278.378 191.25L249.75 219.878L241.622 211.75L270.25 183.122Z" fill="#E23333"/>
<path d="M111.375 99H121.625V109.25H111.375V99Z" fill="#E23333"/>
<path d="M157.5 150.25H167.75V160.5H157.5V150.25Z" fill="#E23333"/>
<path d="M75.5 201.5H85.75V211.75H75.5V201.5Z" fill="#E23333"/>
<path d="M224.125 247.625H234.375V257.875H224.125V247.625Z" fill="#E23333"/>
</g>
<defs>
<clipPath id="clip0">
<rect width="227" height="328" fill="white" transform="translate(14 17)"/>
</clipPath>
</defs>
</svg>
